<?xml version="1.0" encoding="UTF-8" standalone="no"?>
<!-- Created with Inkscape (http://www.inkscape.org/) -->

<svg
   width="854"
   height="480"
   viewBox="0 0 225.95416 127"
   version="1.1"
   id="svg56128"
   inkscape:version="1.1.1 (3bf5ae0d25, 2021-09-20)"
   sodipodi:docname="font.svg"
   xmlns:inkscape="http://www.inkscape.org/namespaces/inkscape"
   xmlns:sodipodi="http://sodipodi.sourceforge.net/DTD/sodipodi-0.dtd"
   xmlns:xlink="http://www.w3.org/1999/xlink"
   xmlns="http://www.w3.org/2000/svg"
   xmlns:svg="http://www.w3.org/2000/svg">
  <sodipodi:namedview
     id="namedview56130"
     pagecolor="#ffffff"
     bordercolor="#666666"
     borderopacity="1.0"
     inkscape:pageshadow="2"
     inkscape:pageopacity="0.0"
     inkscape:pagecheckerboard="0"
     inkscape:document-units="mm"
     showgrid="false"
     units="px"
     inkscape:snap-global="false"
     inkscape:zoom="0.5"
     inkscape:cx="-401"
     inkscape:cy="199"
     inkscape:window-width="1366"
     inkscape:window-height="705"
     inkscape:window-x="-8"
     inkscape:window-y="-8"
     inkscape:window-maximized="1"
     inkscape:current-layer="layer1" />
  <defs
     id="defs56125">
    <linearGradient
       inkscape:collect="always"
       id="linearGradient24654">
      <stop
         style="stop-color:#aadb2e;stop-opacity:1"
         offset="0"
         id="stop24650" />
      <stop
         style="stop-color:#40c23a;stop-opacity:1"
         offset="1"
         id="stop24652" />
    </linearGradient>
    <linearGradient
       inkscape:collect="always"
       id="linearGradient7282">
      <stop
         style="stop-color:#aadb2e;stop-opacity:1"
         offset="0"
         id="stop7278" />
      <stop
         style="stop-color:#40c23a;stop-opacity:1"
         offset="1"
         id="stop7280" />
    </linearGradient>
    <inkscape:path-effect
       effect="bend_path"
       id="path-effect6063"
       is_visible="true"
       lpeversion="1"
       bendpath="m 34.999999,60.48902 c 54.484177,-15.990682 106.950071,-21.889946 153.858121,0"
       prop_scale="1"
       scale_y_rel="false"
       vertical="false"
       hide_knot="false"
       bendpath-nodetypes="cc" />
    <linearGradient
       inkscape:collect="always"
       id="linearGradient69729">
      <stop
         style="stop-color:#40c23a;stop-opacity:1"
         offset="0"
         id="stop69725" />
      <stop
         style="stop-color:#207d2a;stop-opacity:1"
         offset="1"
         id="stop69727" />
    </linearGradient>
    <marker
       style="overflow:visible"
       id="Arrow1Lstart"
       refX="0"
       refY="0"
       orient="auto"
       inkscape:stockid="Arrow1Lstart"
       inkscape:isstock="true">
      <path
         transform="matrix(0.8,0,0,0.8,10,0)"
         style="fill:context-stroke;fill-rule:evenodd;stroke:context-stroke;stroke-width:1pt"
         d="M 0,0 5,-5 -12.5,0 5,5 Z"
         id="path69133" />
    </marker>
    <inkscape:path-effect
       effect="bend_path"
       id="path-effect65483"
       is_visible="true"
       lpeversion="1"
       bendpath="m 36.10228,99.275728 c 67.79008,-21.46516 137.51817,-24.655243 210.19914,0"
       prop_scale="1"
       scale_y_rel="false"
       vertical="false"
       hide_knot="false"
       bendpath-nodetypes="cc" />
    <inkscape:path-effect
       effect="bend_path"
       id="path-effect61015"
       is_visible="true"
       lpeversion="1"
       bendpath="m 36.10228,99.275728 c 67.79008,-21.46516 137.51817,-24.655243 210.19914,0"
       prop_scale="1"
       scale_y_rel="false"
       vertical="false"
       hide_knot="false"
       bendpath-nodetypes="cc" />
    <radialGradient
       inkscape:collect="always"
       xlink:href="#linearGradient69729"
       id="radialGradient69731"
       cx="113.83381"
       cy="71.496155"
       fx="113.83381"
       fy="71.496155"
       r="112.97708"
       gradientTransform="matrix(3.7927476,0,0,2.7595424,-3.4823369,49.084017)"
       gradientUnits="userSpaceOnUse" />
    <linearGradient
       inkscape:collect="always"
       xlink:href="#linearGradient7282"
       id="linearGradient6798"
       x1="110.2327"
       y1="15.70673"
       x2="111.94615"
       y2="89.385574"
       gradientUnits="userSpaceOnUse" />
    <linearGradient
       inkscape:collect="always"
       xlink:href="#linearGradient7282"
       id="linearGradient13818"
       gradientUnits="userSpaceOnUse"
       x1="109.37596"
       y1="20.275961"
       x2="109.94711"
       y2="74.535576" />
    <linearGradient
       inkscape:collect="always"
       xlink:href="#linearGradient7282"
       id="linearGradient13820"
       gradientUnits="userSpaceOnUse"
       x1="109.37596"
       y1="20.275961"
       x2="109.94711"
       y2="74.535576" />
    <linearGradient
       inkscape:collect="always"
       xlink:href="#linearGradient7282"
       id="linearGradient13822"
       gradientUnits="userSpaceOnUse"
       x1="109.37596"
       y1="20.275961"
       x2="109.94711"
       y2="74.535576" />
    <linearGradient
       inkscape:collect="always"
       xlink:href="#linearGradient7282"
       id="linearGradient13824"
       gradientUnits="userSpaceOnUse"
       x1="109.37596"
       y1="20.275961"
       x2="109.94711"
       y2="74.535576" />
    <linearGradient
       inkscape:collect="always"
       xlink:href="#linearGradient7282"
       id="linearGradient13826"
       gradientUnits="userSpaceOnUse"
       x1="109.37596"
       y1="20.275961"
       x2="109.94711"
       y2="74.535576" />
    <linearGradient
       inkscape:collect="always"
       xlink:href="#linearGradient7282"
       id="linearGradient13828"
       gradientUnits="userSpaceOnUse"
       x1="109.37596"
       y1="20.275961"
       x2="109.94711"
       y2="74.535576" />
    <linearGradient
       inkscape:collect="always"
       xlink:href="#linearGradient7282"
       id="linearGradient13830"
       gradientUnits="userSpaceOnUse"
       x1="109.37596"
       y1="20.275961"
       x2="109.94711"
       y2="74.535576" />
    <linearGradient
       inkscape:collect="always"
       xlink:href="#linearGradient7282"
       id="linearGradient13832"
       gradientUnits="userSpaceOnUse"
       x1="109.37596"
       y1="20.275961"
       x2="109.94711"
       y2="74.535576" />
    <linearGradient
       inkscape:collect="always"
       xlink:href="#linearGradient7282"
       id="linearGradient13834"
       gradientUnits="userSpaceOnUse"
       x1="109.37596"
       y1="20.275961"
       x2="109.94711"
       y2="74.535576" />
    <linearGradient
       inkscape:collect="always"
       xlink:href="#linearGradient7282"
       id="linearGradient13836"
       gradientUnits="userSpaceOnUse"
       x1="109.37596"
       y1="20.275961"
       x2="109.94711"
       y2="74.535576" />
    <linearGradient
       inkscape:collect="always"
       xlink:href="#linearGradient7282"
       id="linearGradient13838"
       gradientUnits="userSpaceOnUse"
       x1="109.37596"
       y1="20.275961"
       x2="109.94711"
       y2="74.535576" />
    <linearGradient
       inkscape:collect="always"
       xlink:href="#linearGradient24654"
       id="linearGradient24520"
       x1="113.08846"
       y1="93.954811"
       x2="113.65961"
       y2="109.37596"
       gradientUnits="userSpaceOnUse"
       gradientTransform="translate(2.2253392,-29.078854)" />
  </defs>
  <g
     inkscape:label="Layer 1"
     inkscape:groupmode="layer"
     id="layer1">
    <g
       aria-label="PETUALANGAN"
       id="g6356"
       style="font-size:28.9752px;line-height:1.25;font-family:Riffic;-inkscape-font-specification:Riffic;fill:#082819;fill-opacity:1;stroke-width:0.271642"
       transform="translate(-11.423077,-15.135577)" />
    <g
       id="g69787"
       inkscape:export-filename="D:\Materi Kuliah\Semester 5\Desain Game\ASET PENTOL\bgutama.png"
       inkscape:export-xdpi="96"
       inkscape:export-ydpi="96">
      <g
         id="g66853"
         transform="matrix(0.26458333,0,0,0.26458333,-0.33353308,-1.6882234)">
        <rect
           style="fill:url(#radialGradient69731);fill-opacity:1;stroke:none;stroke-width:54.9963;stroke-miterlimit:4;stroke-dasharray:none;stroke-dashoffset:10.0157;stroke-opacity:1"
           id="rect69569"
           width="854"
           height="480"
           x="1.2605975"
           y="6.3806868" />
      </g>
      <path
         style="fill:#082819;fill-opacity:1;stroke:none;stroke-width:0.264583px;stroke-linecap:butt;stroke-linejoin:miter;stroke-opacity:1"
         d="M 81.183107,75.514186 H 151.9883 v 6.222796 H 81.183107 Z"
         id="path53577" />
      <path
         style="fill:#082819;fill-opacity:1;stroke:none;stroke-width:0.264583px;stroke-linecap:butt;stroke-linejoin:miter;stroke-opacity:1"
         d="m 75.143175,67.765718 2.423202,4.038666 17.164336,4.543502 57.248077,2.625132 0.10097,-14.034368 -35.64124,-2.019334 -28.371608,1.615466 z"
         id="path41795" />
      <path
         style="fill:#082819;fill-opacity:1;stroke:none;stroke-width:0.264583px;stroke-linecap:butt;stroke-linejoin:miter;stroke-opacity:1"
         d="m 39.140401,58.551765 45.977886,-8.995672 36.553843,-3.712501 39.98077,4.997596 5.85432,5.140386 -8.06754,12.137019 -6.56827,-0.856731 -5.069,-1.285097 -20.49014,-2.498797 -33.698069,2.498797 -8.210338,1.499279 -8.924277,1.285098 -22.846154,5.354566 -10.280769,2.712981 z"
         id="path30632" />
      <g
         aria-label="HAFIDZAH"
         id="text13842"
         style="font-size:19.7556px;line-height:1.25;font-family:Riffic;-inkscape-font-specification:Riffic;fill:#082819;fill-opacity:1;stroke-width:0.264583"
         transform="translate(2.6621985,10.003192)">
        <path
           id="path13858"
           style="font-family:'Germania One';-inkscape-font-specification:'Germania One';fill:#082819;fill-opacity:1"
           d="m 112.0599,55.441206 c -0.79572,0.232705 -1.39474,0.932965 -2.11713,1.342043 -0.64059,0.620438 -0.91055,0.530611 -0.75592,-0.372903 0.28453,-0.868125 -0.58296,-0.584229 -1.1293,-0.621484 -1.2375,0 -2.475,0 -3.7125,0 -0.0648,0.414913 0.12548,1.376964 -0.082,1.485999 -1.16089,-0.960002 -2.63183,-1.70519 -4.16015,-1.706702 -1.666971,0.32452 -2.787122,1.75716 -3.913386,2.905015 -1.217694,1.459863 -0.909977,3.453527 -0.992834,5.210219 -0.0155,2.683611 0.0176,5.367171 -0.002,8.050782 1.615231,0 3.230449,0 4.84567,0 0,-1.896485 0,-3.792969 0,-5.689454 1.17904,0 2.35808,0 3.53711,0 0,-1.502604 0,-3.005208 0,-4.507812 -1.17708,0 -2.35416,0 -3.53125,0 0.0182,-0.359463 0.0861,-1.106127 0.51954,-1.109375 0.61514,0.341855 0.97206,1.319041 1.82421,1.023437 0.71052,-0.334995 1.28216,-0.902991 1.95508,-1.30664 0,3.863281 0,7.726562 0,11.589844 1.61393,-10e-7 3.22787,0 4.8418,0 0,-3.929688 0,-7.859376 0,-11.789063 0.63338,1.183114 0.25691,2.571802 0.37225,3.850733 0.005,2.646755 5.5e-4,5.293523 8e-4,7.940283 1.94657,-0.07305 3.9226,0.144024 5.85023,-0.12291 1.57982,-0.561953 2.78255,-1.826604 3.80992,-3.1017 0,1.074219 0,2.148438 0,3.222657 4.72917,0 9.45834,-10e-7 14.1875,0 0,-0.983073 0,-1.966146 0,-2.949219 0.82933,-0.329363 0.58703,0.519823 0.60938,1.058984 0,0.630078 0,1.260156 0,1.890235 1.61523,0 3.23047,0 4.8457,0 -0.0569,-3.783239 0.11182,-7.574804 -0.10486,-11.352457 -0.0666,-0.452146 -0.23374,-0.887316 -0.46155,-1.282309 0.7008,0.862093 0.88844,1.974077 0.80255,3.05387 0.0338,3.193503 0.0104,6.387273 0.0158,9.580896 1.61459,-10e-7 3.22917,0 4.84375,0 0,-2.102214 0,-4.204428 0,-6.306641 0.82907,-0.329719 0.58393,0.521606 0.60743,1.058984 0,1.749219 -1e-5,3.498438 0,5.247657 1.61458,-10e-7 3.22916,-10e-7 4.84374,0 0,-5.315105 1e-5,-10.630209 0,-15.945313 -1.61458,0 -3.22916,0 -4.84374,0 0,1.707682 -1e-5,3.415365 0,5.123047 -0.74787,0.296496 -0.60844,-0.369673 -0.64755,-0.88945 -0.10142,-1.732263 -0.77698,-3.649039 -2.35441,-4.536331 -0.72593,-0.101016 -1.20373,0.668349 -1.8096,0.957179 -0.75627,0.527807 -1.5105,1.058542 -2.26852,1.583836 -1.09927,-1.037261 -2.23003,-2.399755 -3.85547,-2.476562 -1.75676,0.269934 -2.95571,1.743273 -4.1107,2.955059 -0.45714,0.884546 -0.29792,-0.04982 -0.31899,-0.554669 0,-0.720703 0,-1.441406 0,-2.162109 -3.24805,0 -6.49609,0 -9.74414,0 0,1.207682 0,2.415365 0,3.623047 -0.88895,-1.53642 -2.28592,-2.749051 -3.78723,-3.660486 -0.85802,-0.3663 -1.86457,-0.128932 -2.60925,0.385095 -0.2562,-0.288763 -0.57668,-0.721739 -1,-0.695312 z m -35.359352,0.02344 c -0.79529,0.269236 -1.41145,0.956744 -2.141087,1.379792 -0.566879,0.396224 -1.133398,0.792964 -1.70071,1.188568 0.880015,1.044715 1.795681,2.278839 1.622779,3.725776 0.02382,3.325079 0.0098,6.650264 0.01199,9.975396 1.614584,0 3.229167,-10e-7 4.84375,0 0,-2.102214 0,-4.204428 0,-6.306641 0.829333,-0.329362 0.587033,0.519823 0.609375,1.058984 0,1.749219 0,3.498438 0,5.247657 3.181641,-10e-7 6.363282,0 9.544922,0 0,-0.983073 0,-1.966146 0,-2.949219 0.829333,-0.329363 0.587033,0.519823 0.609375,1.058984 0,0.630078 0,1.260156 0,1.890235 1.615235,0 3.230469,0 4.845698,0 -0.0569,-3.783239 0.11182,-7.574804 -0.10485,-11.352457 -0.327003,-1.841691 -1.93957,-3.057465 -3.305634,-4.163238 -0.847496,-0.686381 -2.055142,-0.874368 -3.007479,-0.288993 -1.225912,0.700247 -2.227594,1.751825 -3.115235,2.833984 -0.286851,0.433535 -0.510818,0.912718 -0.623047,1.421875 0,-1.465494 0,-2.930989 0,-4.396484 -1.614583,0 -3.229166,0 -4.84375,0 0,1.707682 0,3.415365 0,5.123047 -0.746651,0.29541 -0.612645,-0.366106 -0.64813,-0.887589 -0.103068,-1.732941 -0.777767,-3.65038 -2.355776,-4.538192 -0.08061,-0.0112 -0.159495,-0.05692 -0.242187,-0.02148 z m 52.066382,4.492188 c -0.3266,1.446334 -0.13374,2.954788 -0.20556,4.428125 -4.1e-4,0.954298 -0.004,1.908602 0.002,2.86289 -1.18945,0 -2.3789,0 -3.56836,0 1.26953,-2.466145 2.53906,-4.932291 3.8086,-7.398437 l -0.0327,0.09452 z m -8.78125,0.320312 c 1.14062,0 2.28125,0 3.42187,0 -1.25398,2.443562 -2.52298,4.92711 -3.76758,7.345703 0.39134,-1.687192 0.12448,-3.441508 0.21699,-5.157382 0.0131,-0.731829 -0.0188,-1.466169 -0.14277,-2.188321 0.0905,0 0.18099,0 0.27149,0 z m -5.41211,0.263672 c 0.74603,0.81179 0.31618,2.003414 0.4374,2.993335 -0.009,1.103457 0.0924,2.248395 -0.16201,3.321118 -0.36451,0.655894 -0.62266,0.265662 -0.42774,-0.316406 -0.0366,-1.997508 -0.009,-4.00029 -0.0176,-6 0.0495,0.03194 0.13005,-0.07266 0.16992,0.002 z m 19.15234,0.158203 c 0.52609,0.904328 0.18948,2.011484 0.29102,3.007031 0.35226,0.57245 -0.69591,0.898042 -0.5965,0.310941 0.035,-1.073378 -0.18028,-2.221904 0.21954,-3.237894 0.0317,0.127731 0.0553,-0.158074 0.0859,-0.08008 z m -43.912081,0.0039 c 0.518891,0.905912 0.186707,2.0095 0.287109,3.003124 0.352055,0.571327 -0.693621,0.897803 -0.596493,0.312894 0.03603,-1.07048 -0.181167,-2.216994 0.215634,-3.230081 0.03881,0.08783 0.05548,-0.165432 0.09375,-0.08594 z" />
      </g>
      <path
         id="path6354"
         style="font-size:28.9752px;line-height:1.25;font-family:'Germania One';-inkscape-font-specification:'Germania One';fill:#082819;fill-opacity:1;stroke-width:0.271642"
         d="m 126.30705,39.218593 c -2.74424,0.332777 -4.76237,2.458179 -6.60468,4.320457 -1.23762,1.351388 -1.81242,3.215632 -1.66021,5.030564 -0.0764,2.603327 0.01,5.207561 0.0305,7.811088 -1.36228,0.03436 -2.72427,0.07759 -4.08594,0.13086 -0.28649,-5.601561 -0.57276,-11.203133 -0.85938,-16.804688 -2.84107,0.173757 -5.68217,0.347049 -8.52343,0.517578 0.082,1.178992 0.16269,2.358078 0.24414,3.53711 -1.5704,-1.409202 -3.37012,-2.708007 -5.443364,-3.226563 -1.895277,-0.333426 -3.632337,0.812465 -4.883507,2.122732 -1.12052,1.111113 -2.16947,2.326117 -2.9368,3.711253 -0.22175,-1.570549 -0.43048,-3.142945 -0.642583,-4.714844 -2.804715,0.404105 -5.609413,0.808328 -8.414063,1.212891 0.353858,2.331201 0.703137,4.663046 1.070313,6.992187 -0.636006,-2.786929 -2.209809,-5.670405 -5.023438,-6.722656 -0.56578,-0.409255 -0.975929,-0.08035 -1.35545,0.39326 -0.461304,0.395389 -0.945137,0.995142 -1.392597,1.264943 -0.481958,-0.691678 -1.386807,-0.637036 -2.08606,-0.380969 -3.980734,0.758005 -7.945552,1.597232 -11.90808,2.447375 -0.954673,-0.486728 -1.943505,0.240008 -2.910361,0.324247 -2.03183,0.476501 -4.058475,0.969086 -6.087686,1.457003 -1.520846,1.680265 -3.044552,3.357946 -4.564453,5.039063 -1.944537,-1.170308 -4.142643,-2.397847 -6.494141,-2.097657 -1.144276,0.249832 -2.105747,0.992141 -2.910156,1.8125 -0.71028,-0.3807 -1.492704,-0.593017 -2.251953,-0.851562 -1.734934,2.098605 -3.470063,4.197067 -5.201172,6.298828 1.522206,1.074723 3.591143,1.974307 4.024985,3.985562 1.564983,5.014342 2.953406,10.082177 4.441812,15.119907 2.639237,-0.74735 5.277386,-1.49855 7.916015,-2.248047 -0.525423,-1.939611 -1.145898,-3.93114 -1.613281,-5.837891 1.518313,-0.452751 2.748423,-1.552327 3.54858,-2.897086 0.515422,-0.691365 0.984531,-1.41885 1.381108,-2.184945 0.805779,3.123752 1.613297,6.247057 2.417969,9.371094 4.868339,-1.248 9.748981,-2.446402 14.648437,-3.566406 -0.573125,-2.518182 -1.147723,-5.036031 -1.71875,-7.554688 -2.277461,0.531343 -4.554359,1.064439 -6.828125,1.611328 -0.156388,-0.592534 -0.521355,-1.312307 0.417156,-1.236925 1.480046,-0.354145 2.9605,-0.70659 4.440266,-1.061903 -0.584846,-2.513275 -1.171329,-5.02617 -1.757813,-7.539062 -1.736604,0.413556 -3.472617,0.829592 -5.208984,1.24414 -0.488494,-0.658438 0.340892,-0.595326 0.794922,-0.726562 1.197329,-0.271431 2.392739,-0.612134 3.597656,-0.8125 0.913496,0.325911 1.79777,-0.297333 2.708005,-0.324396 0.68382,-0.43672 0.6857,0.248161 0.786181,0.800352 1.102068,5.157131 2.205201,10.314035 3.306595,15.471309 2.671238,-0.556575 5.342435,-1.113347 8.013672,-1.669922 -1.104361,-5.484335 -2.208301,-10.968756 -3.3125,-16.453125 0.652344,-0.126302 1.304688,-0.252604 1.957032,-0.378906 0.807044,2.506332 0.935319,5.166435 1.582454,7.71237 0.327837,1.589589 0.931773,3.191864 2.205686,4.265813 1.411359,1.269013 3.063304,2.262986 4.756059,3.105379 1.526708,0.66555 3.457154,0.50798 4.663728,-0.715876 1.544439,-1.273652 2.698885,-2.946414 3.756915,-4.625498 0.20406,1.164795 0.16434,2.396687 0.5,3.521484 0.5526,1.011975 1.83813,0.708397 2.75751,0.552712 10.239361,-1.300493 20.526401,-1.865125 30.848271,-1.683349 4.44806,0.147521 8.8909,0.402644 13.32016,0.842898 2.80277,0.276426 5.59042,0.693128 8.38461,1.045551 0.15989,-1.149216 0.32171,-2.298163 0.48242,-3.447265 1.11028,1.694307 2.31384,3.494532 4.13906,4.480617 0.86255,0.460271 1.90984,0.412733 2.78477,0.01352 0.87221,0.806632 2.20953,0.661639 3.28892,1.030012 1.65955,0.334079 3.20159,0.802311 4.86126,1.208128 3.65417,0.918049 7.26532,2.128951 10.80685,3.336078 0.83368,0.454204 1.80782,0.615502 2.67721,1.01775 3.48803,1.269866 6.83989,2.867838 10.21537,4.404125 2.55553,-5.587227 5.26765,-11.106624 7.70117,-16.746093 0.59928,-2.261113 -0.82777,-4.324004 -1.8063,-6.239805 -0.81203,-1.651231 -2.42136,-3.234231 -4.40337,-3.017546 -0.47865,0.0071 -0.95628,0.06761 -1.4251,0.161647 -0.37095,-0.813141 -0.94574,-1.506306 -1.49218,-2.205078 -2.38619,0.515159 -4.76739,1.046534 -7.14453,1.601563 -1.06203,-1.899365 -2.24303,-3.970475 -4.25977,-4.984375 -1.77452,-0.788506 -3.76668,-0.05498 -5.44486,0.650081 -1.45777,0.70949 -2.9634,1.447225 -4.10592,2.627263 -0.84278,-3.135863 -3.11084,-5.978 -6.16063,-7.185599 -2.18634,-0.621712 -4.35147,0.59262 -6.13218,1.742086 -0.84096,0.53489 -1.68205,1.086493 -2.39079,1.793122 -0.86139,-1.912011 -2.53928,-3.268829 -3.99218,-4.716797 -1.27587,-1.100151 -3.17616,-1.530524 -4.71289,-0.712891 -0.41848,0.159476 -0.83924,0.575175 -1.11603,0.02069 -0.51643,-0.512766 -1.1188,-0.926408 -1.70429,-1.354672 -2.1332,1.156206 -4.26155,2.319046 -6.3789,3.503906 -1.63413,-1.720209 -3.60695,-3.662059 -6.12891,-3.738281 z m 30.53906,12.302734 c 0.1855,0.479182 0.32939,0.974644 0.41993,1.480469 -0.83094,0.0526 -0.81012,-0.453176 -0.59019,-1.102155 0.0408,-0.08307 0.0962,-0.644049 0.17026,-0.378314 z m 6.2793,2.744141 c -0.72066,0.06156 0.28342,-0.438953 0,0 z M 43.322675,59.743984 c 0.490127,0.55635 0.579963,1.297503 0.671875,2.001953 -0.177552,0.460559 -0.330418,-0.941886 -0.49484,-1.219116 -0.01459,-0.191287 -0.307454,-0.785029 -0.177035,-0.782837 z" />
      <g
         aria-label="PETUALANGAN"
         id="text97895"
         style="font-size:28.9752px;line-height:1.25;font-family:Riffic;-inkscape-font-specification:Riffic;fill:url(#linearGradient6798);fill-opacity:1;stroke-width:0.271642"
         transform="translate(2.4605959,5.2916669)">
        <path
           d="m 41.914888,58.840704 c 0.190385,-0.0531 0.380807,-0.106096 0.571265,-0.158975 0.361911,-0.100482 0.734372,-0.384056 1.119198,-0.850801 0.398777,-0.490625 0.609964,-0.959083 0.632057,-1.406102 0.02209,-0.446919 -0.06055,-1.015877 -0.248415,-1.706237 -0.187913,-0.690531 -0.410024,-1.241198 -0.667104,-1.652243 -0.262099,-0.429594 -0.690043,-0.743824 -1.284465,-0.941243 -0.575062,-0.20272 -1.095052,-0.239225 -1.558455,-0.110108 -0.443941,0.123694 -0.98503,0.536039 -1.618529,1.237413 0.230903,0.597688 0.435341,1.212888 0.613634,1.845543 l 3.822767,13.564646 c -1.287574,0.361326 -2.574389,0.727731 -3.860398,1.098807 l -3.457348,-11.91312 c -0.452484,-1.559144 -0.884481,-2.619863 -1.298279,-3.183872 -0.399607,-0.587569 -1.079188,-1.204767 -2.040595,-1.847329 0.921915,-1.128044 1.850655,-2.254462 2.78675,-3.378921 0.599631,0.189324 1.201604,0.610062 1.804801,1.262312 1.2742,-1.548646 2.263482,-2.416282 2.943897,-2.604951 0.680838,-0.188786 1.771752,0.07207 3.26037,0.791345 1.488079,0.719016 2.537678,1.383136 3.151283,1.980405 0.282755,0.205675 0.627733,1.084366 1.036577,2.637191 0.408671,1.552166 0.561616,2.562821 0.459794,3.029402 -0.233728,0.822763 -0.803129,1.91215 -1.699491,3.276321 -0.895995,1.363614 -1.667417,2.136843 -2.329856,2.31968 -0.378174,0.104378 -0.756235,0.20921 -1.134182,0.314486 -0.335092,-1.201216 -0.670184,-2.402433 -1.005276,-3.603649 z"
           style="font-family:'Germania One';-inkscape-font-specification:'Germania One';fill:url(#linearGradient13818);fill-opacity:1"
           id="path5785"
           inkscape:original-d="m 41.914888,58.840704 c 0.190385,-0.0531 0.380807,-0.106096 0.571265,-0.158975 0.361911,-0.100482 0.734372,-0.384056 1.119198,-0.850801 0.398777,-0.490625 0.609964,-0.959083 0.632057,-1.406102 0.02209,-0.446919 -0.06055,-1.015877 -0.248415,-1.706237 -0.187913,-0.690531 -0.410024,-1.241198 -0.667104,-1.652243 -0.262099,-0.429594 -0.690043,-0.743824 -1.284465,-0.941243 -0.575062,-0.20272 -1.095052,-0.239225 -1.558455,-0.110108 -0.443941,0.123694 -0.98503,0.536039 -1.618529,1.237413 0.230903,0.597688 0.435341,1.212888 0.613634,1.845543 l 3.822767,13.564646 c -1.287574,0.361326 -2.574389,0.727731 -3.860398,1.098807 l -3.457348,-11.91312 c -0.452484,-1.559144 -0.884481,-2.619863 -1.298279,-3.183872 -0.399607,-0.587569 -1.079188,-1.204767 -2.040595,-1.847329 0.921915,-1.128044 1.850655,-2.254462 2.78675,-3.378921 0.599631,0.189324 1.201604,0.610062 1.804801,1.262312 1.2742,-1.548646 2.263482,-2.416282 2.943897,-2.604951 0.680838,-0.188786 1.771752,0.07207 3.26037,0.791345 1.488079,0.719016 2.537678,1.383136 3.151283,1.980405 0.282755,0.205675 0.627733,1.084366 1.036577,2.637191 0.408671,1.552166 0.561616,2.562821 0.459794,3.029402 -0.233728,0.822763 -0.803129,1.91215 -1.699491,3.276321 -0.895995,1.363614 -1.667417,2.136843 -2.329856,2.31968 -0.378174,0.104378 -0.756235,0.20921 -1.134182,0.314486 -0.335092,-1.201216 -0.670184,-2.402433 -1.005276,-3.603649 z" />
        <path
           d="m 54.068801,53.02545 c 1.728394,-0.427778 3.459865,-0.844327 5.194309,-1.248754 l 0.79748,3.418608 c -1.718478,0.400986 -3.434572,0.814027 -5.148181,1.238231 l 1.282841,5.182542 c 2.257983,-0.559136 4.518797,-1.098555 6.782199,-1.616133 l 0.781227,3.422045 c -3.535843,0.80928 -7.067866,1.672608 -10.595114,2.581638 l -4.463461,-17.30754 c 1.11373,-1.246282 2.238374,-2.488487 3.374718,-3.726109 2.196789,-0.543458 4.400517,-1.06924 6.610987,-1.575619 l 0.792092,3.449406 c -1.826678,0.418791 -3.649309,0.851007 -5.467778,1.295647 -0.301977,0.332713 -0.603122,0.66576 -0.90345,0.999132 0.32071,1.295635 0.641421,2.591271 0.962131,3.886906 z"
           style="font-family:'Germania One';-inkscape-font-specification:'Germania One';fill:url(#linearGradient13820);fill-opacity:1"
           id="path5787"
           inkscape:original-d="m 54.068801,53.02545 c 1.728394,-0.427778 3.459865,-0.844327 5.194309,-1.248754 l 0.79748,3.418608 c -1.718478,0.400986 -3.434572,0.814027 -5.148181,1.238231 l 1.282841,5.182542 c 2.257983,-0.559136 4.518797,-1.098555 6.782199,-1.616133 l 0.781227,3.422045 c -3.535843,0.80928 -7.067866,1.672608 -10.595114,2.581638 l -4.463461,-17.30754 c 1.11373,-1.246282 2.238374,-2.488487 3.374718,-3.726109 2.196789,-0.543458 4.400517,-1.06924 6.610987,-1.575619 l 0.792092,3.449406 c -1.826678,0.418791 -3.649309,0.851007 -5.467778,1.295647 -0.301977,0.332713 -0.603122,0.66576 -0.90345,0.999132 0.32071,1.295635 0.641421,2.591271 0.962131,3.886906 z" />
        <path
           d="m 72.243,40.916122 0.646099,3.417121 c -1.288804,0.242897 -2.575792,0.493536 -3.860926,0.751576 l 3.319176,16.483548 c -1.296321,0.262224 -2.592234,0.532595 -3.887691,0.810703 L 64.941834,45.931184 c -1.281152,0.273365 -2.560407,0.553767 -3.837727,0.840864 L 60.339474,43.376206 C 64.286655,42.489823 68.254871,41.666522 72.243,40.916122 Z"
           style="font-family:'Germania One';-inkscape-font-specification:'Germania One';fill:url(#linearGradient13822);fill-opacity:1"
           id="path5789"
           inkscape:original-d="m 72.243,40.916122 0.646099,3.417121 c -1.288804,0.242897 -2.575792,0.493536 -3.860926,0.751576 l 3.319176,16.483548 c -1.296321,0.262224 -2.592234,0.532595 -3.887691,0.810703 L 64.941834,45.931184 c -1.281152,0.273365 -2.560407,0.553767 -3.837727,0.840864 L 60.339474,43.376206 C 64.286655,42.489823 68.254871,41.666522 72.243,40.916122 Z" />
        <path
           d="m 87.24396,38.469279 1.615802,11.727594 c 0.276399,2.00612 0.342774,3.274958 0.201413,3.800137 -0.217335,0.831208 -0.924362,1.967809 -2.101164,3.43291 -1.159855,1.442117 -2.06184,2.220647 -2.740002,2.329824 -0.677937,0.109141 -1.788079,-0.345365 -3.361763,-1.348638 -1.559741,-1.026692 -2.57844,-1.88785 -3.044786,-2.610815 -0.298481,-0.455485 -0.630182,-1.682971 -0.991409,-3.67782 L 76.073464,47.98845 c -0.278902,-1.540218 -0.592718,-2.601039 -0.945044,-3.185621 -0.331881,-0.587085 -0.943923,-1.242506 -1.840496,-1.959526 1.046274,-1.020185 2.103213,-2.035131 3.171338,-3.044506 0.71447,0.287381 1.402105,0.973082 2.059195,2.056851 0.654193,1.065265 1.110579,2.397609 1.378129,3.9979 l 0.93133,5.570551 c 0.261,1.561117 0.49921,2.511005 0.712499,2.846782 0.210516,0.317347 0.530549,0.645558 0.959105,0.986179 0.444468,0.318369 0.799073,0.456569 1.06609,0.413685 0.267075,-0.04289 0.551123,-0.283658 0.854622,-0.72215 0.319668,-0.460622 0.530676,-0.873873 0.631537,-1.241043 0.09774,-0.385515 0.02773,-1.362088 -0.211189,-2.926138 l -1.788161,-11.70614 c 1.394924,-0.211961 2.79212,-0.414096 4.191541,-0.605995 z"
           style="font-family:'Germania One';-inkscape-font-specification:'Germania One';fill:url(#linearGradient13824);fill-opacity:1"
           id="path5791"
           inkscape:original-d="m 87.24396,38.469279 1.615802,11.727594 c 0.276399,2.00612 0.342774,3.274958 0.201413,3.800137 -0.217335,0.831208 -0.924362,1.967809 -2.101164,3.43291 -1.159855,1.442117 -2.06184,2.220647 -2.740002,2.329824 -0.677937,0.109141 -1.788079,-0.345365 -3.361763,-1.348638 -1.559741,-1.026692 -2.57844,-1.88785 -3.044786,-2.610815 -0.298481,-0.455485 -0.630182,-1.682971 -0.991409,-3.67782 L 76.073464,47.98845 c -0.278902,-1.540218 -0.592718,-2.601039 -0.945044,-3.185621 -0.331881,-0.587085 -0.943923,-1.242506 -1.840496,-1.959526 1.046274,-1.020185 2.103213,-2.035131 3.171338,-3.044506 0.71447,0.287381 1.402105,0.973082 2.059195,2.056851 0.654193,1.065265 1.110579,2.397609 1.378129,3.9979 l 0.93133,5.570551 c 0.261,1.561117 0.49921,2.511005 0.712499,2.846782 0.210516,0.317347 0.530549,0.645558 0.959105,0.986179 0.444468,0.318369 0.799073,0.456569 1.06609,0.413685 0.267075,-0.04289 0.551123,-0.283658 0.854622,-0.72215 0.319668,-0.460622 0.530676,-0.873873 0.631537,-1.241043 0.09774,-0.385515 0.02773,-1.362088 -0.211189,-2.926138 l -1.788161,-11.70614 c 1.394924,-0.211961 2.79212,-0.414096 4.191541,-0.605995 z" />
        <path
           d="m 93.487231,39.227728 c 1.29439,-1.410667 2.338316,-2.150745 3.093423,-2.228088 0.754873,-0.07732 1.928391,0.435587 3.484246,1.554647 1.55471,1.118235 2.52604,2.081396 2.9306,2.860104 0.26579,0.541452 0.47237,1.790517 0.62396,3.753613 l 0.91122,11.80034 c -1.29987,0.0997 -2.59972,0.21092 -3.8995,0.333262 l -0.40712,-4.320998 c -1.323657,0.124644 -2.646811,0.260456 -3.969415,0.407028 l 0.477443,4.313943 c -1.299598,0.14417 -2.59908,0.299049 -3.898401,0.464229 L 91.347228,46.423175 c -0.24727,-1.953366 -0.296903,-3.218763 -0.146307,-3.80254 0.238329,-0.843955 0.993253,-1.983692 2.28631,-3.392907 z m 1.943029,6.711168 0.44243,3.997586 c 1.341009,-0.148493 2.682916,-0.286186 4.025674,-0.412672 l -0.377265,-4.004123 c -0.148431,-1.575384 -0.31821,-2.526899 -0.511536,-2.857917 -0.194761,-0.349534 -0.511292,-0.697283 -0.950873,-1.04158 -0.421424,-0.365504 -0.774335,-0.533396 -1.056084,-0.504527 -0.281749,0.02887 -0.603287,0.265858 -0.961674,0.711385 -0.340326,0.42416 -0.569611,0.827752 -0.689357,1.209505 -0.122092,0.363306 -0.09538,1.329556 0.07869,2.902343 z"
           style="font-family:'Germania One';-inkscape-font-specification:'Germania One';fill:url(#linearGradient13826);fill-opacity:1"
           id="path5793"
           inkscape:original-d="m 93.487231,39.227728 c 1.29439,-1.410667 2.338316,-2.150745 3.093423,-2.228088 0.754873,-0.07732 1.928391,0.435587 3.484246,1.554647 1.55471,1.118235 2.52604,2.081396 2.9306,2.860104 0.26579,0.541452 0.47237,1.790517 0.62396,3.753613 l 0.91122,11.80034 c -1.29987,0.0997 -2.59972,0.21092 -3.8995,0.333262 l -0.40712,-4.320998 c -1.323657,0.124644 -2.646811,0.260456 -3.969415,0.407028 l 0.477443,4.313943 c -1.299598,0.14417 -2.59908,0.299049 -3.898401,0.464229 L 91.347228,46.423175 c -0.24727,-1.953366 -0.296903,-3.218763 -0.146307,-3.80254 0.238329,-0.843955 0.993253,-1.983692 2.28631,-3.392907 z m 1.943029,6.711168 0.44243,3.997586 c 1.341009,-0.148493 2.682916,-0.286186 4.025674,-0.412672 l -0.377265,-4.004123 c -0.148431,-1.575384 -0.31821,-2.526899 -0.511536,-2.857917 -0.194761,-0.349534 -0.511292,-0.697283 -0.950873,-1.04158 -0.421424,-0.365504 -0.774335,-0.533396 -1.056084,-0.504527 -0.281749,0.02887 -0.603287,0.265858 -0.961674,0.711385 -0.340326,0.42416 -0.569611,0.827752 -0.689357,1.209505 -0.122092,0.363306 -0.09538,1.329556 0.07869,2.902343 z" />
        <path
           d="m 116.60292,52.907854 0.0691,3.477541 c -0.53742,0.0096 -1.0748,0.02145 -1.61211,0.03557 -2.89714,0.07681 -5.79481,0.216394 -8.69248,0.414223 l -1.39502,-20.21055 c 1.41727,-0.0988 2.83657,-0.185654 4.25785,-0.260142 l 0.85902,16.770309 c 1.62333,-0.08179 3.24711,-0.145191 4.87126,-0.189444 0.54735,-0.01483 1.09481,-0.02734 1.64234,-0.0375 z"
           style="font-family:'Germania One';-inkscape-font-specification:'Germania One';fill:url(#linearGradient13828);fill-opacity:1"
           id="path5795"
           inkscape:original-d="m 116.60292,52.907854 0.0691,3.477541 c -0.53742,0.0096 -1.0748,0.02145 -1.61211,0.03557 -2.89714,0.07681 -5.79481,0.216394 -8.69248,0.414223 l -1.39502,-20.21055 c 1.41727,-0.0988 2.83657,-0.185654 4.25785,-0.260142 l 0.85902,16.770309 c 1.62333,-0.08179 3.24711,-0.145191 4.87126,-0.189444 0.54735,-0.01483 1.09481,-0.02734 1.64234,-0.0375 z" />
        <path
           d="m 121.22547,37.591482 c 1.47335,-1.251691 2.61764,-1.860786 3.39029,-1.844828 0.77043,0.01591 1.89095,0.672015 3.31113,1.984343 1.41859,1.310858 2.26568,2.398412 2.56789,3.224954 0.19497,0.573682 0.23664,1.842127 0.12939,3.814207 l -0.64459,11.852396 c -1.28837,-0.07008 -2.57819,-0.12618 -3.86897,-0.168535 l 0.14048,-4.350566 c -1.32249,-0.04309 -2.64567,-0.07193 -3.96908,-0.08678 l -0.0461,4.351249 c -1.29223,-0.01512 -2.58495,-0.01676 -3.87767,-0.0052 l -0.12705,-11.857988 c -0.0211,-1.972909 0.0756,-3.237382 0.29483,-3.801635 0.33703,-0.811973 1.22851,-1.86199 2.6995,-3.111664 z m 1.13621,6.912037 -0.0428,4.032156 c 1.34836,0.01463 2.6967,0.04365 4.04455,0.08733 l 0.13018,-4.031522 c 0.0512,-1.586359 0.002,-2.554121 -0.14954,-2.908021 -0.15069,-0.37227 -0.42374,-0.758163 -0.82111,-1.155571 -0.37652,-0.416263 -0.70975,-0.627013 -0.99601,-0.633007 -0.28626,-0.006 -0.63841,0.190403 -1.05257,0.590181 -0.39341,0.380699 -0.67243,0.754759 -0.83883,1.120244 -0.16661,0.347075 -0.25708,1.311635 -0.27391,2.898214 z"
           style="font-family:'Germania One';-inkscape-font-specification:'Germania One';fill:url(#linearGradient13830);fill-opacity:1"
           id="path5797"
           inkscape:original-d="m 121.22547,37.591482 c 1.47335,-1.251691 2.61764,-1.860786 3.39029,-1.844828 0.77043,0.01591 1.89095,0.672015 3.31113,1.984343 1.41859,1.310858 2.26568,2.398412 2.56789,3.224954 0.19497,0.573682 0.23664,1.842127 0.12939,3.814207 l -0.64459,11.852396 c -1.28837,-0.07008 -2.57819,-0.12618 -3.86897,-0.168535 l 0.14048,-4.350566 c -1.32249,-0.04309 -2.64567,-0.07193 -3.96908,-0.08678 l -0.0461,4.351249 c -1.29223,-0.01512 -2.58495,-0.01676 -3.87767,-0.0052 l -0.12705,-11.857988 c -0.0211,-1.972909 0.0756,-3.237382 0.29483,-3.801635 0.33703,-0.811973 1.22851,-1.86199 2.6995,-3.111664 z m 1.13621,6.912037 -0.0428,4.032156 c 1.34836,0.01463 2.6967,0.04365 4.04455,0.08733 l 0.13018,-4.031522 c 0.0512,-1.586359 0.002,-2.554121 -0.14954,-2.908021 -0.15069,-0.37227 -0.42374,-0.758163 -0.82111,-1.155571 -0.37652,-0.416263 -0.70975,-0.627013 -0.99601,-0.633007 -0.28626,-0.006 -0.63841,0.190403 -1.05257,0.590181 -0.39341,0.380699 -0.67243,0.754759 -0.83883,1.120244 -0.16661,0.347075 -0.25708,1.311635 -0.27391,2.898214 z" />
        <path
           d="m 138.63828,41.88439 c -0.0299,0.414916 -0.0599,0.829824 -0.09,1.244726 l -1.36084,14.03485 c -1.28132,-0.123267 -2.56498,-0.232078 -3.85048,-0.326681 l 0.91623,-12.386724 c 0.11997,-1.621899 0.0836,-2.766807 -0.11381,-3.44184 -0.17643,-0.671196 -0.6107,-1.49981 -1.31375,-2.474848 1.28938,-0.731411 2.59416,-1.449494 3.91437,-2.153443 0.57466,0.41745 1.08164,1.093977 1.51568,2.028287 1.74656,-1.098582 2.94129,-1.599019 3.52072,-1.534165 0.58149,0.06508 1.44666,0.680017 2.55593,1.853586 1.12918,1.153813 1.80977,1.979895 2.05403,2.439455 0.24943,0.445117 0.3247,1.002387 0.22945,1.672266 l -2.15889,15.18423 c -1.27996,-0.180358 -2.5632,-0.345568 -3.84924,-0.495886 l 1.72893,-14.661944 c 0.0204,-0.172765 -0.0354,-0.39371 -0.1681,-0.662303 -0.11027,-0.28535 -0.30902,-0.610493 -0.5977,-0.973914 -0.26839,-0.361211 -0.54671,-0.557355 -0.83246,-0.588266 -0.26521,-0.02869 -0.61891,0.08924 -1.05768,0.355331 -0.43683,0.246875 -0.78405,0.543173 -1.0424,0.887285 0,0 -1e-5,-10e-7 -2e-5,-2e-6 z"
           style="font-family:'Germania One';-inkscape-font-specification:'Germania One';fill:url(#linearGradient13832);fill-opacity:1"
           id="path5799"
           inkscape:original-d="m 138.63828,41.88439 c -0.0299,0.414916 -0.0599,0.829824 -0.09,1.244726 l -1.36084,14.03485 c -1.28132,-0.123267 -2.56498,-0.232078 -3.85048,-0.326681 l 0.91623,-12.386724 c 0.11997,-1.621899 0.0836,-2.766807 -0.11381,-3.44184 -0.17643,-0.671196 -0.6107,-1.49981 -1.31375,-2.474848 1.28938,-0.731411 2.59416,-1.449494 3.91437,-2.153443 0.57466,0.41745 1.08164,1.093977 1.51568,2.028287 1.74656,-1.098582 2.94129,-1.599019 3.52072,-1.534165 0.58149,0.06508 1.44666,0.680017 2.55593,1.853586 1.12918,1.153813 1.80977,1.979895 2.05403,2.439455 0.24943,0.445117 0.3247,1.002387 0.22945,1.672266 l -2.15889,15.18423 c -1.27996,-0.180358 -2.5632,-0.345568 -3.84924,-0.495886 l 1.72893,-14.661944 c 0.0204,-0.172765 -0.0354,-0.39371 -0.1681,-0.662303 -0.11027,-0.28535 -0.30902,-0.610493 -0.5977,-0.973914 -0.26839,-0.361211 -0.54671,-0.557355 -0.83246,-0.588266 -0.26521,-0.02869 -0.61891,0.08924 -1.05768,0.355331 -0.43683,0.246875 -0.78405,0.543173 -1.0424,0.887285 0,0 -1e-5,-10e-7 -2e-5,-2e-6 z" />
        <path
           d="m 152.36097,47.643202 -0.54598,3.021837 c -0.28139,1.557443 -0.37858,2.532965 -0.29346,2.920288 0.0889,0.369615 0.27539,0.786005 0.55692,1.251094 0.30372,0.449458 0.59327,0.701153 0.87291,0.75507 0.27982,0.05395 0.67189,-0.07617 1.18146,-0.387691 0.50974,-0.311622 0.8833,-0.608754 1.11904,-0.895423 0.17909,-0.297879 0.34362,-0.756979 0.4924,-1.376415 -0.65381,-0.135891 -1.30864,-0.267683 -1.96442,-0.395409 l 0.6159,-3.15508 c 1.92905,0.37658 3.85057,0.787765 5.76314,1.234305 l -2.30943,9.891592 c -0.87284,-0.202603 -1.74811,-0.397392 -2.62565,-0.584452 0.0291,-0.664718 0.0568,-1.329651 0.083,-1.994793 -1.58609,1.243176 -2.65282,1.823102 -3.25203,1.708394 -0.60203,-0.115248 -1.4295,-0.909499 -2.54505,-2.376422 -1.09568,-1.485377 -1.76054,-2.627448 -1.95942,-3.464663 -0.12916,-0.52699 -0.0397,-1.797299 0.27184,-3.800441 l 0.47221,-3.035863 c 0.37159,-2.388999 0.80688,-3.881106 1.31926,-4.486562 0.50767,-0.599865 1.52022,-1.374495 3.0473,-2.280034 1.55061,-0.903753 2.67783,-1.278439 3.3357,-1.150736 1.13459,0.220242 2.31733,1.090877 3.49873,2.612271 1.18173,1.521831 1.77398,3.050345 1.81509,4.56507 -1.26644,0.465581 -2.52058,0.9463 -3.76243,1.441525 -0.0966,-1.086175 -0.40182,-2.137368 -0.92427,-3.149972 -0.52245,-1.012604 -0.93366,-1.545403 -1.21596,-1.600331 -0.50412,-0.09809 -1.16976,0.256648 -1.98132,1.069647 -0.32783,0.314296 -0.68069,1.533243 -1.06552,3.663194 z"
           style="font-family:'Germania One';-inkscape-font-specification:'Germania One';fill:url(#linearGradient13834);fill-opacity:1"
           id="path5801"
           inkscape:original-d="m 152.36097,47.643202 -0.54598,3.021837 c -0.28139,1.557443 -0.37858,2.532965 -0.29346,2.920288 0.0889,0.369615 0.27539,0.786005 0.55692,1.251094 0.30372,0.449458 0.59327,0.701153 0.87291,0.75507 0.27982,0.05395 0.67189,-0.07617 1.18146,-0.387691 0.50974,-0.311622 0.8833,-0.608754 1.11904,-0.895423 0.17909,-0.297879 0.34362,-0.756979 0.4924,-1.376415 -0.65381,-0.135891 -1.30864,-0.267683 -1.96442,-0.395409 l 0.6159,-3.15508 c 1.92905,0.37658 3.85057,0.787765 5.76314,1.234305 l -2.30943,9.891592 c -0.87284,-0.202603 -1.74811,-0.397392 -2.62565,-0.584452 0.0291,-0.664718 0.0568,-1.329651 0.083,-1.994793 -1.58609,1.243176 -2.65282,1.823102 -3.25203,1.708394 -0.60203,-0.115248 -1.4295,-0.909499 -2.54505,-2.376422 -1.09568,-1.485377 -1.76054,-2.627448 -1.95942,-3.464663 -0.12916,-0.52699 -0.0397,-1.797299 0.27184,-3.800441 l 0.47221,-3.035863 c 0.37159,-2.388999 0.80688,-3.881106 1.31926,-4.486562 0.50767,-0.599865 1.52022,-1.374495 3.0473,-2.280034 1.55061,-0.903753 2.67783,-1.278439 3.3357,-1.150736 1.13459,0.220242 2.31733,1.090877 3.49873,2.612271 1.18173,1.521831 1.77398,3.050345 1.81509,4.56507 -1.26644,0.465581 -2.52058,0.9463 -3.76243,1.441525 -0.0966,-1.086175 -0.40182,-2.137368 -0.92427,-3.149972 -0.52245,-1.012604 -0.93366,-1.545403 -1.21596,-1.600331 -0.50412,-0.09809 -1.16976,0.256648 -1.98132,1.069647 -0.32783,0.314296 -0.68069,1.533243 -1.06552,3.663194 z" />
        <path
           d="m 167.82615,43.722602 c 1.75431,-0.820758 3.03111,-1.102806 3.77684,-0.882992 0.74554,0.219763 1.66684,1.149725 2.69849,2.79137 1.03028,1.639443 1.55867,2.913545 1.62945,3.787683 0.0349,0.603579 -0.26491,1.831075 -0.89717,3.694515 l -3.79921,11.197395 c -1.19943,-0.407108 -2.40552,-0.797486 -3.61781,-1.171384 l 1.27996,-4.14366 c -1.24981,-0.385736 -2.50555,-0.754486 -3.76674,-1.1065 l -1.16816,4.177659 c -1.22419,-0.341188 -2.45409,-0.666146 -3.68923,-0.975123 l 2.88467,-11.475502 c 0.48003,-1.909618 0.89425,-3.10448 1.25062,-3.592853 0.533,-0.696243 1.66674,-1.481137 3.41829,-2.300608 z m -0.67917,6.953006 -1.0825,3.871295 c 1.29079,0.360675 2.57635,0.738492 3.85619,1.133699 l 1.18609,-3.83979 c 0.46677,-1.511092 0.67392,-2.453724 0.62028,-2.834269 -0.0478,-0.397697 -0.21059,-0.841043 -0.49128,-1.328247 -0.25559,-0.499836 -0.52363,-0.790574 -0.79952,-0.87183 -0.27588,-0.08125 -0.66842,0.01492 -1.17339,0.291033 -0.47991,0.263188 -0.84689,0.550457 -1.10241,0.85891 -0.25112,0.290852 -0.58747,1.195724 -1.01346,2.719199 z"
           style="font-family:'Germania One';-inkscape-font-specification:'Germania One';fill:url(#linearGradient13836);fill-opacity:1"
           id="path5803"
           inkscape:original-d="m 167.82615,43.722602 c 1.75431,-0.820758 3.03111,-1.102806 3.77684,-0.882992 0.74554,0.219763 1.66684,1.149725 2.69849,2.79137 1.03028,1.639443 1.55867,2.913545 1.62945,3.787683 0.0349,0.603579 -0.26491,1.831075 -0.89717,3.694515 l -3.79921,11.197395 c -1.19943,-0.407108 -2.40552,-0.797486 -3.61781,-1.171384 l 1.27996,-4.14366 c -1.24981,-0.385736 -2.50555,-0.754486 -3.76674,-1.1065 l -1.16816,4.177659 c -1.22419,-0.341188 -2.45409,-0.666146 -3.68923,-0.975123 l 2.88467,-11.475502 c 0.48003,-1.909618 0.89425,-3.10448 1.25062,-3.592853 0.533,-0.696243 1.66674,-1.481137 3.41829,-2.300608 z m -0.67917,6.953006 -1.0825,3.871295 c 1.29079,0.360675 2.57635,0.738492 3.85619,1.133699 l 1.18609,-3.83979 c 0.46677,-1.511092 0.67392,-2.453724 0.62028,-2.834269 -0.0478,-0.397697 -0.21059,-0.841043 -0.49128,-1.328247 -0.25559,-0.499836 -0.52363,-0.790574 -0.79952,-0.87183 -0.27588,-0.08125 -0.66842,0.01492 -1.17339,0.291033 -0.47991,0.263188 -0.84689,0.550457 -1.10241,0.85891 -0.25112,0.290852 -0.58747,1.195724 -1.01346,2.719199 z" />
        <path
           d="m 183.53687,52.549829 c -0.14422,0.388834 -0.28852,0.777639 -0.43291,1.166415 l -5.21518,13.054735 c -1.17283,-0.470536 -2.35323,-0.923875 -3.54071,-1.360267 l 4.26075,-11.618634 c 0.558,-1.521611 0.83517,-2.62816 0.8282,-3.329722 0.0123,-0.691554 -0.18209,-1.605621 -0.5998,-2.732945 1.44666,-0.348302 2.90761,-0.675798 4.38288,-0.98168 0.44354,0.560358 0.74925,1.350368 0.91113,2.366876 1.99555,-0.561874 3.29813,-0.699549 3.84166,-0.472478 0.54576,0.228 1.21429,1.064402 1.9549,2.50694 0.76518,1.42874 1.1853,2.41922 1.28861,2.928867 0.11271,0.498469 0.0242,1.053353 -0.2613,1.666376 l -6.47122,13.894335 c -1.1507,-0.540622 -2.30999,-1.063316 -3.47738,-1.568337 l 5.81851,-13.534684 c 0.0686,-0.159469 0.0775,-0.386795 0.0255,-0.681632 -0.0256,-0.304447 -0.12535,-0.67228 -0.30157,-1.102151 -0.15728,-0.422009 -0.37108,-0.688785 -0.6384,-0.799359 -0.2481,-0.102624 -0.62291,-0.0899 -1.12075,0.04109 -0.49064,0.113135 -0.90814,0.299277 -1.25291,0.556264 -1e-5,-3e-6 -1e-5,-6e-6 -2e-5,-8e-6 z"
           style="font-family:'Germania One';-inkscape-font-specification:'Germania One';fill:url(#linearGradient13838);fill-opacity:1"
           id="path5805"
           inkscape:original-d="m 183.53687,52.549829 c -0.14422,0.388834 -0.28852,0.777639 -0.43291,1.166415 l -5.21518,13.054735 c -1.17283,-0.470536 -2.35323,-0.923875 -3.54071,-1.360267 l 4.26075,-11.618634 c 0.558,-1.521611 0.83517,-2.62816 0.8282,-3.329722 0.0123,-0.691554 -0.18209,-1.605621 -0.5998,-2.732945 1.44666,-0.348302 2.90761,-0.675798 4.38288,-0.98168 0.44354,0.560358 0.74925,1.350368 0.91113,2.366876 1.99555,-0.561874 3.29813,-0.699549 3.84166,-0.472478 0.54576,0.228 1.21429,1.064402 1.9549,2.50694 0.76518,1.42874 1.1853,2.41922 1.28861,2.928867 0.11271,0.498469 0.0242,1.053353 -0.2613,1.666376 l -6.47122,13.894335 c -1.1507,-0.540622 -2.30999,-1.063316 -3.47738,-1.568337 l 5.81851,-13.534684 c 0.0686,-0.159469 0.0775,-0.386795 0.0255,-0.681632 -0.0256,-0.304447 -0.12535,-0.67228 -0.30157,-1.102151 -0.15728,-0.422009 -0.37108,-0.688785 -0.6384,-0.799359 -0.2481,-0.102624 -0.62291,-0.0899 -1.12075,0.04109 -0.49064,0.113135 -0.90814,0.299277 -1.25291,0.556264 -1e-5,-3e-6 -1e-5,-6e-6 -2e-5,-8e-6 z" />
      </g>
      <text
         xml:space="preserve"
         style="font-size:19.7556px;line-height:1.25;font-family:Riffic;-inkscape-font-specification:Riffic;fill:url(#linearGradient24520);fill-opacity:1;stroke-width:0.264583"
         x="76.831581"
         y="80.679443"
         id="text8728"><tspan
           sodipodi:role="line"
           id="tspan8726"
           style="font-style:normal;font-variant:normal;font-weight:normal;font-stretch:normal;font-size:19.7556px;font-family:'Germania One';-inkscape-font-specification:'Germania One';fill:url(#linearGradient24520);fill-opacity:1;stroke-width:0.264583"
           x="76.831581"
           y="80.679443">HAFIDZAH</tspan></text>
      <path
         style="fill:#082819;fill-opacity:1;stroke:none;stroke-width:0.264583px;stroke-linecap:butt;stroke-linejoin:miter;stroke-opacity:1"
         d="m 113.0959,39.70369 5.10048,-0.285279 0.10097,6.966701 -5.02309,0.58056 z"
         id="path38370" />
      <path
         style="fill:none;stroke:none;stroke-width:0.264583px;stroke-linecap:butt;stroke-linejoin:miter;stroke-opacity:1"
         d="m 71.387616,67.638599 0.933942,1.03491 2.625133,-0.782492 -0.42911,-1.413534 z"
         id="path47246" />
      <path
         style="fill:#082819;fill-opacity:1;stroke:none;stroke-width:0.264583px;stroke-linecap:butt;stroke-linejoin:miter;stroke-opacity:1"
         d="m 71.51123,67.717001 1.178004,1.508201 2.150753,-1.46358 -0.669322,-1.044141 -2.704057,1.026293 z"
         id="path47281" />
      <path
         style="fill:#082819;fill-opacity:1;stroke:none;stroke-width:0.264583px;stroke-linecap:butt;stroke-linejoin:miter;stroke-opacity:1"
         d="m 81.64717,74.978728 0.321273,1.285097 c 0,0 0.785336,-0.0357 0.785336,-0.356971 0,-0.321275 0.0357,-0.856731 0.0357,-0.856731 z"
         id="path58563" />
    </g>
  </g>
</svg>
