<?xml version="1.0" encoding="UTF-8" standalone="no"?>
<!-- Created with Inkscape (http://www.inkscape.org/) -->

<svg
   width="854mm"
   height="480mm"
   viewBox="0 0 854 480"
   version="1.1"
   id="svg19624"
   inkscape:version="1.1.1 (3bf5ae0d25, 2021-09-20)"
   sodipodi:docname="depan.svg"
   xmlns:inkscape="http://www.inkscape.org/namespaces/inkscape"
   xmlns:sodipodi="http://sodipodi.sourceforge.net/DTD/sodipodi-0.dtd"
   xmlns:xlink="http://www.w3.org/1999/xlink"
   xmlns="http://www.w3.org/2000/svg"
   xmlns:svg="http://www.w3.org/2000/svg">
  <sodipodi:namedview
     id="namedview19626"
     pagecolor="#ffffff"
     bordercolor="#666666"
     borderopacity="1.0"
     inkscape:pageshadow="2"
     inkscape:pageopacity="0.0"
     inkscape:pagecheckerboard="0"
     inkscape:document-units="mm"
     showgrid="false"
     width="854mm"
     inkscape:snap-nodes="true"
     inkscape:zoom="0.11581089"
     inkscape:cx="-1627.6535"
     inkscape:cy="1472.2277"
     inkscape:window-width="1366"
     inkscape:window-height="705"
     inkscape:window-x="-8"
     inkscape:window-y="-8"
     inkscape:window-maximized="1"
     inkscape:current-layer="layer1"
     inkscape:snap-global="false"
     units="px"
     height="480px" />
  <defs
     id="defs19621">
    <linearGradient
       inkscape:collect="always"
       id="linearGradient20685">
      <stop
         style="stop-color:#0f2a35;stop-opacity:1;"
         offset="0"
         id="stop20681" />
      <stop
         style="stop-color:#2981a5;stop-opacity:1"
         offset="1"
         id="stop20683" />
    </linearGradient>
    <linearGradient
       inkscape:collect="always"
       xlink:href="#linearGradient20685"
       id="linearGradient20687"
       x1="440.93076"
       y1="126.79615"
       x2="444.3577"
       y2="484.33847"
       gradientUnits="userSpaceOnUse"
       gradientTransform="matrix(0.98690091,0,0,0.99104248,1.1273444,1.1320755)" />
    <filter
       style="color-interpolation-filters:sRGB;"
       inkscape:label="Blur"
       id="filter33085"
       x="-0.032087735"
       y="-1.1360231"
       width="1.0641755"
       height="3.2720463">
      <feGaussianBlur
         stdDeviation="2 50"
         result="fbSourceGraphic"
         id="feGaussianBlur33083" />
      <feColorMatrix
         result="fbSourceGraphicAlpha"
         in="fbSourceGraphic"
         values="0 0 0 -1 0 0 0 0 -1 0 0 0 0 -1 0 0 0 0 1 0"
         id="feColorMatrix33105" />
      <feGaussianBlur
         id="feGaussianBlur33107"
         stdDeviation="2 39.5831"
         result="fbSourceGraphic"
         in="fbSourceGraphic" />
      <feColorMatrix
         result="fbSourceGraphicAlpha"
         in="fbSourceGraphic"
         values="0 0 0 -1 0 0 0 0 -1 0 0 0 0 -1 0 0 0 0 1 0"
         id="feColorMatrix33127" />
      <feGaussianBlur
         id="feGaussianBlur33129"
         stdDeviation="2 0.01"
         result="blur"
         in="fbSourceGraphic" />
    </filter>
    <filter
       style="color-interpolation-filters:sRGB;"
       inkscape:label="Blur"
       id="filter46345"
       x="-0.086648992"
       y="-0.093746204"
       width="1.173298"
       height="1.1874924">
      <feGaussianBlur
         stdDeviation="15.4163 9.37462"
         result="fbSourceGraphic"
         id="feGaussianBlur46343" />
      <feColorMatrix
         result="fbSourceGraphicAlpha"
         in="fbSourceGraphic"
         values="0 0 0 -1 0 0 0 0 -1 0 0 0 0 -1 0 0 0 0 1 0"
         id="feColorMatrix46365" />
      <feGaussianBlur
         id="feGaussianBlur46367"
         stdDeviation="15.4163 9.37462"
         result="blur"
         in="fbSourceGraphic" />
    </filter>
    <inkscape:path-effect
       effect="bend_path"
       id="path-effect8969"
       is_visible="true"
       lpeversion="1"
       bendpath="m 374.18231,242.29811 c 73.6508,-54.7345 152.32665,-51.25159 235.12567,0"
       prop_scale="1"
       scale_y_rel="false"
       vertical="false"
       hide_knot="false"
       bendpath-nodetypes="cc" />
    <inkscape:path-effect
       effect="bend_path"
       id="path-effect8953"
       is_visible="true"
       lpeversion="1"
       bendpath="m 374.18231,242.29811 c 73.6508,-54.7345 152.32665,-51.25159 235.12567,0"
       prop_scale="1"
       scale_y_rel="false"
       vertical="false"
       hide_knot="false"
       bendpath-nodetypes="cc" />
    <inkscape:path-effect
       effect="bend_path"
       id="path-effect8797"
       is_visible="true"
       lpeversion="1"
       bendpath="m 374.18231,242.29811 c 73.6508,-54.7345 152.32665,-51.25159 235.12567,0"
       prop_scale="1"
       scale_y_rel="false"
       vertical="false"
       hide_knot="false"
       bendpath-nodetypes="cc" />
    <inkscape:path-effect
       effect="bend_path"
       id="path-effect8781"
       is_visible="true"
       lpeversion="1"
       bendpath="m 374.18231,242.29811 c 73.6508,-54.7345 152.32665,-51.25159 235.12567,0"
       prop_scale="1"
       scale_y_rel="false"
       vertical="false"
       hide_knot="false"
       bendpath-nodetypes="cc" />
    <inkscape:path-effect
       effect="bend_path"
       id="path-effect8717"
       is_visible="true"
       lpeversion="1"
       bendpath="m 374.18231,242.29811 c 73.6508,-54.7345 152.32665,-51.25159 235.12567,0"
       prop_scale="1"
       scale_y_rel="false"
       vertical="false"
       hide_knot="false"
       bendpath-nodetypes="cc" />
    <inkscape:path-effect
       effect="bend_path"
       id="path-effect7701"
       is_visible="true"
       lpeversion="1"
       bendpath="m 374.18231,242.29811 c 73.6508,-54.7345 152.32665,-51.25159 235.12567,0"
       prop_scale="1"
       scale_y_rel="false"
       vertical="false"
       hide_knot="false"
       bendpath-nodetypes="cc" />
    <filter
       inkscape:collect="always"
       style="color-interpolation-filters:sRGB"
       id="filter51965"
       x="-0.347929"
       y="-0.347929"
       width="1.695858"
       height="1.695858">
      <feGaussianBlur
         inkscape:collect="always"
         stdDeviation="11.426456"
         id="feGaussianBlur51967" />
    </filter>
    <filter
       inkscape:collect="always"
       style="color-interpolation-filters:sRGB"
       id="filter52282"
       x="-1.2"
       y="-1.2"
       width="3.4"
       height="3.4">
      <feGaussianBlur
         inkscape:collect="always"
         stdDeviation="2.5241671"
         id="feGaussianBlur52284" />
    </filter>
  </defs>
  <g
     inkscape:label="Layer 1"
     inkscape:groupmode="layer"
     id="layer1">
    <g
       inkscape:label="Layer 1"
       id="layer1-9"
       transform="translate(-44.897225,421.87598)" />
    <g
       id="g1493"
       inkscape:export-filename="D:\Materi Kuliah\Semester 5\Desain Game\ASET PENTOL\menuuu.png"
       inkscape:export-xdpi="25.4"
       inkscape:export-ydpi="25.4">
      <path
         id="path43691"
         style="fill:#262121;fill-opacity:1;stroke:#000000;stroke-width:0.264999;stroke-linecap:butt;stroke-linejoin:miter;stroke-miterlimit:4;stroke-dasharray:0, 2.91499;stroke-dashoffset:0;stroke-opacity:1"
         d="m 490.68292,432.50935 -3.92276,0.51056 -1.38647,4.31396 2.63136,-3.84421 -1.31879,5.6901 2.26187,-5.63015 0.10337,5.93865 z m 119.87795,2.34508 -3.20963,6.35466 3.90519,-5.38054 -0.71932,6.19289 1.47174,-5.75416 0.90073,6.00014 0.0305,-5.841 1.67277,4.34756 -0.35295,-4.51705 z m -489.78353,0.32713 -3.61787,1.59988 2.17868,6.77738 -0.99994,-6.57272 3.83852,4.91339 -2.99465,-5.1294 4.85604,3.63749 -4.08089,-4.17856 4.24419,1.91979 z m 156.16152,1.29035 -1.65571,6.92361 2.55696,-6.13658 0.73017,6.19188 0.10337,-5.93868 2.26187,5.63015 -1.31879,-5.69008 2.63136,3.84422 -1.38596,-4.31345 z m -261.347348,0.45061 -5.9970496,0.42841 -2.427759,5.71127 4.2839756,-4.99763 -2.4277586,7.56803 3.8555786,-7.4254 -0.285771,7.99643 1.570964,-8.28167 3.426664,8.42428 z m 833.334648,0.62219 -1.65571,6.92412 2.55696,-6.13656 0.73017,6.19186 0.10337,-5.93865 2.26187,5.63015 -1.31879,-5.69011 2.63137,3.84371 -1.38647,-4.31345 z m -453.21368,0.12298 -3.61838,1.59991 2.17921,6.77736 -0.99994,-6.57273 3.83799,4.91342 -2.99413,-5.12943 4.85553,3.63752 -4.08088,-4.17856 4.24468,1.91979 z m -3.61838,1.59991 -3.92274,-0.51107 -1.65624,6.92359 2.55746,-6.13656 0.7302,6.19186 0.10334,-5.93865 2.26137,5.63014 -1.31826,-5.6901 2.63136,3.84421 z" />
      <rect
         style="fill:url(#linearGradient20687);fill-opacity:1;stroke:none;stroke-width:953.763"
         id="rect20569"
         width="854"
         height="473.71732"
         x="0"
         y="2.0085752e-08" />
      <path
         id="path27701"
         style="fill:#1e414f;fill-opacity:1;stroke:none;stroke-width:0.999999px;stroke-linecap:butt;stroke-linejoin:miter;stroke-opacity:1"
         d="m 3220.7686,1241.2476 c 0,0 -227.716,128.7209 -425.2632,168.3789 -211.9752,42.5545 -396.9287,-234.1568 -613.0674,-228.8223 -230.4108,5.6867 -395.6196,270.2769 -626.0215,276.3125 -332.3368,8.7059 -757.01025,-351.6799 -917.44384,-308.6919 C 466.707,1194.5833 288.90059,1244.9563 2.1586917,1433.8794 L 0,1639.4492 3227.7168,1776.3379 V 910.02148 Z"
         transform="scale(0.26458333)"
         sodipodi:nodetypes="cssssccccc" />
      <path
         id="path38736"
         style="fill:#1e414f;fill-opacity:0.443548;stroke:none;stroke-width:0.999999px;stroke-linecap:butt;stroke-linejoin:miter;stroke-opacity:1"
         d="M 716.68653,936.87207 C 438.3257,955.18488 -8.6347667,1354.3526 -8.6347667,1354.3526 L 0,1790.4277 h 3227.7168 c 0,0 3.2341,-497.4989 0,-714.7734 -159.2547,-99.89982 -332.2654,181.6731 -512.0821,172.0703 -196.1236,-10.4737 -339.0597,-239.6279 -535.3564,-246.0918 -241.7492,-7.96063 -435.9681,262.1686 -677.8281,259.043 -283.2653,-3.6607 -503.08585,-342.40055 -785.76367,-323.80373 z"
         transform="scale(0.26458333)"
         sodipodi:nodetypes="accccaaaa" />
      <g
         id="g16331"
         transform="matrix(0.63836096,0,0,0.57524599,-150.84799,-27.181095)">
        <g
           id="g27306"
           transform="translate(226.95566,234.32116)">
          <g
             id="g26991"
             transform="translate(0,2.7596889)">
            <g
               id="g22644"
               transform="matrix(-1,0,0,1,328.4612,-18.112867)">
              <path
                 style="fill:#113f52;fill-opacity:1;stroke:none;stroke-width:0.358373px;stroke-linecap:butt;stroke-linejoin:miter;stroke-opacity:1"
                 d="m 193.51069,187.94165 c -41.16522,0.55856 -83.9682,41.52421 -101.242673,88.03287 -12.276387,33.05205 -24.731,93.60657 8.321293,108.74651 14.1164,6.46616 37.49104,-27.64379 37.49104,-27.64379 0,0 14.0351,34.054 29.07949,34.5483 14.8222,0.487 30.82251,-32.08404 30.82251,-32.08404 0,0 15.96049,31.33963 30.20049,30.35791 13.4198,-0.92517 24.26568,-32.24435 24.26568,-32.24435 0,0 21.24529,40.11232 36.75727,33.9705 36.46932,-14.43968 21.97394,-81.96522 8.32131,-117.37717 -18.02743,-46.75936 -62.34818,-86.87213 -104.01641,-86.30674 z"
                 id="path15049"
                 sodipodi:nodetypes="aaacacacaaa" />
              <path
                 style="fill:#423c3c;fill-opacity:1;stroke:none;stroke-width:0.404667px;stroke-linecap:butt;stroke-linejoin:miter;stroke-opacity:1"
                 d="m 176.32375,349.20704 18.73946,96.91599 -11.02322,96.91603 44.09286,1.38455 -20.9441,-102.4541 v -95.5315 z"
                 id="path16699" />
              <path
                 style="fill:#423c3c;fill-opacity:1;stroke:none;stroke-width:0.436328px;stroke-linecap:butt;stroke-linejoin:miter;stroke-opacity:1"
                 d="m 205.93299,385.75516 21.89139,-16.38262 4.46763,-19.85776 7.14821,5.95734 -8.93526,16.38262 -25.01874,19.85771 z"
                 id="path21149" />
              <path
                 style="fill:#17526b;fill-opacity:1;stroke:none;stroke-width:0.324654px;stroke-linecap:butt;stroke-linejoin:miter;stroke-opacity:1"
                 d="m 193.09055,186.79862 c -42.43807,1.14177 -89.75015,35.43222 -105.483148,79.18554 -10.644325,29.60178 -8.177873,81.64135 18.523998,93.37867 13.97535,6.14313 37.22348,-28.24896 37.22348,-28.24896 0,0 10.91524,33.9884 25.0756,34.30382 14.79843,0.32963 27.77581,-34.64716 27.77581,-34.64716 0,0 14.61649,34.15186 29.33171,33.13345 14.28856,-0.98888 23.77771,-35.78948 23.77771,-35.78948 0,0 18.2768,42.5543 33.32976,37.30321 31.09249,-10.84634 30.21054,-73.97246 16.73458,-106.90458 -17.14422,-41.89652 -64.8372,-72.82976 -106.2895,-71.71451 z"
                 id="path14598"
                 sodipodi:nodetypes="aaacacacaaa" />
              <path
                 style="fill:#1a607c;fill-opacity:1;stroke:none;stroke-width:0.264784px;stroke-linecap:butt;stroke-linejoin:miter;stroke-opacity:1"
                 d="m 193.03932,186.19806 c -40.09807,0.41269 -89.64033,26.20454 -103.556153,67.93855 -6.860159,20.57384 0.450965,55.05391 19.109203,62.30134 13.73345,5.33449 36.76599,-26.11263 36.76599,-26.11263 0,0 9.08913,29.14857 21.25533,29.52009 12.74198,0.38909 24.12778,-29.50061 24.12778,-29.50061 0,0 16.92405,30.44249 31.02126,28.93432 13.09474,-1.40092 22.4043,-32.35638 22.4043,-32.35638 0,0 21.23748,36.83781 36.1916,32.35153 19.95372,-5.98618 29.11181,-42.7061 22.11362,-64.28934 -14.19374,-43.77515 -67.51177,-69.21833 -109.43293,-68.78687 z"
                 id="path2102"
                 sodipodi:nodetypes="aaacacacaaa" />
              <path
                 style="fill:#1a607c;fill-opacity:1;stroke:none;stroke-width:0.171794px;stroke-linecap:butt;stroke-linejoin:miter;stroke-opacity:1"
                 d="m 192.52612,210.18875 c -17.22041,0.1814 -36.32135,-5.63118 -48.81023,-18.78953 -11.78986,-12.42187 -29.94378,-37.49695 -18.35138,-50.14562 7.55423,-8.24256 29.24041,13.82125 29.24041,13.82125 0,0 7.22868,-15.42815 16.9046,-15.6248 10.13384,-0.20594 19.18909,15.61449 19.18909,15.61449 0,0 13.45989,-16.11302 24.67156,-15.31475 10.41439,0.7415 17.81839,17.12602 17.81839,17.12602 0,0 20.51169,-24.97711 28.78359,-17.12346 11.67451,11.08422 -4.4533,36.12422 -15.22939,48.27737 -13.50773,15.23386 -34.95854,21.95616 -54.21664,22.15903 z"
                 id="path16245"
                 sodipodi:nodetypes="aaacacacaaa" />
            </g>
            <g
               id="g26853"
               transform="translate(51.824518,-13.900407)">
              <g
                 id="g26960"
                 transform="matrix(0.92939331,0.41013377,-0.33215523,0.92939331,139.43882,-52.604978)">
                <path
                   style="fill:#113f52;fill-opacity:1;stroke:none;stroke-width:0.121442px;stroke-linecap:butt;stroke-linejoin:miter;stroke-opacity:1"
                   d="m 145.39319,382.02838 c 13.99097,5.92842 24.60427,24.07053 25.96735,40.28288 0.96871,11.52156 -0.68107,31.22506 -13.4333,31.08843 -5.44638,-0.0584 -10.0987,-13.44733 -10.0987,-13.44733 0,0 -8.10626,8.13536 -13.2875,6.17589 -5.10471,-1.93053 -7.39086,-13.83074 -7.39086,-13.83074 0,0 -8.49876,7.06077 -13.26175,4.77612 -4.48864,-2.15304 -5.13809,-12.96038 -5.13809,-12.96038 0,0 -11.15654,8.92284 -15.850822,4.92969 -11.036444,-9.38806 0.487671,-27.38637 8.595722,-35.97802 10.70619,-11.34477 29.73602,-17.0374 43.89795,-11.03654 z"
                   id="path22646"
                   sodipodi:nodetypes="aaacacacaaa" />
                <path
                   style="fill:#423c3c;fill-opacity:1;stroke:none;stroke-width:0.139252px;stroke-linecap:butt;stroke-linejoin:miter;stroke-opacity:1"
                   d="m 135.54678,432.92424 -14.47212,29.47309 -5.19148,34.17423 -13.87238,-6.50134 15.65265,-30.97817 8.50548,-31.96973 z"
                   id="path22648" />
                <path
                   style="fill:#423c3c;fill-opacity:1;stroke:none;stroke-width:0.187152px;stroke-linecap:butt;stroke-linejoin:miter;stroke-opacity:1"
                   d="m 126.14849,441.78306 -7.95126,-9.37686 0.55535,-7.71005 -4.08755,0.90676 1.96663,7.23045 8.9375,11.11467 z"
                   id="path22650" />
                <path
                   style="fill:#17526b;fill-opacity:1;stroke:none;stroke-width:0.110016px;stroke-linecap:butt;stroke-linejoin:miter;stroke-opacity:1"
                   d="m 145.64789,381.74819 c 13.09646,5.53827 23.26379,21.80073 24.80626,36.16046 1.09618,10.20496 -0.7443,27.41302 -11.94744,27.19416 -5.47137,-0.10688 -9.94846,-13.58936 -9.94846,-13.58936 0,0 -7.03539,8.55266 -11.89757,6.66388 -5.08127,-1.97387 -6.10164,-14.16442 -6.10164,-14.16442 0,0 -8.31416,8.08299 -13.23572,5.72094 -4.77885,-2.29356 -4.62622,-13.94353 -4.62622,-13.94353 0,0 -10.13947,10.19651 -15.006052,6.39797 -10.042454,-7.83847 -0.01389,-24.19743 7.370742,-31.61927 9.75095,-9.80008 27.32961,-14.42679 40.5861,-8.82083 z"
                   id="path22652"
                   sodipodi:nodetypes="aaacacacaaa" />
                <path
                   style="fill:#1b627f;fill-opacity:1;stroke:none;stroke-width:0.0897276px;stroke-linecap:butt;stroke-linejoin:miter;stroke-opacity:1"
                   d="m 145.72388,381.57724 c 11.59973,4.88319 20.46109,17.8396 22.96553,28.94656 1.78089,7.89804 1.57314,21.21915 -6.84062,21.50333 -5.23261,0.17674 -10.00049,-12.8917 -10.00049,-12.8917 0,0 -5.94083,7.37284 -10.12808,5.77987 -4.38541,-1.66836 -5.35833,-12.12731 -5.35833,-12.12731 0,0 -8.74012,6.65979 -13.4031,4.239 -4.33139,-2.24865 -4.49208,-12.73304 -4.49208,-12.73304 0,0 -11.11162,8.57612 -15.50009,4.52871 -6.912083,-6.37488 1.46502,-17.54239 7.81586,-22.44062 8.5689,-6.60896 23.19991,-9.74768 34.9414,-4.8048 z"
                   id="path22654"
                   sodipodi:nodetypes="aaacacacaaa" />
                <path
                   style="fill:#1b627f;fill-opacity:1;stroke:none;stroke-width:0.0582161px;stroke-linecap:butt;stroke-linejoin:miter;stroke-opacity:1"
                   d="m 143.5618,388.76453 c 9.2729,3.73905 19.8941,3.16353 25.75051,0.23142 4.16444,-2.08499 9.13941,-7.13968 3.8804,-11.27503 -3.27062,-2.57181 -11.32316,0.006 -11.32316,0.006 0,0 -0.96338,-5.58782 -4.2456,-7.00068 -3.43757,-1.47969 -8.06839,1.94483 -8.06839,1.94483 0,0 -3.02273,-6.66325 -6.92586,-7.99602 -3.62558,-1.23799 -7.74798,2.58503 -7.74798,2.58503 0,0 -3.80098,-8.51188 -8.15266,-9.10812 -6.85411,-0.93909 -5.79132,7.22708 -3.61756,12.09076 2.93296,6.56233 11.06408,14.73716 20.4503,18.52192 z"
                   id="path22656"
                   sodipodi:nodetypes="aaacacacaaa" />
              </g>
            </g>
          </g>
          <g
             id="g22832"
             transform="translate(1034.9186,-12.637379)">
            <path
               style="fill:#113f52;fill-opacity:1;stroke:none;stroke-width:0.358373px;stroke-linecap:butt;stroke-linejoin:miter;stroke-opacity:1"
               d="m 193.51069,187.94165 c -41.16522,0.55856 -83.9682,41.52421 -101.242673,88.03287 -12.276387,33.05205 -24.731,93.60657 8.321293,108.74651 14.1164,6.46616 37.49104,-27.64379 37.49104,-27.64379 0,0 14.0351,34.054 29.07949,34.5483 14.8222,0.487 30.82251,-32.08404 30.82251,-32.08404 0,0 15.96049,31.33963 30.20049,30.35791 13.4198,-0.92517 24.26568,-32.24435 24.26568,-32.24435 0,0 21.24529,40.11232 36.75727,33.9705 36.46932,-14.43968 21.97394,-81.96522 8.32131,-117.37717 -18.02743,-46.75936 -62.34818,-86.87213 -104.01641,-86.30674 z"
               id="path22820"
               sodipodi:nodetypes="aaacacacaaa" />
            <path
               style="fill:#423c3c;fill-opacity:1;stroke:none;stroke-width:0.404667px;stroke-linecap:butt;stroke-linejoin:miter;stroke-opacity:1"
               d="m 176.32375,349.20704 18.73946,96.91599 -11.02322,96.91603 44.09286,1.38455 -20.9441,-102.4541 v -95.5315 z"
               id="path22822" />
            <path
               style="fill:#423c3c;fill-opacity:1;stroke:none;stroke-width:0.436328px;stroke-linecap:butt;stroke-linejoin:miter;stroke-opacity:1"
               d="m 205.93299,385.75516 21.89139,-16.38262 4.46763,-19.85776 7.14821,5.95734 -8.93526,16.38262 -25.01874,19.85771 z"
               id="path22824" />
            <path
               style="fill:#17526b;fill-opacity:1;stroke:none;stroke-width:0.324654px;stroke-linecap:butt;stroke-linejoin:miter;stroke-opacity:1"
               d="m 193.09055,186.79862 c -38.52388,0.48982 -78.58044,36.41434 -94.746517,77.19977 -11.488683,28.98475 -21.333714,82.35725 7.787367,95.36444 14.22209,6.35243 37.22348,-28.24896 37.22348,-28.24896 0,0 10.91524,33.9884 25.0756,34.30382 14.79843,0.32963 27.77581,-34.64716 27.77581,-34.64716 0,0 14.61649,34.15186 29.33171,33.13345 14.28856,-0.98888 23.77771,-35.78948 23.77771,-35.78948 0,0 17.53785,42.65674 33.32976,37.30321 32.58744,-11.04728 20.564,-71.87879 7.78739,-102.93304 C 273.56214,221.4794 232.0852,186.3028 193.09055,186.79862 Z"
               id="path22826"
               sodipodi:nodetypes="aaacacacaaa" />
            <path
               style="fill:#1a607c;fill-opacity:1;stroke:none;stroke-width:0.264784px;stroke-linecap:butt;stroke-linejoin:miter;stroke-opacity:1"
               d="m 193.03932,186.19806 c -34.10243,0.36806 -67.98117,28.06167 -83.87233,58.00969 -11.300035,21.29575 -22.064551,61.12884 -0.57462,72.2302 13.36482,6.90407 36.76599,-26.11263 36.76599,-26.11263 0,0 9.08913,29.14857 21.25533,29.52009 12.74198,0.38909 24.12778,-29.50061 24.12778,-29.50061 0,0 16.92405,30.44249 31.02126,28.93432 13.09474,-1.40092 22.4043,-32.35638 22.4043,-32.35638 0,0 21.42342,39.02737 36.1916,32.35153 23.26066,-10.51479 11.09837,-53.90814 -1.14908,-76.20397 -16.52492,-30.08275 -51.65105,-57.24482 -86.17023,-56.87224 z"
               id="path22828"
               sodipodi:nodetypes="aaacacacaaa" />
            <path
               style="fill:#1a607c;fill-opacity:1;stroke:none;stroke-width:0.171794px;stroke-linecap:butt;stroke-linejoin:miter;stroke-opacity:1"
               d="m 192.52612,210.18875 c -27.12205,-0.19481 -54.06619,-14.85286 -66.70461,-30.70416 -8.98705,-11.27171 -17.54819,-32.35511 -0.457,-38.23099 10.62919,-3.65428 29.24041,13.82125 29.24041,13.82125 0,0 7.22868,-15.42815 16.9046,-15.6248 10.13384,-0.20594 19.18909,15.61449 19.18909,15.61449 0,0 13.45989,-16.11302 24.67156,-15.31475 10.41439,0.7415 17.81839,17.12602 17.81839,17.12602 0,0 17.03829,-20.65694 28.78359,-17.12346 18.49946,5.56542 8.82665,28.53324 -0.91388,40.33428 -13.14245,15.92261 -41.07866,30.29933 -68.53215,30.10212 z"
               id="path22830"
               sodipodi:nodetypes="aaacacacaaa" />
          </g>
          <g
             id="g26974"
             transform="matrix(-0.3936639,0,0,0.34310532,1250.6316,343.00582)">
            <path
               style="fill:#113f52;fill-opacity:1;stroke:none;stroke-width:0.358373px;stroke-linecap:butt;stroke-linejoin:miter;stroke-opacity:1"
               d="m 193.51069,187.94165 c -41.16522,0.55856 -83.9682,41.52421 -101.242673,88.03287 -12.276387,33.05205 -24.731,93.60657 8.321293,108.74651 14.1164,6.46616 37.49104,-27.64379 37.49104,-27.64379 0,0 14.0351,34.054 29.07949,34.5483 14.8222,0.487 30.82251,-32.08404 30.82251,-32.08404 0,0 15.96049,31.33963 30.20049,30.35791 13.4198,-0.92517 24.26568,-32.24435 24.26568,-32.24435 0,0 21.24529,40.11232 36.75727,33.9705 36.46932,-14.43968 21.97394,-81.96522 8.32131,-117.37717 -18.02743,-46.75936 -62.34818,-86.87213 -104.01641,-86.30674 z"
               id="path26962"
               sodipodi:nodetypes="aaacacacaaa" />
            <path
               style="fill:#423c3c;fill-opacity:1;stroke:none;stroke-width:0.404667px;stroke-linecap:butt;stroke-linejoin:miter;stroke-opacity:1"
               d="m 176.32375,349.20704 18.73946,96.91599 -11.02322,96.91603 44.09286,1.38455 -20.9441,-102.4541 v -95.5315 z"
               id="path26964" />
            <path
               style="fill:#423c3c;fill-opacity:1;stroke:none;stroke-width:0.436328px;stroke-linecap:butt;stroke-linejoin:miter;stroke-opacity:1"
               d="m 205.93299,385.75516 21.89139,-16.38262 4.46763,-19.85776 7.14821,5.95734 -8.93526,16.38262 -25.01874,19.85771 z"
               id="path26966" />
            <path
               style="fill:#17526b;fill-opacity:1;stroke:none;stroke-width:0.324654px;stroke-linecap:butt;stroke-linejoin:miter;stroke-opacity:1"
               d="m 193.09055,186.79862 c -38.52388,0.48982 -78.58044,36.41434 -94.746517,77.19977 -11.488683,28.98475 -21.333714,82.35725 7.787367,95.36444 14.22209,6.35243 37.22348,-28.24896 37.22348,-28.24896 0,0 10.91524,33.9884 25.0756,34.30382 14.79843,0.32963 27.77581,-34.64716 27.77581,-34.64716 0,0 14.61649,34.15186 29.33171,33.13345 14.28856,-0.98888 23.77771,-35.78948 23.77771,-35.78948 0,0 17.53785,42.65674 33.32976,37.30321 32.58744,-11.04728 20.564,-71.87879 7.78739,-102.93304 C 273.56214,221.4794 232.0852,186.3028 193.09055,186.79862 Z"
               id="path26968"
               sodipodi:nodetypes="aaacacacaaa" />
            <path
               style="fill:#1a607c;fill-opacity:1;stroke:none;stroke-width:0.264784px;stroke-linecap:butt;stroke-linejoin:miter;stroke-opacity:1"
               d="m 193.03932,186.19806 c -34.10243,0.36806 -67.98117,28.06167 -83.87233,58.00969 -11.300035,21.29575 -22.064551,61.12884 -0.57462,72.2302 13.36482,6.90407 36.76599,-26.11263 36.76599,-26.11263 0,0 9.08913,29.14857 21.25533,29.52009 12.74198,0.38909 24.12778,-29.50061 24.12778,-29.50061 0,0 16.92405,30.44249 31.02126,28.93432 13.09474,-1.40092 22.4043,-32.35638 22.4043,-32.35638 0,0 21.42342,39.02737 36.1916,32.35153 23.26066,-10.51479 11.09837,-53.90814 -1.14908,-76.20397 -16.52492,-30.08275 -51.65105,-57.24482 -86.17023,-56.87224 z"
               id="path26970"
               sodipodi:nodetypes="aaacacacaaa" />
            <path
               style="fill:#1a607c;fill-opacity:1;stroke:none;stroke-width:0.171794px;stroke-linecap:butt;stroke-linejoin:miter;stroke-opacity:1"
               d="m 192.52612,210.18875 c -27.12205,-0.19481 -54.06619,-14.85286 -66.70461,-30.70416 -8.98705,-11.27171 -17.54819,-32.35511 -0.457,-38.23099 10.62919,-3.65428 29.24041,13.82125 29.24041,13.82125 0,0 7.22868,-15.42815 16.9046,-15.6248 10.13384,-0.20594 19.18909,15.61449 19.18909,15.61449 0,0 13.45989,-16.11302 24.67156,-15.31475 10.41439,0.7415 17.81839,17.12602 17.81839,17.12602 0,0 17.03829,-20.65694 28.78359,-17.12346 18.49946,5.56542 8.82665,28.53324 -0.91388,40.33428 -13.14245,15.92261 -41.07866,30.29933 -68.53215,30.10212 z"
               id="path26972"
               sodipodi:nodetypes="aaacacacaaa" />
          </g>
          <g
             id="g27005"
             transform="matrix(-0.3936639,0,0,0.34310532,803.86852,342.85985)">
            <path
               style="fill:#113f52;fill-opacity:1;stroke:none;stroke-width:0.358373px;stroke-linecap:butt;stroke-linejoin:miter;stroke-opacity:1"
               d="m 193.51069,187.94165 c -41.16522,0.55856 -83.9682,41.52421 -101.242673,88.03287 -12.276387,33.05205 -24.731,93.60657 8.321293,108.74651 14.1164,6.46616 37.49104,-27.64379 37.49104,-27.64379 0,0 14.0351,34.054 29.07949,34.5483 14.8222,0.487 30.82251,-32.08404 30.82251,-32.08404 0,0 15.96049,31.33963 30.20049,30.35791 13.4198,-0.92517 24.26568,-32.24435 24.26568,-32.24435 0,0 21.24529,40.11232 36.75727,33.9705 36.46932,-14.43968 21.97394,-81.96522 8.32131,-117.37717 -18.02743,-46.75936 -62.34818,-86.87213 -104.01641,-86.30674 z"
               id="path26993"
               sodipodi:nodetypes="aaacacacaaa" />
            <path
               style="fill:#423c3c;fill-opacity:1;stroke:none;stroke-width:0.404667px;stroke-linecap:butt;stroke-linejoin:miter;stroke-opacity:1"
               d="m 176.32375,349.20704 18.73946,96.91599 -11.02322,96.91603 44.09286,1.38455 -20.9441,-102.4541 v -95.5315 z"
               id="path26995" />
            <path
               style="fill:#423c3c;fill-opacity:1;stroke:none;stroke-width:0.436328px;stroke-linecap:butt;stroke-linejoin:miter;stroke-opacity:1"
               d="m 205.93299,385.75516 21.89139,-16.38262 4.46763,-19.85776 7.14821,5.95734 -8.93526,16.38262 -25.01874,19.85771 z"
               id="path26997" />
            <path
               style="fill:#17526b;fill-opacity:1;stroke:none;stroke-width:0.324654px;stroke-linecap:butt;stroke-linejoin:miter;stroke-opacity:1"
               d="m 193.09055,186.79862 c -38.52388,0.48982 -78.58044,36.41434 -94.746517,77.19977 -11.488683,28.98475 -21.333714,82.35725 7.787367,95.36444 14.22209,6.35243 37.22348,-28.24896 37.22348,-28.24896 0,0 10.91524,33.9884 25.0756,34.30382 14.79843,0.32963 27.77581,-34.64716 27.77581,-34.64716 0,0 14.61649,34.15186 29.33171,33.13345 14.28856,-0.98888 23.77771,-35.78948 23.77771,-35.78948 0,0 17.53785,42.65674 33.32976,37.30321 32.58744,-11.04728 20.564,-71.87879 7.78739,-102.93304 C 273.56214,221.4794 232.0852,186.3028 193.09055,186.79862 Z"
               id="path26999"
               sodipodi:nodetypes="aaacacacaaa" />
            <path
               style="fill:#1a607c;fill-opacity:1;stroke:none;stroke-width:0.264784px;stroke-linecap:butt;stroke-linejoin:miter;stroke-opacity:1"
               d="m 193.03932,186.19806 c -34.10243,0.36806 -67.98117,28.06167 -83.87233,58.00969 -11.300035,21.29575 -22.064551,61.12884 -0.57462,72.2302 13.36482,6.90407 36.76599,-26.11263 36.76599,-26.11263 0,0 9.08913,29.14857 21.25533,29.52009 12.74198,0.38909 24.12778,-29.50061 24.12778,-29.50061 0,0 16.92405,30.44249 31.02126,28.93432 13.09474,-1.40092 22.4043,-32.35638 22.4043,-32.35638 0,0 21.42342,39.02737 36.1916,32.35153 23.26066,-10.51479 11.09837,-53.90814 -1.14908,-76.20397 -16.52492,-30.08275 -51.65105,-57.24482 -86.17023,-56.87224 z"
               id="path27001"
               sodipodi:nodetypes="aaacacacaaa" />
            <path
               style="fill:#1a607c;fill-opacity:1;stroke:none;stroke-width:0.171794px;stroke-linecap:butt;stroke-linejoin:miter;stroke-opacity:1"
               d="m 192.52612,210.18875 c -27.12205,-0.19481 -54.06619,-14.85286 -66.70461,-30.70416 -8.98705,-11.27171 -17.54819,-32.35511 -0.457,-38.23099 10.62919,-3.65428 29.24041,13.82125 29.24041,13.82125 0,0 7.22868,-15.42815 16.9046,-15.6248 10.13384,-0.20594 19.18909,15.61449 19.18909,15.61449 0,0 13.45989,-16.11302 24.67156,-15.31475 10.41439,0.7415 17.81839,17.12602 17.81839,17.12602 0,0 17.03829,-20.65694 28.78359,-17.12346 18.49946,5.56542 8.82665,28.53324 -0.91388,40.33428 -13.14245,15.92261 -41.07866,30.29933 -68.53215,30.10212 z"
               id="path27003"
               sodipodi:nodetypes="aaacacacaaa" />
          </g>
          <g
             id="g27019"
             transform="matrix(-0.60089269,0,0,0.4509537,670.20918,284.29062)">
            <path
               style="fill:#113f52;fill-opacity:1;stroke:none;stroke-width:0.358373px;stroke-linecap:butt;stroke-linejoin:miter;stroke-opacity:1"
               d="m 193.51069,187.94165 c -41.16522,0.55856 -83.9682,41.52421 -101.242673,88.03287 -12.276387,33.05205 -24.731,93.60657 8.321293,108.74651 14.1164,6.46616 37.49104,-27.64379 37.49104,-27.64379 0,0 14.0351,34.054 29.07949,34.5483 14.8222,0.487 30.82251,-32.08404 30.82251,-32.08404 0,0 15.96049,31.33963 30.20049,30.35791 13.4198,-0.92517 24.26568,-32.24435 24.26568,-32.24435 0,0 21.24529,40.11232 36.75727,33.9705 36.46932,-14.43968 21.97394,-81.96522 8.32131,-117.37717 -18.02743,-46.75936 -62.34818,-86.87213 -104.01641,-86.30674 z"
               id="path27007"
               sodipodi:nodetypes="aaacacacaaa" />
            <path
               style="fill:#423c3c;fill-opacity:1;stroke:none;stroke-width:0.404667px;stroke-linecap:butt;stroke-linejoin:miter;stroke-opacity:1"
               d="m 176.32375,349.20704 18.73946,96.91599 -11.02322,96.91603 44.09286,1.38455 -20.9441,-102.4541 v -95.5315 z"
               id="path27009" />
            <path
               style="fill:#423c3c;fill-opacity:1;stroke:none;stroke-width:0.436328px;stroke-linecap:butt;stroke-linejoin:miter;stroke-opacity:1"
               d="m 205.93299,385.75516 21.89139,-16.38262 4.46763,-19.85776 7.14821,5.95734 -8.93526,16.38262 -25.01874,19.85771 z"
               id="path27011" />
            <path
               style="fill:#17526b;fill-opacity:1;stroke:none;stroke-width:0.324654px;stroke-linecap:butt;stroke-linejoin:miter;stroke-opacity:1"
               d="m 193.09055,186.79862 c -38.52388,0.48982 -78.58044,36.41434 -94.746517,77.19977 -11.488683,28.98475 -21.333714,82.35725 7.787367,95.36444 14.22209,6.35243 37.22348,-28.24896 37.22348,-28.24896 0,0 10.91524,33.9884 25.0756,34.30382 14.79843,0.32963 27.77581,-34.64716 27.77581,-34.64716 0,0 14.61649,34.15186 29.33171,33.13345 14.28856,-0.98888 23.77771,-35.78948 23.77771,-35.78948 0,0 17.53785,42.65674 33.32976,37.30321 32.58744,-11.04728 20.564,-71.87879 7.78739,-102.93304 C 273.56214,221.4794 232.0852,186.3028 193.09055,186.79862 Z"
               id="path27013"
               sodipodi:nodetypes="aaacacacaaa" />
            <path
               style="fill:#1a607c;fill-opacity:1;stroke:none;stroke-width:0.264784px;stroke-linecap:butt;stroke-linejoin:miter;stroke-opacity:1"
               d="m 193.03932,186.19806 c -34.10243,0.36806 -67.98117,28.06167 -83.87233,58.00969 -11.300035,21.29575 -22.064551,61.12884 -0.57462,72.2302 13.36482,6.90407 36.76599,-26.11263 36.76599,-26.11263 0,0 9.08913,29.14857 21.25533,29.52009 12.74198,0.38909 24.12778,-29.50061 24.12778,-29.50061 0,0 16.92405,30.44249 31.02126,28.93432 13.09474,-1.40092 22.4043,-32.35638 22.4043,-32.35638 0,0 21.42342,39.02737 36.1916,32.35153 23.26066,-10.51479 11.09837,-53.90814 -1.14908,-76.20397 -16.52492,-30.08275 -51.65105,-57.24482 -86.17023,-56.87224 z"
               id="path27015"
               sodipodi:nodetypes="aaacacacaaa" />
            <path
               style="fill:#1a607c;fill-opacity:1;stroke:none;stroke-width:0.171794px;stroke-linecap:butt;stroke-linejoin:miter;stroke-opacity:1"
               d="m 192.52612,210.18875 c -27.12205,-0.19481 -54.06619,-14.85286 -66.70461,-30.70416 -8.98705,-11.27171 -17.54819,-32.35511 -0.457,-38.23099 10.62919,-3.65428 29.24041,13.82125 29.24041,13.82125 0,0 7.22868,-15.42815 16.9046,-15.6248 10.13384,-0.20594 19.18909,15.61449 19.18909,15.61449 0,0 13.45989,-16.11302 24.67156,-15.31475 10.41439,0.7415 17.81839,17.12602 17.81839,17.12602 0,0 17.03829,-20.65694 28.78359,-17.12346 18.49946,5.56542 8.82665,28.53324 -0.91388,40.33428 -13.14245,15.92261 -41.07866,30.29933 -68.53215,30.10212 z"
               id="path27017"
               sodipodi:nodetypes="aaacacacaaa" />
          </g>
        </g>
        <path
           style="fill:none;stroke:none;stroke-width:0.436328px;stroke-linecap:butt;stroke-linejoin:miter;stroke-opacity:1"
           d="M -92.951517,623.05497 287.69063,235.82932 632.59174,462.20737 839.88979,142.49801 l 228.74271,279.99394 300.2248,-248.22157 32.1669,428.92683 z"
           id="path27100" />
      </g>
      <rect
         style="fill:#362f2f;fill-opacity:1;stroke:none;stroke-width:331.018"
         id="rect21281"
         width="854"
         height="57.472363"
         x="0"
         y="422.65384" />
      <path
         id="path8632"
         style="fill:#434343;fill-opacity:0.173387;stroke:none;stroke-width:0.264094px;stroke-linecap:butt;stroke-linejoin:miter;stroke-opacity:1"
         d="m 656.46616,455.72652 c -15.95966,-0.4512 -30.92007,11.1643 -46.87033,14.2503 -15.36438,2.97264 -31.04686,6.15791 -46.66128,5.14077 -22.79366,-1.48479 -43.79442,-17.9121 -66.57794,-16.27806 -16.00323,1.14773 -28.64503,17.21326 -44.67035,17.99113 -9.77234,0.47437 -18.40203,-7.68508 -28.16769,-8.28167 -23.67258,-1.44613 -46.51383,12.78676 -70.20149,11.61585 -18.90144,-0.93435 -35.9144,-14.74846 -54.83873,-14.74846 -12.04907,0 -22.86634,9.39011 -34.91541,9.39011 -17.5565,0 -33.46856,-11.38229 -50.87486,-13.68237 -23.78938,-3.14354 -48.60729,-5.43089 -71.98391,0 -9.46299,2.19845 -16.49061,12.11054 -26.17574,12.8509 C 97.090934,475.30801 81.939386,458.47654 64.452618,458.2685 49.654579,458.09245 21.774241,470.54837 21.774241,470.54837 L 0,478.13032 v 2.99723 l 22.343156,-8.29458 c 0,0 27.351304,-11.79145 41.824747,-11.70885 17.977686,0.10261 33.878074,16.75982 51.783067,15.13552 9.08199,-0.82389 15.60225,-10.14193 24.46899,-12.27987 23.42385,-5.64793 48.39083,-3.77907 72.26812,-0.57102 18.06431,2.42705 34.41215,15.03045 52.63669,14.84974 11.79061,-0.11692 22.06738,-10.15654 33.85788,-10.28052 19.00618,-0.19984 35.9299,14.45853 54.91289,15.42129 23.2648,1.17994 45.60188,-13.40252 68.85411,-11.99462 10.18291,0.61656 19.11378,9.28722 29.30605,8.8532 15.69537,-0.66831 28.1509,-16.23835 43.81619,-17.42012 23.10177,-1.74278 44.58954,14.33788 67.71629,15.70654 15.62014,0.9244 31.30697,-2.11545 46.66129,-5.14027 16.26057,-3.20334 31.35492,-15.75541 47.79965,-13.70769 11.63921,1.44936 18.72351,17.26912 30.44387,17.70592 10.00362,0.37282 17.05993,-12.22759 27.02935,-13.13667 16.65915,-1.51911 31.65488,12.74683 48.36909,13.42191 20.64831,0.834 40.22873,-11.18777 60.88725,-11.70834 9.57352,-0.24122 28.4524,3.9977 28.4524,3.9977 L 854,465.12235 c 0,0 -18.73013,-3.5651 -28.16769,-3.14143 -20.97824,0.94179 -40.75441,13.29931 -61.74088,12.56512 -16.71757,-0.58484 -31.71638,-15.01045 -48.36909,-13.42192 -9.58485,0.91432 -16.27007,13.2229 -25.891,12.8509 -11.68598,-0.45183 -18.56733,-16.44206 -30.15968,-17.99114 -1.07346,-0.14346 -2.1415,-0.22728 -3.2055,-0.25736 z" />
      <path
         id="path5521"
         style="fill:#3a3131;fill-opacity:1;stroke:none;stroke-width:0.26354px;stroke-linecap:butt;stroke-linejoin:miter;stroke-opacity:1"
         d="m 0.42810713,422.51087 v 42.97204 C 14.452068,458.02449 32.195327,449.71617 44.928492,447.85763 c 22.383516,-3.2671 44.623307,8.40423 67.223798,9.27489 17.91632,0.6902 35.77835,-2.48854 53.6926,-3.23133 22.31488,-0.92524 44.66259,-0.78838 66.98438,-1.52548 10.4943,-0.34655 19.83887,3.31166 30.33727,3.49314 15.84372,0.27387 24.19556,3.08348 40.03001,3.69485 24.35229,0.94028 57.31669,-6.84226 81.61058,-4.9008 16.92818,1.35284 33.32699,8.58576 50.3021,8.12353 18.33477,-0.49922 35.49678,-10.27541 53.78233,-11.71763 30.52603,-2.40765 61.11773,6.53548 91.7104,5.24672 13.75267,-0.57936 27.15629,-4.87149 40.88893,-5.81774 27.49739,-1.89468 55.15979,-1.14006 82.68377,0.31057 16.7951,0.88519 33.38811,4.60539 50.19856,5.11495 11.62089,0.35224 23.22377,-1.48929 34.8498,-1.42783 20.33169,0.1075 40.58773,3.53005 60.91603,3.1414 1.03594,-0.0198 2.36506,-0.11308 3.68326,-0.20722 V 422.51087 H 211.79366 Z"
         sodipodi:nodetypes="ccssssssssssssssscccc" />
      <rect
         style="fill:#1981b8;fill-opacity:1;stroke:none;stroke-width:134.965"
         id="rect23013"
         width="854"
         height="9.554224"
         x="-1.1248318e-08"
         y="413.02826" />
      <path
         style="fill:#262121;fill-opacity:1;fill-rule:nonzero;stroke:#000000;stroke-width:0.246116;stroke-linecap:butt;stroke-linejoin:miter;stroke-miterlimit:4;stroke-dasharray:0, 2.70728;stroke-dashoffset:0;stroke-opacity:1"
         d="M 0.05663559,429.98508 0,445.74823 c 0,0 12.33407,-2.96744 18.633513,-3.86953 11.590694,-1.65979 23.725603,-1.71865 35.085946,-2.81419 14.667449,0.75907 46.957041,5.94522 72.978761,2.11064 19.66254,-2.74813 40.04829,1.46068 54.73409,2.9901 23.90224,-4.98214 53.81608,-4.91019 74.7487,-2.14712 29.00275,0.39837 35.18255,-1.15619 60.21159,1.25181 29.56166,0.73506 55.82124,-5.13607 82.32629,-1.2955 11.34535,1.31034 22.97639,4.1115 34.32977,2.85577 22.89662,-3.91878 50.71966,-6.15409 72.961,-6.28586 28.94471,1.57914 49.16951,-0.73265 73.20885,1.47448 30.31915,4.67048 54.54359,-1.8979 83.19944,-0.88536 34.66641,-1.81849 70.1748,-2.30041 102.04254,2.53193 25.73362,4.31771 46.96508,-2.99156 71.7831,-0.24395 5.93946,0.63461 17.75641,2.30662 17.75641,2.30662 v -13.80519 z"
         id="path40575"
         sodipodi:nodetypes="ccaccccccccccccccc" />
      <path
         style="fill:#236b90;fill-opacity:1;stroke:#000000;stroke-width:0.263637;stroke-linecap:butt;stroke-linejoin:miter;stroke-miterlimit:4;stroke-dasharray:0, 2.9;stroke-dashoffset:0;stroke-opacity:1"
         d="M 0.056636,422.24232 0,440.33974 c 0,0 12.33407,-3.40687 18.633513,-4.44254 11.590694,-1.90559 23.725603,-1.97316 35.085946,-3.23094 14.667449,0.87148 46.957051,6.82561 72.978761,2.4232 19.66254,-3.15508 40.04829,1.67698 54.7341,3.43288 23.90223,-5.71991 41.34042,-4.32585 62.27304,-1.15361 9.63384,1.27744 19.51513,1.26254 29.15089,0 18.64373,-3.82228 29.1498,-1.41489 43.53635,0.12573 29.56166,0.8439 55.82124,-2.61798 82.32629,1.79131 11.34535,1.50439 22.9764,1.44168 34.32978,0 22.89661,-4.49908 50.71965,-7.06541 72.96099,-7.21669 28.94472,1.81298 49.16951,-0.84115 73.20885,1.69283 30.31916,5.3621 54.54359,-2.17895 83.19945,-1.01647 34.6664,-2.08778 70.1748,-2.64106 102.04253,2.90686 25.73362,4.9571 46.96508,-3.43455 71.78311,-0.28007 5.93944,0.72859 17.7564,2.6482 17.7564,2.6482 v -15.84952 z"
         id="path26105"
         sodipodi:nodetypes="ccacccccccccccccccc" />
      <path
         id="path42671"
         style="fill:#236b90;fill-opacity:1;stroke:#000000;stroke-width:0.264999;stroke-linecap:butt;stroke-linejoin:miter;stroke-miterlimit:4;stroke-dasharray:0, 2.91499;stroke-dashoffset:0;stroke-opacity:1"
         d="m 490.15569,430.80625 -3.92276,0.51056 -1.38647,4.31395 2.63136,-3.84421 -1.31879,5.69011 2.26187,-5.63015 0.10337,5.93865 z m 119.87795,2.34508 -3.20964,6.35465 3.9052,-5.38054 -0.71932,6.19289 1.47174,-5.75415 0.90072,6.00014 0.0305,-5.841 1.67278,4.34756 -0.35296,-4.51705 z m -489.78354,0.32713 -3.61786,1.59988 2.17867,6.77738 -0.99993,-6.57272 3.83852,4.91339 -2.99465,-5.1294 4.85604,3.63749 -4.08089,-4.17856 4.24418,1.91979 z m 156.16153,1.29034 -1.65571,6.92362 2.55696,-6.13659 0.73017,6.19189 0.10337,-5.93868 2.26187,5.63015 -1.31879,-5.69008 2.63136,3.84421 -1.38597,-4.31345 z m -261.347353,0.45062 -5.9970497,0.42841 -2.427759,5.71127 4.2839767,-4.99764 -2.4277593,7.56804 3.8555783,-7.4254 -0.28577,7.99642 1.570963,-8.28167 3.426665,8.42428 z m 833.334653,0.62219 -1.65571,6.92412 2.55696,-6.13656 0.73017,6.19186 0.10337,-5.93865 2.26187,5.63014 -1.31879,-5.6901 2.63136,3.84371 -1.38647,-4.31345 z m -453.21368,0.12298 -3.61839,1.59991 2.17922,6.77735 -0.99994,-6.57272 3.83799,4.91342 -2.99413,-5.12943 4.85553,3.63752 -4.08088,-4.17857 4.24468,1.91979 z m -3.61839,1.59991 -3.92274,-0.51107 -1.65623,6.92359 2.55746,-6.13656 0.7302,6.19186 0.10334,-5.93866 2.26137,5.63015 -1.31826,-5.6901 2.63136,3.84421 z" />
      <path
         style="fill:#236b90;fill-opacity:1;stroke:#000000;stroke-width:0.265;stroke-linecap:butt;stroke-linejoin:miter;stroke-miterlimit:4;stroke-dasharray:0, 2.915;stroke-dashoffset:0;stroke-opacity:1"
         d="m 717.38432,429.58958 -2.4274,5.71153 4.28365,-4.99758 -2.4274,7.56777 3.85529,-7.425 -3.85529,7.425 3.85529,-7.425 0.67336,7.93701 2.03962,-9.22209 z"
         id="path43203"
         sodipodi:nodetypes="cccccccccc" />
      <path
         style="fill:#2d2424;fill-opacity:1;stroke:#000000;stroke-width:0.219334;stroke-linecap:butt;stroke-linejoin:miter;stroke-miterlimit:4;stroke-dasharray:0, 2.41267;stroke-dashoffset:0;stroke-opacity:1"
         d="m 50.171018,467.80554 c -1.077157,-5.852 12.990874,-11.42326 19.881686,-10.04321 6.731739,1.34821 18.982047,0.86952 17.508415,6.42405 -1.564752,5.89798 -28.781575,4.24343 -21.413789,3.8187 0,0 -15.216961,3.92588 -15.976312,-0.19954 z"
         id="path866"
         sodipodi:nodetypes="ssass" />
      <path
         style="fill:#2d2424;fill-opacity:1;stroke:#000000;stroke-width:0.179465;stroke-linecap:butt;stroke-linejoin:miter;stroke-miterlimit:4;stroke-dasharray:0, 1.97411;stroke-dashoffset:0;stroke-opacity:1"
         d="m 190.06701,460.92512 c 8.48041,-1.14803 24.16035,-5.37209 24.9276,1.66428 0.70522,6.4676 -14.09092,10.41667 -21.68444,9.73391 -5.16863,-0.46473 -12.07206,-4.45232 -10.56632,-8.90263 0.71846,-2.12341 4.79162,-2.15285 7.32316,-2.49556 z"
         id="path3704"
         sodipodi:nodetypes="aaaaa" />
      <path
         style="fill:#2d2424;fill-opacity:1;stroke:#000000;stroke-width:0.161981;stroke-linecap:butt;stroke-linejoin:miter;stroke-miterlimit:4;stroke-dasharray:0, 1.78178;stroke-dashoffset:0;stroke-opacity:1"
         d="m 471.1369,458.09114 c 7.42027,-1.07213 21.35985,-3.01746 22.56827,2.02521 1.90004,7.92862 -22.30362,15.02096 -32.19739,10.53111 -3.66773,-1.66443 -1.37802,-6.35995 0.90271,-8.91094 1.76515,-1.9743 5.37911,-3.16174 8.72641,-3.64538 z"
         id="path4735"
         sodipodi:nodetypes="aaaaa" />
      <path
         style="fill:#2d2424;fill-opacity:1;stroke:#000000;stroke-width:0.219334;stroke-linecap:butt;stroke-linejoin:miter;stroke-miterlimit:4;stroke-dasharray:0, 2.41267;stroke-dashoffset:0;stroke-opacity:1"
         d="m 361.22145,465.42603 c 0.23651,5.9456 -14.47935,9.46584 -21.10485,7.12265 -6.47256,-2.2891 -18.66697,-3.55224 -16.42063,-8.8417 2.38522,-5.61652 29.09245,-0.11955 21.7389,-0.74381 0,0 15.61986,-1.72855 15.78658,2.46286 z"
         id="path5333"
         sodipodi:nodetypes="ssass" />
      <path
         style="fill:#2d2424;fill-opacity:1;stroke:#000000;stroke-width:0.159873;stroke-linecap:butt;stroke-linejoin:miter;stroke-miterlimit:4;stroke-dasharray:0, 1.7586;stroke-dashoffset:0;stroke-opacity:1"
         d="m 831.57276,469.97452 c -8.73346,0.88737 -25.13998,2.49746 -26.56227,-1.67622 -2.23629,-6.5623 26.2508,-12.43244 37.8955,-8.71631 4.31682,1.37761 1.6219,5.26396 -1.06247,7.37534 -2.07752,1.63407 -6.33107,2.61689 -10.27076,3.01719 z"
         id="path5335"
         sodipodi:nodetypes="aaaaa" />
      <path
         style="fill:#2d2424;fill-opacity:1;stroke:#000000;stroke-width:0.179465;stroke-linecap:butt;stroke-linejoin:miter;stroke-miterlimit:4;stroke-dasharray:0, 1.97411;stroke-dashoffset:0;stroke-opacity:1"
         d="m 650.1497,458.7603 c -8.44451,-1.38761 -23.99861,-6.05381 -24.96472,0.95802 -0.88801,6.44504 13.79042,10.81134 21.40023,10.34379 5.17971,-0.31823 12.19325,-4.10882 10.81407,-8.59997 -0.65806,-2.14289 -4.72875,-2.28762 -7.24958,-2.70184 z"
         id="path5337"
         sodipodi:nodetypes="aaaaa" />
      <path
         style="fill:#2d2424;fill-opacity:1;stroke:#000000;stroke-width:0.126102;stroke-linecap:butt;stroke-linejoin:miter;stroke-miterlimit:4;stroke-dasharray:0, 1.38712;stroke-dashoffset:0;stroke-opacity:1"
         d="m 10.091858,470.40353 c 0.45742,-2.98897 10.31568,-3.57874 14.35112,-1.88196 3.94229,1.65761 11.68251,3.25715 9.69008,5.72114 -2.11562,2.61633 -18.78748,-2.25091 -14.1058,-1.35501 0,0 -10.2578595,-0.37707 -9.9354,-2.48417 z"
         id="path5476"
         sodipodi:nodetypes="ssass" />
      <path
         style="fill:#2d2424;fill-opacity:1;stroke:#000000;stroke-width:0.134907;stroke-linecap:butt;stroke-linejoin:miter;stroke-miterlimit:4;stroke-dasharray:0, 1.48397;stroke-dashoffset:0;stroke-opacity:1"
         d="m 131.62902,461.86803 c 4.52674,-1.21532 12.89652,-5.68696 13.30607,1.76182 0.37643,6.84669 -7.52158,11.02723 -11.57491,10.30444 -2.75895,-0.49196 -6.44392,-4.71327 -5.64017,-9.42443 0.3835,-2.24787 2.5577,-2.27903 3.90901,-2.64183 z"
         id="path5478"
         sodipodi:nodetypes="aaaaa" />
      <path
         style="fill:#2d2424;fill-opacity:1;stroke:#000000;stroke-width:0.12312;stroke-linecap:butt;stroke-linejoin:miter;stroke-miterlimit:4;stroke-dasharray:0, 1.35432;stroke-dashoffset:0;stroke-opacity:1"
         d="m 263.859,462.40931 c 0.0798,5.54958 -4.88803,8.83534 -7.1247,6.64822 -2.18504,-2.13662 -6.3017,-3.31563 -5.54337,-8.25277 0.80522,-5.24241 9.8212,-0.11158 7.33874,-0.69426 0,0 5.27305,-1.61342 5.32933,2.29881 z"
         id="path5480"
         sodipodi:nodetypes="ssass" />
      <path
         style="fill:#2d2424;fill-opacity:1;stroke:#000000;stroke-width:0.0873181;stroke-linecap:butt;stroke-linejoin:miter;stroke-miterlimit:4;stroke-dasharray:0, 0.960498;stroke-dashoffset:0;stroke-opacity:1"
         d="m 404.67298,467.1594 c 2.60522,-0.88738 7.49933,-2.49747 7.9236,1.67621 0.66709,6.5623 -7.83068,12.43245 -11.30433,8.71631 -1.28772,-1.3776 -0.48382,-5.26395 0.31693,-7.37534 0.61974,-1.63407 1.88858,-2.61689 3.0638,-3.01718 z"
         id="path5482"
         sodipodi:nodetypes="aaaaa" />
      <path
         style="fill:#2d2424;fill-opacity:1;stroke:#000000;stroke-width:0.129082;stroke-linecap:butt;stroke-linejoin:miter;stroke-miterlimit:4;stroke-dasharray:0, 1.4199;stroke-dashoffset:0;stroke-opacity:1"
         d="m 559.84037,466.99802 c -4.13265,-1.46686 -11.74469,-6.39952 -12.21749,1.01272 -0.43458,6.8131 6.74891,11.42873 10.47307,10.93448 2.5349,-0.33639 5.96727,-4.34346 5.29231,-9.09108 -0.32206,-2.26526 -2.31421,-2.41825 -3.54789,-2.85612 z"
         id="path5484"
         sodipodi:nodetypes="aaaaa" />
      <path
         style="fill:#2d2424;fill-opacity:1;stroke:#000000;stroke-width:0.0896492;stroke-linecap:butt;stroke-linejoin:miter;stroke-miterlimit:4;stroke-dasharray:0, 0.986139;stroke-dashoffset:0;stroke-opacity:1"
         d="m 717.85875,472.04985 c -1.87825,-1.47344 -5.33727,-4.27014 -0.37555,-6.69143 7.80133,-3.80701 17.55778,-0.50409 14.08566,3.93538 -1.28716,1.64576 -6.27352,3.01597 -9.0937,3.49187 -2.18265,0.36832 -3.76913,-0.0712 -4.61641,-0.73582 z"
         id="path5486"
         sodipodi:nodetypes="aaaaa" />
      <g
         id="g41821"
         transform="matrix(0.8235294,0,0,0.8235294,3.225339,-22.577376)"
         style="fill:#2f5d6b;fill-opacity:1">
        <circle
           style="fill:#2f5d6b;fill-opacity:1;stroke:none;stroke-width:0.170967;stroke-dashoffset:10.0157"
           id="path40892"
           cx="41.123074"
           cy="110.80384"
           r="22.846153" />
        <circle
           style="fill:#2f5d6b;fill-opacity:1;stroke:none;stroke-width:0.239354;stroke-dashoffset:10.0157"
           id="circle40974"
           cx="78.819221"
           cy="98.238449"
           r="31.984615" />
        <circle
           style="fill:#2f5d6b;fill-opacity:1;stroke:none;stroke-width:0.196613;stroke-dashoffset:10.0157"
           id="circle40976"
           cx="113.08845"
           cy="95.953827"
           r="26.273077" />
        <circle
           style="fill:#2f5d6b;fill-opacity:1;stroke:none;stroke-width:0.136774;stroke-dashoffset:10.0157"
           id="circle40978"
           cx="107.37691"
           cy="110.80382"
           r="18.276924" />
        <circle
           style="fill:#2f5d6b;fill-opacity:1;stroke:none;stroke-width:0.136774;stroke-dashoffset:10.0157"
           id="circle40980"
           cx="135.9346"
           cy="109.66151"
           r="18.276924" />
      </g>
      <g
         id="g46191"
         transform="translate(-22.846153,19.41923)">
        <ellipse
           style="fill:#305e6d;fill-opacity:1;stroke:none;stroke-width:0.0788075;stroke-dashoffset:10.0157"
           id="circle41827"
           cx="-204.72264"
           cy="126.31212"
           transform="scale(-1,1)"
           rx="10.37676"
           ry="10.687355" />
        <ellipse
           style="fill:#305e6d;fill-opacity:1;stroke:none;stroke-width:0.0548225;stroke-dashoffset:10.0157"
           id="circle41829"
           cx="-216.11693"
           cy="126.64126"
           transform="scale(-1,1)"
           rx="7.2186165"
           ry="7.4346824" />
        <ellipse
           style="fill:#305e6d;fill-opacity:1;stroke:none;stroke-width:0.0548225;stroke-dashoffset:10.0157"
           id="circle41831"
           cx="-191.13014"
           cy="130.74582"
           transform="scale(-1,1)"
           rx="7.2186165"
           ry="7.4346824" />
      </g>
      <g
         id="g41952"
         transform="matrix(0.48364789,0,0,0.41540188,589.39768,-12.390728)"
         style="fill:#366a7b;fill-opacity:1">
        <circle
           style="fill:#366a7b;fill-opacity:1;stroke:none;stroke-width:0.264999;stroke-dashoffset:10.0157"
           id="path41857"
           cx="375.81921"
           cy="110.80384"
           r="28.557693" />
        <ellipse
           style="fill:#366a7b;fill-opacity:1;stroke:none;stroke-width:0.399929;stroke-dashoffset:10.0157"
           id="circle41939"
           cx="416.94229"
           cy="110.23269"
           rx="44.549999"
           ry="41.694233" />
        <ellipse
           style="fill:#366a7b;fill-opacity:1;stroke:none;stroke-width:0.32323;stroke-dashoffset:10.0157"
           id="ellipse41941"
           cx="454.09076"
           cy="96.525002"
           rx="36.006165"
           ry="33.698078" />
        <ellipse
           style="fill:#366a7b;fill-opacity:1;stroke:none;stroke-width:0.32323;stroke-dashoffset:10.0157"
           id="ellipse41943"
           cx="476.93692"
           cy="129.65192"
           rx="36.006165"
           ry="33.698078" />
        <ellipse
           style="fill:#366a7b;fill-opacity:1;stroke:none;stroke-width:0.246531;stroke-dashoffset:10.0157"
           id="ellipse41945"
           cx="502.66232"
           cy="113.65961"
           rx="27.46233"
           ry="25.701925" />
      </g>
      <g
         id="g46021"
         transform="translate(190.76538,-99.380762)">
        <ellipse
           style="fill:#326372;fill-opacity:1;stroke:none;stroke-width:0.1526;stroke-dashoffset:10.0157"
           id="ellipse41956"
           cx="-554.94061"
           cy="-220.17169"
           rx="16.998842"
           ry="15.909175"
           transform="scale(-1)" />
        <ellipse
           style="fill:#326372;fill-opacity:1;stroke:none;stroke-width:0.123334;stroke-dashoffset:10.0157"
           id="ellipse41958"
           cx="-536.19666"
           cy="-217.40596"
           rx="13.738791"
           ry="12.8581"
           transform="scale(-1)" />
        <ellipse
           style="fill:#326372;fill-opacity:1;stroke:none;stroke-width:0.123334;stroke-dashoffset:10.0157"
           id="ellipse41960"
           cx="-556.03705"
           cy="-211.61964"
           rx="13.738791"
           ry="12.8581"
           transform="scale(-1)" />
        <ellipse
           style="fill:#326372;fill-opacity:1;stroke:none;stroke-width:0.0940683;stroke-dashoffset:10.0157"
           id="ellipse41962"
           cx="-571.35181"
           cy="-220.00639"
           rx="10.47874"
           ry="9.8070259"
           transform="scale(-1)" />
      </g>
      <g
         id="g45930"
         transform="translate(-103.95,-169.06153)">
        <circle
           style="fill:#31606f;fill-opacity:1;stroke:none;stroke-width:0.0994597;stroke-dashoffset:10.0157"
           id="circle41966"
           cx="-397.17944"
           cy="-234.47551"
           r="10.718301"
           transform="scale(-1)" />
        <ellipse
           style="fill:#31606f;fill-opacity:1;stroke:none;stroke-width:0.150102;stroke-dashoffset:10.0157"
           id="ellipse41968"
           cx="-377.17587"
           cy="-236.97447"
           rx="16.720549"
           ry="15.64872"
           transform="scale(-1)" />
        <ellipse
           style="fill:#31606f;fill-opacity:1;stroke:none;stroke-width:0.121315;stroke-dashoffset:10.0157"
           id="ellipse41970"
           cx="-340.38712"
           cy="-230.6962"
           rx="13.513868"
           ry="12.647595"
           transform="scale(-1)" />
        <ellipse
           style="fill:#31606f;fill-opacity:1;stroke:none;stroke-width:0.123852;stroke-dashoffset:10.0157"
           id="ellipse41972"
           cx="-359.79898"
           cy="-230.82835"
           rx="14.085022"
           ry="12.647595"
           transform="scale(-1)" />
        <ellipse
           style="fill:#31606f;fill-opacity:1;stroke:none;stroke-width:0.0925282;stroke-dashoffset:10.0157"
           id="ellipse41974"
           cx="-355.28412"
           cy="-242.54214"
           rx="10.307188"
           ry="9.646471"
           transform="scale(-1)" />
      </g>
      <g
         id="g46304"
         transform="translate(76.534613,-38.83846)">
        <ellipse
           style="fill:#2f5d6b;fill-opacity:1;stroke:none;stroke-width:0.27582;stroke-dashoffset:10.0157"
           id="path46215"
           cx="554.01923"
           cy="239.31346"
           rx="14.849998"
           ry="10.851922" />
        <ellipse
           style="fill:#2f5d6b;fill-opacity:1;stroke:none;stroke-width:0.326685;stroke-dashoffset:10.0157"
           id="ellipse46297"
           cx="577.43658"
           cy="238.17114"
           rx="18.848076"
           ry="11.994229"
           inkscape:transform-center-x="70.680283"
           inkscape:transform-center-y="-20.200814" />
        <ellipse
           style="fill:#2f5d6b;fill-opacity:1;stroke:none;stroke-width:0.264999;stroke-dashoffset:10.0157"
           id="ellipse46299"
           cx="603.13849"
           cy="238.17114"
           rx="13.707691"
           ry="10.851922"
           inkscape:transform-center-x="51.403845"
           inkscape:transform-center-y="-18.276923" />
      </g>
      <circle
         style="fill:#eff389;fill-opacity:1;stroke:none;stroke-width:0.264999;stroke-dashoffset:10.0157"
         id="path46455"
         cx="648.25958"
         cy="89.67115"
         r="39.409615" />
      <circle
         style="fill:#eff389;fill-opacity:1;stroke:none;stroke-width:0.264999;stroke-dashoffset:10.0157;filter:url(#filter51965)"
         id="circle51963"
         cx="648.25964"
         cy="88.528839"
         r="39.409615" />
      <g
         id="g54614"
         transform="translate(2.2846153,-20.561538)">
        <g
           id="g52274">
          <ellipse
             style="fill:#ffffff;fill-opacity:1;stroke:none;stroke-width:0.264999;stroke-dashoffset:10.0157"
             id="path51994"
             cx="337.83453"
             cy="64.315781"
             rx="0.60580009"
             ry="2.5241671" />
          <ellipse
             style="fill:#ffffff;fill-opacity:1;stroke:none;stroke-width:0.264999;stroke-dashoffset:10.0157"
             id="ellipse52098"
             cx="64.315781"
             cy="-337.85202"
             rx="0.60580009"
             ry="2.5241671"
             transform="rotate(90)" />
        </g>
        <g
           id="g52280"
           style="filter:url(#filter52282)">
          <ellipse
             style="fill:#ffffff;fill-opacity:1;stroke:none;stroke-width:0.264999;stroke-dashoffset:10.0157"
             id="ellipse52276"
             cx="337.83453"
             cy="64.315781"
             rx="0.60580009"
             ry="2.5241671" />
          <ellipse
             style="fill:#ffffff;fill-opacity:1;stroke:none;stroke-width:0.264999;stroke-dashoffset:10.0157"
             id="ellipse52278"
             cx="64.315781"
             cy="-337.85202"
             rx="0.60580009"
             ry="2.5241671"
             transform="rotate(90)" />
        </g>
      </g>
      <use
         id="use54993"
         inkscape:spray-origin="#g54614"
         xlink:href="#g54614"
         x="0"
         y="0"
         width="100%"
         height="100%"
         transform="translate(-80.485466,-17.478824)" />
      <use
         id="use54995"
         inkscape:spray-origin="#g54614"
         xlink:href="#g54614"
         x="0"
         y="0"
         width="100%"
         height="100%"
         transform="translate(421.35862,110.15308)" />
      <use
         id="use54997"
         inkscape:spray-origin="#g54614"
         xlink:href="#g54614"
         x="0"
         y="0"
         width="100%"
         height="100%"
         transform="translate(230.10835,93.962977)" />
      <use
         id="use54999"
         inkscape:spray-origin="#g54614"
         xlink:href="#g54614"
         x="0"
         y="0"
         width="100%"
         height="100%"
         transform="translate(125.38497,-15.041461)" />
      <use
         id="use55001"
         inkscape:spray-origin="#g54614"
         xlink:href="#g54614"
         x="0"
         y="0"
         width="100%"
         height="100%"
         transform="translate(307.31379,135.65745)" />
      <use
         id="use55003"
         inkscape:spray-origin="#g54614"
         xlink:href="#g54614"
         x="0"
         y="0"
         width="100%"
         height="100%"
         transform="translate(360.55135,211.4987)" />
      <use
         id="use55005"
         inkscape:spray-origin="#g54614"
         xlink:href="#g54614"
         x="0"
         y="0"
         width="100%"
         height="100%"
         transform="translate(277.91697,209.19152)" />
      <use
         id="use55007"
         inkscape:spray-origin="#g54614"
         xlink:href="#g54614"
         x="0"
         y="0"
         width="100%"
         height="100%"
         transform="translate(392.86803,-7.7719601)" />
      <use
         id="use55009"
         inkscape:spray-origin="#g54614"
         xlink:href="#g54614"
         x="0"
         y="0"
         width="100%"
         height="100%"
         transform="translate(443.79261,34.107331)" />
      <use
         id="use55011"
         inkscape:spray-origin="#g54614"
         xlink:href="#g54614"
         x="0"
         y="0"
         width="100%"
         height="100%"
         transform="translate(494.6223,68.136195)" />
      <use
         id="use55013"
         inkscape:spray-origin="#g54614"
         xlink:href="#g54614"
         x="0"
         y="0"
         width="100%"
         height="100%"
         transform="translate(480.00207,118.39607)" />
      <use
         id="use55015"
         inkscape:spray-origin="#g54614"
         xlink:href="#g54614"
         x="0"
         y="0"
         width="100%"
         height="100%"
         transform="translate(256.19788,-53.133213)" />
      <use
         id="use55017"
         inkscape:spray-origin="#g54614"
         xlink:href="#g54614"
         x="0"
         y="0"
         width="100%"
         height="100%"
         transform="translate(64.25912,13.776789)" />
      <use
         id="use55019"
         inkscape:spray-origin="#g54614"
         xlink:href="#g54614"
         x="0"
         y="0"
         width="100%"
         height="100%"
         transform="translate(-19.67045,46.257095)" />
      <use
         id="use55021"
         inkscape:spray-origin="#g54614"
         xlink:href="#g54614"
         x="0"
         y="0"
         width="100%"
         height="100%"
         transform="translate(-163.37735,13.433794)" />
      <use
         id="use55025"
         inkscape:spray-origin="#g54614"
         xlink:href="#g54614"
         x="0"
         y="0"
         width="100%"
         height="100%"
         transform="translate(-333.8009,49.601784)" />
      <use
         id="use55027"
         inkscape:spray-origin="#g54614"
         xlink:href="#g54614"
         x="0"
         y="0"
         width="100%"
         height="100%"
         transform="translate(-299.72774,-9.596906)" />
      <use
         id="use55029"
         inkscape:spray-origin="#g54614"
         xlink:href="#g54614"
         x="0"
         y="0"
         width="100%"
         height="100%"
         transform="translate(-344.2203,51.8925)" />
      <use
         id="use55031"
         inkscape:spray-origin="#g54614"
         xlink:href="#g54614"
         x="0"
         y="0"
         width="100%"
         height="100%"
         transform="translate(-349.40678,74.816244)" />
      <use
         id="use55033"
         inkscape:spray-origin="#g54614"
         xlink:href="#g54614"
         x="0"
         y="0"
         width="100%"
         height="100%"
         transform="translate(-157.01967,65.894822)" />
      <use
         id="use55035"
         inkscape:spray-origin="#g54614"
         xlink:href="#g54614"
         x="0"
         y="0"
         width="100%"
         height="100%"
         transform="translate(209.33429,-15.233708)" />
      <use
         id="use55039"
         inkscape:spray-origin="#g54614"
         xlink:href="#g54614"
         x="0"
         y="0"
         width="100%"
         height="100%"
         transform="translate(-210.09757,-22.015916)" />
      <use
         id="use55041"
         inkscape:spray-origin="#g54614"
         xlink:href="#g54614"
         x="0"
         y="0"
         width="100%"
         height="100%"
         transform="translate(-183.31965,166.62862)" />
      <use
         id="use55043"
         inkscape:spray-origin="#g54614"
         xlink:href="#g54614"
         x="0"
         y="0"
         width="100%"
         height="100%"
         transform="translate(-76.107031,70.96578)" />
      <use
         id="use55045"
         inkscape:spray-origin="#g54614"
         xlink:href="#g54614"
         x="0"
         y="0"
         width="100%"
         height="100%"
         transform="translate(-188.11432,51.662617)" />
      <use
         id="use55049"
         inkscape:spray-origin="#g54614"
         xlink:href="#g54614"
         x="0"
         y="0"
         width="100%"
         height="100%"
         transform="translate(-331.52174,170.69968)" />
      <use
         id="use55051"
         inkscape:spray-origin="#g54614"
         xlink:href="#g54614"
         x="0"
         y="0"
         width="100%"
         height="100%"
         transform="translate(-255.87302,94.912228)" />
      <use
         id="use55053"
         inkscape:spray-origin="#g54614"
         xlink:href="#g54614"
         x="0"
         y="0"
         width="100%"
         height="100%"
         transform="translate(-322.14579,-29.963351)" />
      <use
         id="use55055"
         inkscape:spray-origin="#g54614"
         xlink:href="#g54614"
         x="0"
         y="0"
         width="100%"
         height="100%"
         transform="translate(-311.48879,119.61617)" />
      <use
         id="use55063"
         inkscape:spray-origin="#g54614"
         xlink:href="#g54614"
         x="0"
         y="0"
         width="100%"
         height="100%"
         transform="translate(-277.89304,55.729085)" />
      <use
         id="use55065"
         inkscape:spray-origin="#g54614"
         xlink:href="#g54614"
         x="0"
         y="0"
         width="100%"
         height="100%"
         transform="translate(-7.9946456,105.00557)" />
      <use
         id="use55067"
         inkscape:spray-origin="#g54614"
         xlink:href="#g54614"
         x="0"
         y="0"
         width="100%"
         height="100%"
         transform="translate(103.34318,42.790734)" />
      <use
         id="use55069"
         inkscape:spray-origin="#g54614"
         xlink:href="#g54614"
         x="0"
         y="0"
         width="100%"
         height="100%"
         transform="translate(170.35982,33.903624)" />
      <use
         id="use55071"
         inkscape:spray-origin="#g54614"
         xlink:href="#g54614"
         x="0"
         y="0"
         width="100%"
         height="100%"
         transform="translate(242.15551,36.944389)" />
      <use
         id="use55075"
         inkscape:spray-origin="#g54614"
         xlink:href="#g54614"
         x="0"
         y="0"
         width="100%"
         height="100%"
         transform="translate(498.84493,175.71887)" />
      <use
         id="use55077"
         inkscape:spray-origin="#g54614"
         xlink:href="#g54614"
         x="0"
         y="0"
         width="100%"
         height="100%"
         transform="translate(299.23628,-19.921601)" />
    </g>
  </g>
</svg>
