<?xml version="1.0" encoding="UTF-8" standalone="no"?>
<!-- Created with Inkscape (http://www.inkscape.org/) -->

<svg
   width="210mm"
   height="297mm"
   viewBox="0 0 210 297"
   version="1.1"
   id="svg51931"
   inkscape:version="1.1.1 (3bf5ae0d25, 2021-09-20)"
   sodipodi:docname="Building.svg"
   xmlns:inkscape="http://www.inkscape.org/namespaces/inkscape"
   xmlns:sodipodi="http://sodipodi.sourceforge.net/DTD/sodipodi-0.dtd"
   xmlns="http://www.w3.org/2000/svg"
   xmlns:svg="http://www.w3.org/2000/svg">
  <sodipodi:namedview
     id="namedview51933"
     pagecolor="#ffffff"
     bordercolor="#666666"
     borderopacity="1.0"
     inkscape:pageshadow="2"
     inkscape:pageopacity="0.0"
     inkscape:pagecheckerboard="0"
     inkscape:document-units="mm"
     showgrid="false"
     inkscape:zoom="0.50383782"
     inkscape:cx="199.46895"
     inkscape:cy="612.3002"
     inkscape:window-width="1366"
     inkscape:window-height="745"
     inkscape:window-x="-8"
     inkscape:window-y="-8"
     inkscape:window-maximized="1"
     inkscape:current-layer="layer1" />
  <defs
     id="defs51928">
    <linearGradient
       id="linearGradient9195"
       inkscape:swatch="solid">
      <stop
         style="stop-color:#f9f9f9;stop-opacity:1;"
         offset="0"
         id="stop9193" />
    </linearGradient>
    <linearGradient
       id="linearGradient3931"
       inkscape:swatch="solid">
      <stop
         style="stop-color:#ffd5d5;stop-opacity:1;"
         offset="0"
         id="stop3929" />
    </linearGradient>
  </defs>
  <g
     inkscape:label="Layer 1"
     inkscape:groupmode="layer"
     id="layer1">
    <g
       id="g160"
       inkscape:export-filename="D:\SEMESTER 5\GAME DESAIN\GAME TEAM DYNAMIXEL\Aset New\masjid.png"
       inkscape:export-xdpi="108.85713"
       inkscape:export-ydpi="108.85713"
       transform="matrix(0.46666665,0,0,0.50000001,11.622056,-43.462984)">
      <path
         id="rect51957"
         style="fill:#d4aa00;stroke-width:0.12891"
         d="m 34.397447,288.30843 c 19.482096,0 38.964193,0 58.44629,0 0,-20.76631 0,-41.53263 0,-62.29894 -19.482097,0 -38.964194,0 -58.44629,0 0,20.76631 0,41.53263 0,62.29894 z"
         inkscape:export-filename="D:\SEMESTER 5\GAME DESAIN\GAME TEAM DYNAMIXEL\Aset Game Petualangan Hafidzah\Masjid.png"
         inkscape:export-xdpi="96"
         inkscape:export-ydpi="96" />
      <path
         id="rect52127"
         style="fill:#ffcc00;stroke-width:0.1201"
         d="m 36.350344,288.30843 c 18.053894,0 36.107788,0 54.161682,0 0,-19.41169 0,-38.82339 0,-58.23508 -18.053894,0 -36.107788,0 -54.161682,0 0,19.41169 0,38.82339 0,58.23508 z"
         inkscape:export-filename="D:\SEMESTER 5\GAME DESAIN\GAME TEAM DYNAMIXEL\Aset Game Petualangan Hafidzah\Masjid.png"
         inkscape:export-xdpi="96"
         inkscape:export-ydpi="96" />
      <path
         id="rect52417"
         style="fill:#ffd42a;stroke-width:0.102906"
         d="m 41.015198,288.48555 c 14.897118,0 29.794236,0 44.691353,0 0,-17.18548 0,-34.37097 0,-51.55645 -14.897117,0 -29.794235,0 -44.691353,0 0,17.18548 0,34.37097 0,51.55645 z"
         inkscape:export-filename="D:\SEMESTER 5\GAME DESAIN\GAME TEAM DYNAMIXEL\Aset Game Petualangan Hafidzah\Masjid.png"
         inkscape:export-xdpi="96"
         inkscape:export-ydpi="96" />
      <path
         id="rect52437"
         style="fill:#d4aa00;stroke-width:0.12891"
         d="m 120.85009,288.11274 c 19.4821,0 38.9642,0 58.4463,0 0,-20.76688 0,-41.53375 0,-62.30063 -19.4821,0 -38.9642,0 -58.4463,0 0,20.76688 0,41.53375 0,62.30063 z"
         inkscape:export-filename="D:\SEMESTER 5\GAME DESAIN\GAME TEAM DYNAMIXEL\Aset Game Petualangan Hafidzah\Masjid.png"
         inkscape:export-xdpi="96"
         inkscape:export-ydpi="96" />
      <path
         id="rect52439"
         style="fill:#ffcc00;stroke-width:0.1201"
         d="m 122.80299,288.11274 c 18.0539,0 36.10779,0 54.16169,0 0,-19.41226 0,-38.82451 0,-58.23677 -18.0539,0 -36.10779,0 -54.16169,0 0,19.41226 0,38.82451 0,58.23677 z"
         inkscape:export-filename="D:\SEMESTER 5\GAME DESAIN\GAME TEAM DYNAMIXEL\Aset Game Petualangan Hafidzah\Masjid.png"
         inkscape:export-xdpi="96"
         inkscape:export-ydpi="96" />
      <path
         id="rect52441"
         style="fill:#ffd42a;stroke-width:0.102906"
         d="m 127.46784,288.28819 c 14.89712,0 29.79424,0 44.69135,0 0,-17.1855 0,-34.37098 0,-51.55647 -14.89711,0 -29.79423,0 -44.69135,0 0,17.18549 0,34.37097 0,51.55647 z"
         inkscape:export-filename="D:\SEMESTER 5\GAME DESAIN\GAME TEAM DYNAMIXEL\Aset Game Petualangan Hafidzah\Masjid.png"
         inkscape:export-xdpi="96"
         inkscape:export-ydpi="96" />
      <path
         id="rect52443"
         style="fill:#d4aa00;stroke-width:0.180282"
         d="m 65.574924,288.04358 c 27.471133,0 54.942266,-1e-5 82.413406,0 0,-29.03516 0,-58.07033 0,-87.10549 -27.47114,0 -54.942273,0 -82.413406,0 0,29.03516 0,58.07033 0,87.10549 z"
         inkscape:export-filename="D:\SEMESTER 5\GAME DESAIN\GAME TEAM DYNAMIXEL\Aset Game Petualangan Hafidzah\Masjid.png"
         inkscape:export-xdpi="96"
         inkscape:export-ydpi="96" />
      <path
         id="rect52445"
         style="fill:#ffcc00;stroke-width:0.167963"
         d="m 68.31845,288.04358 c 25.464667,-1e-5 50.92933,0 76.39401,0 0,-27.1486 0,-54.29719 0,-81.44579 -25.46468,0 -50.929343,0 -76.39401,0 0,27.1486 0,54.29719 0,81.44579 z"
         inkscape:export-filename="D:\SEMESTER 5\GAME DESAIN\GAME TEAM DYNAMIXEL\Aset Game Petualangan Hafidzah\Masjid.png"
         inkscape:export-xdpi="96"
         inkscape:export-ydpi="96" />
      <path
         id="rect52447"
         style="fill:#ffd42a;stroke-width:0.143916"
         d="m 74.871632,288.28819 c 21.03083,0 42.061658,0 63.092498,0 0,-24.04855 0,-48.0971 0,-72.14565 -21.03084,0 -42.061668,0 -63.092498,0 0,24.04855 0,48.0971 0,72.14565 z"
         inkscape:export-filename="D:\SEMESTER 5\GAME DESAIN\GAME TEAM DYNAMIXEL\Aset Game Petualangan Hafidzah\Masjid.png"
         inkscape:export-xdpi="96"
         inkscape:export-ydpi="96" />
      <path
         id="rect52471"
         style="fill:#784421;stroke-width:0.213525"
         d="m 31.675444,230.21505 c 11.284313,0 22.568628,0 33.852942,0 0,-1.40186 0,-2.8037 0,-4.20556 -11.284314,0 -22.568627,0 -33.852942,0 0,1.40186 0,2.8037 0,4.20556 z"
         inkscape:export-filename="D:\SEMESTER 5\GAME DESAIN\GAME TEAM DYNAMIXEL\Aset Game Petualangan Hafidzah\Masjid.png"
         inkscape:export-xdpi="96"
         inkscape:export-ydpi="96" />
      <path
         id="rect52897"
         style="fill:#784421;stroke-width:0.212608"
         d="m 148.11263,229.75788 c 11.1876,0 22.3752,0 33.56282,0 0,-1.40184 0,-2.8037 0,-4.20556 -11.18762,0 -22.37522,0 -33.56282,0 0,1.40186 0,2.80372 0,4.20556 z"
         inkscape:export-filename="D:\SEMESTER 5\GAME DESAIN\GAME TEAM DYNAMIXEL\Aset Game Petualangan Hafidzah\Masjid.png"
         inkscape:export-xdpi="96"
         inkscape:export-ydpi="96" />
      <path
         id="rect52899"
         style="fill:#784421;stroke-width:0.343746"
         d="m 62.388013,205.07785 c 29.675617,0 59.351237,0 89.026857,0 0,-1.40241 0,-2.80482 0,-4.20724 -29.67562,0 -59.35124,0 -89.026857,0 0,1.40242 0,2.80483 0,4.20724 z"
         inkscape:export-filename="D:\SEMESTER 5\GAME DESAIN\GAME TEAM DYNAMIXEL\Aset Game Petualangan Hafidzah\Masjid.png"
         inkscape:export-xdpi="96"
         inkscape:export-ydpi="96" />
      <path
         id="path53751"
         style="fill:#aa8800;stroke-width:0.148583"
         d="m 106.37627,111.60729 c -3.67442,7.23728 -8.94604,13.26488 -15.019428,17.70524 -6.97837,5.1774 -14.821486,8.36582 -22.545224,11.62063 -4.601573,2.00419 -9.319603,3.94472 -13.357636,7.30511 -2.66376,2.20463 -4.84965,5.39464 -5.584386,9.18277 -0.641398,3.0949 -0.446738,6.34289 0.06637,9.40508 0.632338,3.62487 1.684696,7.14156 2.959888,10.51583 4.828536,7.93672 9.657072,15.87344 14.485609,23.81016 13.372482,-0.10331 26.744965,-0.24652 40.117447,-0.32486 12.78285,0.10829 25.5657,0.21658 38.34855,0.32486 4.84279,-7.96014 9.68557,-15.92027 14.52835,-23.88042 1.6615,-4.57129 3.0844,-9.41307 3.35623,-14.33567 0.16011,-3.05681 -0.21741,-6.20355 -1.48785,-8.94708 -1.8495,-4.04686 -5.24953,-6.67853 -8.6638,-8.66503 -5.21424,-2.98669 -10.78224,-4.96988 -16.19168,-7.39049 -7.69131,-3.35465 -15.30357,-7.48307 -21.5587,-13.83975 -3.6492,-3.68585 -6.78411,-8.08428 -9.21699,-12.95872 -0.0789,0.15744 -0.15783,0.31489 -0.23675,0.47234 z"
         inkscape:export-filename="D:\SEMESTER 5\GAME DESAIN\GAME TEAM DYNAMIXEL\Aset Game Petualangan Hafidzah\Masjid.png"
         inkscape:export-xdpi="96"
         inkscape:export-ydpi="96" />
      <path
         id="path54549"
         style="fill:#aa8800;stroke-width:0.0400978"
         d="m 49.595893,201.12006 c 0.143571,0.33017 1.138389,-0.24099 0.442932,-0.12301 -0.147644,0.041 -0.295288,0.082 -0.442932,0.12301 z m 0.198016,1.35968 c -1.688574,3.11307 -4.459627,5.13809 -7.331201,6.45696 -1.962269,0.99218 -4.115937,1.59367 -5.84936,3.11869 -1.127912,0.95787 -1.542484,2.70093 -1.299347,4.26486 0.1824,1.24696 0.449847,2.52988 1.011799,3.61556 1.16997,2.02392 2.339941,4.04785 3.509912,6.07177 5.595563,-0.0541 11.191125,-0.12673 16.786687,-0.0319 1.18529,0.0106 2.370581,0.0213 3.555871,0.0319 1.243763,-2.1734 2.526507,-4.32264 3.746052,-6.51106 0.61068,-1.85925 1.227552,-4.0184 0.509856,-5.95716 -0.796809,-1.86481 -2.595959,-2.6132 -4.135342,-3.35499 -3.041998,-1.34558 -6.243846,-2.68886 -8.56064,-5.49473 -0.659941,-0.78708 -1.242002,-1.66379 -1.730487,-2.60802 -0.07127,0.13271 -0.142534,0.26541 -0.2138,0.39812 z"
         inkscape:export-filename="D:\SEMESTER 5\GAME DESAIN\GAME TEAM DYNAMIXEL\Aset Game Petualangan Hafidzah\Masjid.png"
         inkscape:export-xdpi="96"
         inkscape:export-ydpi="96" />
      <path
         id="path54551"
         style="fill:#aa8800;stroke-width:0.0400978"
         d="m 163.5168,201.64987 c -1.51876,2.97715 -4.02898,5.0942 -6.7234,6.42455 -2.12992,1.15938 -4.48626,1.77846 -6.45039,3.33389 -1.11159,0.85023 -1.71258,2.43348 -1.55346,3.97501 0.11292,1.36717 0.43476,2.73748 0.9728,3.95257 1.1975,2.07154 2.395,4.14309 3.5925,6.21464 5.57059,-0.0533 11.1412,-0.12717 16.71179,-0.0326 1.21025,0.0109 2.42051,0.0217 3.63077,0.0326 1.24751,-2.20233 2.57036,-4.35772 3.77058,-6.58952 0.60245,-1.83733 1.19693,-3.9752 0.48102,-5.88545 -0.78436,-1.83347 -2.54587,-2.58504 -4.06245,-3.31727 -3.0637,-1.35749 -6.29448,-2.69867 -8.62923,-5.52571 -0.66438,-0.76499 -1.24965,-1.73175 -1.74053,-2.58271 z"
         inkscape:export-filename="D:\SEMESTER 5\GAME DESAIN\GAME TEAM DYNAMIXEL\Aset Game Petualangan Hafidzah\Masjid.png"
         inkscape:export-xdpi="96"
         inkscape:export-ydpi="96" />
      <path
         id="path54553"
         style="fill:#ffff00;stroke-width:0.141938"
         d="m 102.46617,111.98348 c -3.165699,6.79885 -7.721348,12.69649 -13.129915,17.13757 -6.081676,5.06839 -13.053118,8.34086 -19.978297,11.43731 -4.472161,2.05748 -9.04676,3.96957 -13.069698,7.13442 -2.610629,2.05936 -4.870587,4.94161 -5.845777,8.51401 -0.583073,2.06175 -0.788026,4.39967 -0.69409,6.61923 0.202464,4.87217 1.480974,9.60728 3.013283,14.16764 0.588763,1.30624 1.387045,2.48303 2.058048,3.73845 3.815607,6.71221 7.631214,13.4244 11.446821,20.13659 12.362313,-0.10111 24.724625,-0.24483 37.086935,-0.3193 11.77317,0.10644 23.54632,0.21287 35.31949,0.3193 4.47324,-7.89074 8.98296,-15.75894 13.4334,-23.66377 1.45765,-4.29039 2.68302,-8.75244 3.0335,-13.37651 0.21977,-3.02552 -0.0311,-6.30641 -1.13364,-9.08405 -1.54214,-4.03308 -4.67385,-6.83079 -7.90853,-8.86504 -4.74741,-2.97791 -9.86248,-4.92487 -14.83937,-7.29875 -7.11058,-3.2861 -14.12438,-7.31971 -19.847,-13.37587 -3.59654,-3.76346 -6.61411,-8.28536 -8.94516,-13.22123 z"
         inkscape:export-filename="D:\SEMESTER 5\GAME DESAIN\GAME TEAM DYNAMIXEL\Aset Game Petualangan Hafidzah\Masjid.png"
         inkscape:export-xdpi="96"
         inkscape:export-ydpi="96" />
      <path
         id="path55384"
         style="fill:#ffd42a;stroke-width:0.26155"
         d="m 113.31085,88.588455 c -3.99013,0.702412 -8.15779,1.563296 -11.64309,4.14241 -2.389893,1.722649 -4.125557,4.632573 -4.626958,7.882935 -0.304363,1.82832 -0.377788,3.75183 -0.09211,5.65048 0.256873,1.73647 0.934347,3.55545 1.951013,4.9453 1.758145,2.43656 4.251505,3.81621 6.823885,4.64476 3.27593,1.04498 6.63312,1.256 10.0108,1.10518 -3.84571,-1.12353 -7.69054,-3.2703 -10.13086,-7.06451 -1.79351,-2.84975 -2.80646,-6.62277 -2.02991,-10.133907 0.84069,-3.713633 3.36333,-6.49594 6.01691,-8.531551 1.39423,-1.063996 2.8736,-1.967121 4.39759,-2.744 -0.22576,0.0343 -0.45151,0.0686 -0.67727,0.102903 z"
         inkscape:export-filename="D:\SEMESTER 5\GAME DESAIN\GAME TEAM DYNAMIXEL\Aset Game Petualangan Hafidzah\Masjid.png"
         inkscape:export-xdpi="96"
         inkscape:export-ydpi="96" />
      <path
         id="path57010"
         style="fill:#ffff00;stroke-width:0.0376959"
         d="m 48.214085,202.45781 c -1.407167,2.95495 -3.804546,5.06703 -6.402167,6.41924 -1.809456,1.04742 -3.858396,1.67511 -5.38122,3.30263 -1.200669,1.31475 -1.227324,3.43386 -0.867463,5.18458 0.222535,1.21076 0.54486,2.40423 1.168623,3.41752 0.890172,1.74194 1.780344,3.48387 2.670515,5.2258 5.017094,-0.0579 10.034189,-0.12469 15.051284,-0.029 0.950171,0.01 1.90034,0.0194 2.850511,0.029 1.098904,-2.19621 2.270896,-4.3522 3.324178,-6.57354 0.559447,-1.95409 1.116592,-4.2137 0.31903,-6.18653 -0.860266,-1.86928 -2.687495,-2.60667 -4.239057,-3.43351 -2.695871,-1.29412 -5.443018,-2.90138 -7.25409,-5.68601 -0.416724,-0.5888 -0.796883,-1.36889 -1.113873,-1.93841 -0.04209,0.0894 -0.08418,0.17882 -0.126271,0.26823 z"
         inkscape:export-filename="D:\SEMESTER 5\GAME DESAIN\GAME TEAM DYNAMIXEL\Aset Game Petualangan Hafidzah\Masjid.png"
         inkscape:export-xdpi="96"
         inkscape:export-ydpi="96" />
      <path
         id="path57102"
         style="fill:#ffff00;stroke-width:0.0376959"
         d="m 161.87098,201.7629 c -0.32842,0.58535 -0.71901,1.37833 -1.1491,1.98105 -1.81924,2.75378 -4.55448,4.33945 -7.23628,5.62911 -1.5473,0.82335 -3.37577,1.56761 -4.22021,3.4444 -0.78346,1.98247 -0.22219,4.24107 0.34271,6.19705 1.06287,2.20166 2.21589,4.35351 3.31341,6.53602 5.01662,-0.0579 10.03323,-0.1247 15.04985,-0.029 0.95065,0.01 1.9013,0.0193 2.85195,0.029 1.09891,-2.19622 2.27089,-4.3522 3.32418,-6.57354 0.55984,-1.95417 1.11592,-4.21333 0.31903,-6.18653 -0.85923,-1.86959 -2.68904,-2.6073 -4.23926,-3.43299 -2.69582,-1.29431 -5.44282,-2.90208 -7.25389,-5.68653 -0.40679,-0.61004 -0.77423,-1.25759 -1.08948,-1.93841 z"
         inkscape:export-filename="D:\SEMESTER 5\GAME DESAIN\GAME TEAM DYNAMIXEL\Aset Game Petualangan Hafidzah\Masjid.png"
         inkscape:export-xdpi="96"
         inkscape:export-ydpi="96" />
      <path
         id="rect57263"
         style="fill:#784421;stroke-width:0.190334"
         d="m 105.38906,218.67296 c -4.00732,2.02817 -7.920895,4.48197 -11.195068,7.94729 -3.223698,3.35496 -5.542625,7.83982 -6.683147,12.71274 -1.566409,6.56383 -1.581627,13.38366 -1.553421,20.16102 0.128603,9.59868 0.522842,19.19235 0.470881,28.79418 13.420607,0 26.841215,0 40.261815,0 -0.0589,-9.978 0.38697,-19.94662 0.47653,-29.92204 0.0131,-6.36368 -0.0762,-12.75096 -1.52845,-18.9158 -1.12488,-4.85749 -3.40397,-9.34639 -6.60135,-12.71 -3.25288,-3.48598 -7.161,-5.95812 -11.16009,-7.99244 -0.45916,-0.18995 -0.92357,-0.54226 -1.38467,-0.61369 -0.36768,0.17958 -0.73536,0.35916 -1.10303,0.53874 z"
         inkscape:export-filename="D:\SEMESTER 5\GAME DESAIN\GAME TEAM DYNAMIXEL\Aset Game Petualangan Hafidzah\Masjid.png"
         inkscape:export-xdpi="96"
         inkscape:export-ydpi="96" />
      <path
         id="path57563"
         style="fill:#784421;stroke-width:0.0827292"
         d="m 49.202731,261.22281 c -2.742506,1.22697 -5.609381,2.89611 -7.146526,5.98445 -1.144122,2.29932 -1.360309,5.0149 -1.422689,7.59041 -0.04489,4.41715 0.25074,8.82841 0.219539,13.24591 6.26142,-1e-5 12.522839,0 18.784259,0 -0.04499,-4.77423 0.340471,-9.54411 0.184689,-14.31728 -0.105976,-2.94644 -0.684733,-6.06964 -2.487702,-8.25407 -1.906381,-2.3518 -4.527046,-3.63408 -7.0884,-4.68465 -0.347723,0.14508 -0.695447,0.29015 -1.04317,0.43523 z"
         inkscape:export-filename="D:\SEMESTER 5\GAME DESAIN\GAME TEAM DYNAMIXEL\Aset Game Petualangan Hafidzah\Masjid.png"
         inkscape:export-xdpi="96"
         inkscape:export-ydpi="96" />
      <path
         id="path57645"
         style="fill:#784421;stroke-width:0.0827292"
         d="m 162.33301,261.22281 c -2.72099,1.21765 -5.56152,2.86647 -7.10972,5.9097 -1.17468,2.31237 -1.39718,5.06273 -1.45949,7.66516 -0.0446,4.41713 0.24911,8.82847 0.21954,13.24591 6.26141,-1e-5 12.52283,0 18.78425,0 -0.0449,-4.77423 0.34047,-9.54411 0.1847,-14.31728 -0.1058,-2.92589 -0.67576,-6.02679 -2.45201,-8.20855 -1.9061,-2.3809 -4.54746,-3.67269 -7.1241,-4.73017 -0.34772,0.14508 -0.69544,0.29015 -1.04317,0.43523 z"
         inkscape:export-filename="D:\SEMESTER 5\GAME DESAIN\GAME TEAM DYNAMIXEL\Aset Game Petualangan Hafidzah\Masjid.png"
         inkscape:export-xdpi="96"
         inkscape:export-ydpi="96" />
      <path
         id="path57831"
         style="fill:#ffd42a;stroke-width:0.19867"
         d="m 48.384838,189.98452 c -2.12115,0.3701 -4.115825,2.0035 -4.890995,4.3981 -0.695204,2.02935 -0.349354,4.43616 0.787883,6.15222 1.573309,2.36535 4.394868,3.35035 6.8348,2.5398 2.273788,-0.67937 4.225456,-3.01593 4.428308,-5.82116 0.336768,-2.98585 -1.471721,-5.87403 -3.824421,-6.84799 -1.062015,-0.48435 -2.211002,-0.5875 -3.335575,-0.42097 z"
         inkscape:export-filename="D:\SEMESTER 5\GAME DESAIN\GAME TEAM DYNAMIXEL\Aset Game Petualangan Hafidzah\Masjid.png"
         inkscape:export-xdpi="96"
         inkscape:export-ydpi="96" />
      <path
         id="ellipse57913"
         style="fill:#ffd42a;stroke-width:0.19867"
         d="m 161.617,189.43458 c -2.09147,0.37143 -4.06637,1.9651 -4.85079,4.31933 -0.83399,2.29765 -0.28504,5.11503 1.23019,6.84219 1.8462,2.23018 4.89204,2.80726 7.29017,1.5457 2.00125,-0.99925 3.51155,-3.36195 3.53818,-5.95629 0.0923,-3.00846 -1.8796,-5.71215 -4.28809,-6.49959 -0.9467,-0.35249 -1.93966,-0.38891 -2.91966,-0.25134 z"
         inkscape:export-filename="D:\SEMESTER 5\GAME DESAIN\GAME TEAM DYNAMIXEL\Aset Game Petualangan Hafidzah\Masjid.png"
         inkscape:export-xdpi="96"
         inkscape:export-ydpi="96" />
    </g>
    <g
       id="g15545"
       inkscape:export-filename="D:\SEMESTER 5\GAME DESAIN\GAME TEAM DYNAMIXEL\Aset New\Rumah 2.png"
       inkscape:export-xdpi="96"
       inkscape:export-ydpi="96"
       transform="translate(33.608698,11.55299)">
      <rect
         style="fill:#d40000;stroke-width:0.110195"
         id="rect3703"
         width="53.93047"
         height="54.534863"
         x="0.70407552"
         y="129.4902"
         rx="20.045923"
         ry="27.267431" />
      <rect
         style="fill:#ff0000;stroke-width:0.0991754"
         id="rect3705"
         width="48.537422"
         height="49.081375"
         x="3.5163004"
         y="132.11948"
         rx="19.070131"
         ry="24.54068" />
      <ellipse
         style="fill:#ffffff;stroke-width:0.203236"
         id="ellipse3707"
         cx="11.722257"
         cy="142.19124"
         rx="3.5753009"
         ry="3.551096" />
      <ellipse
         style="fill:#ffffff;stroke-width:0.130786"
         id="ellipse3709"
         cx="17.986549"
         cy="138.24162"
         rx="2.2881925"
         ry="2.2977679" />
      <path
         id="path212"
         style="fill:#338000;stroke-width:0.740828"
         d="m 29.410349,112.19052 c -0.929334,3.65983 -1.857361,7.3204 -2.787528,10.97976 -3.054313,-1.91311 -6.332372,-3.2359 -9.516793,-2.64951 -1.13264,0.16196 -2.41449,0.66143 -2.744253,2.20355 -0.315872,1.42509 0.608167,2.89551 1.392286,3.93088 1.600044,1.85381 3.566805,3.06612 5.517076,3.99345 4.043477,1.7818 8.386378,1.46013 11.979564,-0.599 2.437868,-1.47719 4.582837,-3.809 5.858192,-6.896 0.525003,-1.35437 0.569792,-3.51888 -0.701847,-4.51333 -1.619913,-1.23797 -3.455722,-0.65204 -5.022739,-0.13961 -1.755675,0.67561 -3.273607,1.94638 -4.812395,3.1236 0.743732,-2.92193 1.485206,-5.84512 2.227884,-8.76763 -0.451691,-0.24664 -0.920357,-0.61592 -1.389457,-0.66615 z"
         inkscape:export-filename="D:\SEMESTER 5\GAME DESAIN\NEW\Player.png"
         inkscape:export-xdpi="96"
         inkscape:export-ydpi="96" />
      <rect
         style="fill:#800000;stroke-width:0.276796"
         id="rect5584-0"
         width="13.050834"
         height="19.911045"
         x="21.328966"
         y="163.90718"
         rx="6.2558355"
         ry="4.0171447" />
      <circle
         style="fill:#800000;stroke-width:0.205215"
         id="ellipse5916-3"
         cx="13.539521"
         cy="164.51379"
         r="6.2931867" />
      <circle
         style="fill:#afdde9;stroke-width:0.177853"
         id="path5798-5"
         cx="13.502748"
         cy="164.47701"
         r="5.4540954" />
      <ellipse
         style="fill:#d5f6ff;fill-opacity:1;stroke-width:0.236978"
         id="ellipse915-6"
         cx="-119.4348"
         cy="-156.35201"
         rx="0.57546157"
         ry="4.1326375"
         transform="matrix(-0.93286302,-0.3602313,0.63062225,-0.77608993,0,0)" />
      <ellipse
         style="fill:#d7f4ee;fill-opacity:1;stroke-width:0.159376"
         id="ellipse6148-9"
         cx="-119.62575"
         cy="-155.51263"
         rx="0.38532004"
         ry="2.791595"
         transform="matrix(-0.93058711,-0.36607054,0.6235748,-0.78176369,0,0)" />
      <rect
         style="fill:#d45500;fill-opacity:1;stroke-width:0.0420975"
         id="rect6150-2"
         width="1.8129225"
         height="3.6505699"
         x="31.077911"
         y="172.21045"
         rx="1.9078894e-15"
         ry="0.58102638" />
      <circle
         style="fill:#800000;stroke-width:0.205215"
         id="circle7208-5"
         cx="42.159546"
         cy="164.88512"
         r="6.2931867" />
      <circle
         style="fill:#afdde9;stroke-width:0.177853"
         id="circle7210-2"
         cx="42.122765"
         cy="164.84833"
         r="5.4540954" />
      <ellipse
         style="fill:#d7f4ee;fill-opacity:1;stroke-width:0.246018"
         id="ellipse7212-6"
         cx="-140.10237"
         cy="-143.50934"
         rx="0.59243357"
         ry="4.3263292"
         transform="matrix(-0.92849255,-0.37135104,0.61724971,-0.78676731,0,0)" />
      <ellipse
         style="fill:#d7f4ee;fill-opacity:1;stroke-width:0.168562"
         id="ellipse7214-9"
         cx="-147.23737"
         cy="-148.04126"
         rx="0.41155824"
         ry="2.9235957"
         transform="matrix(-0.9356159,-0.35301967,0.6394019,-0.76887269,0,0)" />
      <path
         id="path15191"
         style="fill:#44aa00;stroke-width:0.634002"
         d="m 28.934269,115.16832 c -0.802432,3.10435 -1.603736,6.20933 -2.406887,9.31329 -2.637243,-1.62275 -5.467679,-2.74477 -8.217263,-2.24738 -0.977977,0.13738 -2.084789,0.56104 -2.369522,1.8691 -0.272739,1.2088 0.525121,2.45604 1.202168,3.33427 1.381556,1.57244 3.079753,2.60075 4.763712,3.38733 3.491335,1.51137 7.241208,1.23852 10.34374,-0.50808 2.104974,-1.25299 3.957044,-3.23088 5.058248,-5.84935 0.453313,-1.14881 0.491986,-2.98479 -0.606009,-3.82831 -1.398712,-1.05007 -2.983839,-0.55307 -4.336878,-0.11842 -1.515935,0.57307 -2.826591,1.65096 -4.155256,2.64951 0.642174,-2.47845 1.282399,-4.95797 1.923664,-7.43691 -0.390012,-0.2092 -0.794681,-0.52243 -1.199725,-0.56504 z"
         inkscape:export-filename="D:\SEMESTER 5\GAME DESAIN\NEW\Player.png"
         inkscape:export-xdpi="96"
         inkscape:export-ydpi="96" />
    </g>
    <g
       id="g15599"
       transform="translate(63.01631,12.078126)"
       inkscape:export-filename="D:\SEMESTER 5\GAME DESAIN\GAME TEAM DYNAMIXEL\Aset New\Rumah 3.png"
       inkscape:export-xdpi="96"
       inkscape:export-ydpi="96">
      <rect
         style="fill:#d4aa00;stroke-width:0.110195"
         id="rect15283"
         width="53.93047"
         height="54.534863"
         x="64.943672"
         y="128.37622"
         rx="20.045923"
         ry="27.267431" />
      <rect
         style="fill:#ffcc00;stroke-width:0.0991754"
         id="rect15285"
         width="48.537422"
         height="49.081375"
         x="67.755898"
         y="131.00549"
         rx="19.070131"
         ry="24.54068" />
      <ellipse
         style="fill:#ffffff;stroke-width:0.203236"
         id="ellipse15287"
         cx="75.961853"
         cy="141.07726"
         rx="3.5753009"
         ry="3.551096" />
      <ellipse
         style="fill:#ffffff;stroke-width:0.130786"
         id="ellipse15289"
         cx="82.226151"
         cy="137.12764"
         rx="2.2881925"
         ry="2.2977679" />
      <path
         id="path15291"
         style="fill:#338000;stroke-width:0.740828"
         d="m 93.649949,111.07654 c -0.929334,3.65983 -1.857361,7.3204 -2.787528,10.97976 -3.054313,-1.91311 -6.332372,-3.2359 -9.516793,-2.64951 -1.13264,0.16196 -2.41449,0.66143 -2.744253,2.20355 -0.315872,1.42509 0.608167,2.89551 1.392286,3.93088 1.600044,1.85381 3.566805,3.06612 5.517076,3.99345 4.043477,1.7818 8.386378,1.46013 11.979564,-0.599 2.437868,-1.47719 4.582839,-3.809 5.858189,-6.896 0.52501,-1.35437 0.56979,-3.51888 -0.70184,-4.51333 -1.61992,-1.23797 -3.455726,-0.65204 -5.022743,-0.13961 -1.755675,0.67561 -3.273607,1.94638 -4.812395,3.1236 0.743732,-2.92193 1.485206,-5.84512 2.227884,-8.76763 -0.451691,-0.24664 -0.920357,-0.61592 -1.389457,-0.66615 z"
         inkscape:export-filename="D:\SEMESTER 5\GAME DESAIN\NEW\Player.png"
         inkscape:export-xdpi="96"
         inkscape:export-ydpi="96" />
      <rect
         style="fill:#806600;stroke-width:0.276796"
         id="rect15293"
         width="13.050834"
         height="19.911045"
         x="85.568565"
         y="162.7932"
         rx="6.2558355"
         ry="4.0171447" />
      <circle
         style="fill:#806600;stroke-width:0.205215"
         id="circle15295"
         cx="77.779121"
         cy="163.39981"
         r="6.2931867" />
      <circle
         style="fill:#afdde9;stroke-width:0.177853"
         id="circle15297"
         cx="77.742348"
         cy="163.36302"
         r="5.4540954" />
      <ellipse
         style="fill:#d5f6ff;fill-opacity:1;stroke-width:0.236978"
         id="ellipse15299"
         cx="-171.11217"
         cy="-130.92998"
         rx="0.57546157"
         ry="4.1326375"
         transform="matrix(-0.93286302,-0.3602313,0.63062225,-0.77608993,0,0)" />
      <ellipse
         style="fill:#d7f4ee;fill-opacity:1;stroke-width:0.159376"
         id="ellipse15301"
         cx="-171.44308"
         cy="-129.82358"
         rx="0.38532004"
         ry="2.791595"
         transform="matrix(-0.93058711,-0.36607054,0.6235748,-0.78176369,0,0)" />
      <rect
         style="fill:#d45500;fill-opacity:1;stroke-width:0.0420975"
         id="rect15303"
         width="1.8129225"
         height="3.6505699"
         x="95.317513"
         y="171.09647"
         rx="1.9078894e-15"
         ry="0.58102638" />
      <circle
         style="fill:#554400;stroke-width:0.205215"
         id="circle15305"
         cx="106.39915"
         cy="163.77113"
         r="6.2931867" />
      <circle
         style="fill:#afdde9;stroke-width:0.177853"
         id="circle15307"
         cx="106.36237"
         cy="163.73434"
         r="5.4540954" />
      <ellipse
         style="fill:#d7f4ee;fill-opacity:1;stroke-width:0.246018"
         id="ellipse15309"
         cx="-192.04857"
         cy="-117.57505"
         rx="0.59243357"
         ry="4.3263292"
         transform="matrix(-0.92849255,-0.37135104,0.61724971,-0.78676731,0,0)" />
      <ellipse
         style="fill:#d7f4ee;fill-opacity:1;stroke-width:0.168562"
         id="ellipse15311"
         cx="-198.74541"
         cy="-122.94305"
         rx="0.41155824"
         ry="2.9235957"
         transform="matrix(-0.9356159,-0.35301967,0.6394019,-0.76887269,0,0)" />
      <path
         id="path15313"
         style="fill:#44aa00;stroke-width:0.634002"
         d="m 93.173869,114.05434 c -0.802432,3.10435 -1.603736,6.20933 -2.406887,9.31329 -2.637243,-1.62275 -5.467679,-2.74477 -8.217263,-2.24738 -0.977977,0.13738 -2.084789,0.56104 -2.369522,1.8691 -0.272739,1.2088 0.525121,2.45604 1.202168,3.33427 1.381556,1.57244 3.079753,2.60075 4.763712,3.38733 3.491335,1.51137 7.241208,1.23852 10.34374,-0.50808 2.104974,-1.25299 3.957043,-3.23088 5.058253,-5.84935 0.45331,-1.14881 0.49198,-2.98479 -0.60601,-3.82831 -1.398716,-1.05007 -2.983843,-0.55307 -4.336882,-0.11842 -1.515935,0.57307 -2.826591,1.65096 -4.155256,2.64951 0.642174,-2.47845 1.282399,-4.95797 1.923664,-7.43691 -0.390012,-0.2092 -0.794681,-0.52243 -1.199725,-0.56504 z"
         inkscape:export-filename="D:\SEMESTER 5\GAME DESAIN\NEW\Player.png"
         inkscape:export-xdpi="96"
         inkscape:export-ydpi="96" />
    </g>
    <g
       id="g16055"
       transform="translate(-53.563863,17.854621)"
       inkscape:export-filename="D:\SEMESTER 5\GAME DESAIN\GAME TEAM DYNAMIXEL\Aset New\Rumah 4.png"
       inkscape:export-xdpi="96"
       inkscape:export-ydpi="96">
      <rect
         style="fill:#88aa00;stroke-width:0.110195"
         id="rect15681"
         width="53.93047"
         height="54.534863"
         x="87.524513"
         y="213.97337"
         rx="20.045923"
         ry="27.267431" />
      <rect
         style="fill:#aad400;stroke-width:0.0991754"
         id="rect15683"
         width="48.537422"
         height="49.081375"
         x="90.336739"
         y="216.60265"
         rx="19.070131"
         ry="24.54068" />
      <ellipse
         style="fill:#ffffff;stroke-width:0.203236"
         id="ellipse15685"
         cx="98.542694"
         cy="226.67441"
         rx="3.5753009"
         ry="3.551096" />
      <ellipse
         style="fill:#ffffff;stroke-width:0.130786"
         id="ellipse15687"
         cx="104.80699"
         cy="222.72479"
         rx="2.2881925"
         ry="2.2977679" />
      <path
         id="path15689"
         style="fill:#338000;stroke-width:0.740828"
         d="m 116.23079,196.67369 c -0.92933,3.65983 -1.85736,7.3204 -2.78752,10.97976 -3.05432,-1.91311 -6.33238,-3.2359 -9.5168,-2.64951 -1.13264,0.16196 -2.41449,0.66143 -2.74425,2.20355 -0.31587,1.42509 0.60817,2.89551 1.39229,3.93088 1.60004,1.85381 3.5668,3.06612 5.51707,3.99345 4.04348,1.7818 8.38638,1.46013 11.97957,-0.599 2.43786,-1.47719 4.58283,-3.809 5.85818,-6.896 0.52501,-1.35437 0.56979,-3.51888 -0.70184,-4.51333 -1.61992,-1.23797 -3.45572,-0.65204 -5.02274,-0.13961 -1.75567,0.67561 -3.27361,1.94638 -4.81239,3.1236 0.74373,-2.92193 1.4852,-5.84512 2.22788,-8.76763 -0.45169,-0.24664 -0.92036,-0.61592 -1.38946,-0.66615 z"
         inkscape:export-filename="D:\SEMESTER 5\GAME DESAIN\NEW\Player.png"
         inkscape:export-xdpi="96"
         inkscape:export-ydpi="96" />
      <rect
         style="fill:#668000;stroke-width:0.276796"
         id="rect15691"
         width="13.050834"
         height="19.911045"
         x="108.14941"
         y="248.39035"
         rx="6.2558355"
         ry="4.0171447" />
      <circle
         style="fill:#668000;stroke-width:0.205215"
         id="circle15693"
         cx="100.35996"
         cy="248.99696"
         r="6.2931867" />
      <circle
         style="fill:#afdde9;stroke-width:0.177853"
         id="circle15695"
         cx="100.32319"
         cy="248.96017"
         r="5.4540954" />
      <ellipse
         style="fill:#d5f6ff;fill-opacity:1;stroke-width:0.236978"
         id="ellipse15697"
         cx="-246.28835"
         cy="-206.32889"
         rx="0.57546157"
         ry="4.1326375"
         transform="matrix(-0.93286302,-0.3602313,0.63062225,-0.77608993,0,0)" />
      <ellipse
         style="fill:#d7f4ee;fill-opacity:1;stroke-width:0.159376"
         id="ellipse15699"
         cx="-245.75908"
         cy="-204.51656"
         rx="0.38532004"
         ry="2.791595"
         transform="matrix(-0.93058711,-0.36607054,0.6235748,-0.78176369,0,0)" />
      <rect
         style="fill:#d45500;fill-opacity:1;stroke-width:0.0420975"
         id="rect15701"
         width="1.8129225"
         height="3.6505699"
         x="117.89835"
         y="256.69363"
         rx="1.9078894e-15"
         ry="0.58102638" />
      <circle
         style="fill:#668000;stroke-width:0.205215"
         id="circle15703"
         cx="128.98"
         cy="249.36829"
         r="6.2931867" />
      <circle
         style="fill:#afdde9;stroke-width:0.177853"
         id="circle15705"
         cx="128.94322"
         cy="249.3315"
         r="5.4540954" />
      <ellipse
         style="fill:#d7f4ee;fill-opacity:1;stroke-width:0.246018"
         id="ellipse15707"
         cx="-265.61212"
         cy="-191.64937"
         rx="0.59243357"
         ry="4.3263292"
         transform="matrix(-0.92849255,-0.37135104,0.61724971,-0.78676731,0,0)" />
      <ellipse
         style="fill:#d7f4ee;fill-opacity:1;stroke-width:0.168562"
         id="ellipse15709"
         cx="-275.0267"
         cy="-199.24742"
         rx="0.41155824"
         ry="2.9235957"
         transform="matrix(-0.9356159,-0.35301967,0.6394019,-0.76887269,0,0)" />
      <path
         id="path15711"
         style="fill:#44aa00;stroke-width:0.634002"
         d="m 115.75471,199.65149 c -0.80243,3.10435 -1.60373,6.20933 -2.40688,9.31329 -2.63725,-1.62275 -5.46768,-2.74477 -8.21727,-2.24738 -0.97797,0.13738 -2.08479,0.56104 -2.36952,1.8691 -0.27274,1.2088 0.52512,2.45604 1.20217,3.33427 1.38155,1.57244 3.07975,2.60075 4.76371,3.38733 3.49134,1.51137 7.24121,1.23852 10.34374,-0.50808 2.10497,-1.25299 3.95704,-3.23088 5.05825,-5.84935 0.45331,-1.14881 0.49198,-2.98479 -0.60601,-3.82831 -1.39871,-1.05007 -2.98384,-0.55307 -4.33688,-0.11842 -1.51593,0.57307 -2.82659,1.65096 -4.15525,2.64951 0.64217,-2.47845 1.28239,-4.95797 1.92366,-7.43691 -0.39001,-0.2092 -0.79468,-0.52243 -1.19973,-0.56504 z"
         inkscape:export-filename="D:\SEMESTER 5\GAME DESAIN\NEW\Player.png"
         inkscape:export-xdpi="96"
         inkscape:export-ydpi="96" />
    </g>
    <g
       id="g16509"
       inkscape:export-filename="D:\SEMESTER 5\GAME DESAIN\GAME TEAM DYNAMIXEL\Aset New\Rumah 1.png"
       inkscape:export-xdpi="96"
       inkscape:export-ydpi="96"
       transform="translate(118.68071,-180.12162)">
      <rect
         style="fill:#ff5555;stroke-width:0.110195"
         id="rect16057"
         width="53.93047"
         height="54.534863"
         x="10.48806"
         y="228.59792"
         rx="20.045923"
         ry="27.267431" />
      <rect
         style="fill:#ff8080;stroke-width:0.0991754"
         id="rect16059"
         width="48.537422"
         height="49.081375"
         x="13.300285"
         y="231.22719"
         rx="19.070131"
         ry="24.54068" />
      <ellipse
         style="fill:#ffffff;stroke-width:0.203236"
         id="ellipse16061"
         cx="21.506241"
         cy="241.29895"
         rx="3.5753009"
         ry="3.551096" />
      <ellipse
         style="fill:#ffffff;stroke-width:0.130786"
         id="ellipse16063"
         cx="27.770546"
         cy="237.34933"
         rx="2.2881925"
         ry="2.2977679" />
      <path
         id="path16065"
         style="fill:#338000;stroke-width:0.740828"
         d="m 39.194332,211.29822 c -0.92933,3.65983 -1.85736,7.3204 -2.78752,10.97976 -3.05432,-1.91311 -6.33238,-3.2359 -9.5168,-2.64951 -1.132636,0.16196 -2.414486,0.66143 -2.744246,2.20355 -0.31587,1.42509 0.60817,2.89551 1.39229,3.93088 1.600036,1.85381 3.566796,3.06612 5.517066,3.99345 4.04348,1.7818 8.38638,1.46013 11.97957,-0.599 2.43786,-1.47719 4.58283,-3.809 5.85818,-6.896 0.52501,-1.35437 0.56979,-3.51888 -0.70184,-4.51333 -1.61992,-1.23797 -3.45572,-0.65204 -5.02274,-0.13961 -1.75567,0.67561 -3.27361,1.94638 -4.81239,3.1236 0.74373,-2.92193 1.4852,-5.84512 2.22788,-8.76763 -0.45169,-0.24664 -0.92036,-0.61592 -1.38946,-0.66615 z"
         inkscape:export-filename="D:\SEMESTER 5\GAME DESAIN\NEW\Player.png"
         inkscape:export-xdpi="96"
         inkscape:export-ydpi="96" />
      <rect
         style="fill:#aa0000;stroke-width:0.276796"
         id="rect16067"
         width="13.050834"
         height="19.911045"
         x="31.112953"
         y="263.01486"
         rx="6.2558355"
         ry="4.0171447" />
      <circle
         style="fill:#aa0000;stroke-width:0.205215"
         id="circle16069"
         cx="23.323509"
         cy="263.62149"
         r="6.2931867" />
      <circle
         style="fill:#afdde9;stroke-width:0.177853"
         id="circle16071"
         cx="23.286736"
         cy="263.58469"
         r="5.4540954" />
      <ellipse
         style="fill:#d5f6ff;fill-opacity:1;stroke-width:0.236978"
         id="ellipse16073"
         cx="-193.12704"
         cy="-249.84821"
         rx="0.57546157"
         ry="4.1326375"
         transform="matrix(-0.93286302,-0.3602313,0.63062225,-0.77608993,0,0)" />
      <ellipse
         style="fill:#d7f4ee;fill-opacity:1;stroke-width:0.159376"
         id="ellipse16075"
         cx="-192.28938"
         cy="-248.26151"
         rx="0.38532004"
         ry="2.791595"
         transform="matrix(-0.93058711,-0.36607054,0.6235748,-0.78176369,0,0)" />
      <rect
         style="fill:#d45500;fill-opacity:1;stroke-width:0.0420975"
         id="rect16077"
         width="1.8129225"
         height="3.6505699"
         x="40.8619"
         y="271.31815"
         rx="1.9078894e-15"
         ry="0.58102638" />
      <circle
         style="fill:#aa0000;stroke-width:0.205215"
         id="circle16079"
         cx="51.943542"
         cy="263.9928"
         r="6.2931867" />
      <circle
         style="fill:#afdde9;stroke-width:0.177853"
         id="circle16081"
         cx="51.906769"
         cy="263.95602"
         r="5.4540954" />
      <ellipse
         style="fill:#d7f4ee;fill-opacity:1;stroke-width:0.246018"
         id="ellipse16083"
         cx="-211.86462"
         cy="-235.60611"
         rx="0.59243357"
         ry="4.3263292"
         transform="matrix(-0.92849255,-0.37135104,0.61724971,-0.78676731,0,0)" />
      <ellipse
         style="fill:#d7f4ee;fill-opacity:1;stroke-width:0.168562"
         id="ellipse16085"
         cx="-222.24843"
         cy="-242.50075"
         rx="0.41155824"
         ry="2.9235957"
         transform="matrix(-0.9356159,-0.35301967,0.6394019,-0.76887269,0,0)" />
      <path
         id="path16087"
         style="fill:#44aa00;stroke-width:0.634002"
         d="m 38.718252,214.27602 c -0.80243,3.10435 -1.60373,6.20933 -2.40688,9.31329 -2.63725,-1.62275 -5.46768,-2.74477 -8.21727,-2.24738 -0.97797,0.13738 -2.084786,0.56104 -2.369516,1.8691 -0.27274,1.2088 0.52512,2.45604 1.202166,3.33427 1.38155,1.57244 3.07975,2.60075 4.76371,3.38733 3.49134,1.51137 7.24121,1.23852 10.34374,-0.50808 2.10497,-1.25299 3.95704,-3.23088 5.05825,-5.84935 0.45331,-1.14881 0.49198,-2.98479 -0.60601,-3.82831 -1.39871,-1.05007 -2.98384,-0.55307 -4.33688,-0.11842 -1.51593,0.57307 -2.82659,1.65096 -4.15525,2.64951 0.64217,-2.47845 1.28239,-4.95797 1.92366,-7.43691 -0.39001,-0.2092 -0.79468,-0.52243 -1.19973,-0.56504 z"
         inkscape:export-filename="D:\SEMESTER 5\GAME DESAIN\NEW\Player.png"
         inkscape:export-xdpi="96"
         inkscape:export-ydpi="96" />
    </g>
  </g>
</svg>
