<?xml version="1.0" encoding="UTF-8" standalone="no"?>
<!-- Created with Inkscape (http://www.inkscape.org/) -->

<svg
   width="210mm"
   height="297mm"
   viewBox="0 0 210 297"
   version="1.1"
   id="svg57946"
   inkscape:version="1.1.1 (3bf5ae0d25, 2021-09-20)"
   sodipodi:docname="Road.svg"
   xmlns:inkscape="http://www.inkscape.org/namespaces/inkscape"
   xmlns:sodipodi="http://sodipodi.sourceforge.net/DTD/sodipodi-0.dtd"
   xmlns="http://www.w3.org/2000/svg"
   xmlns:svg="http://www.w3.org/2000/svg">
  <sodipodi:namedview
     id="namedview57948"
     pagecolor="#ffffff"
     bordercolor="#666666"
     borderopacity="1.0"
     inkscape:pageshadow="2"
     inkscape:pageopacity="0.0"
     inkscape:pagecheckerboard="0"
     inkscape:document-units="mm"
     showgrid="false"
     inkscape:zoom="0.50383782"
     inkscape:cx="270.92051"
     inkscape:cy="292.75293"
     inkscape:window-width="1366"
     inkscape:window-height="745"
     inkscape:window-x="-8"
     inkscape:window-y="-8"
     inkscape:window-maximized="1"
     inkscape:current-layer="layer1" />
  <defs
     id="defs57943" />
  <g
     inkscape:label="Layer 1"
     inkscape:groupmode="layer"
     id="layer1">
    <g
       id="g4235"
       inkscape:export-filename="D:\SEMESTER 5\GAME DESAIN\GAME TEAM DYNAMIXEL\g4235.png"
       inkscape:export-xdpi="44.351543"
       inkscape:export-ydpi="44.351543">
      <path
         id="rect57972"
         style="fill:#005500;stroke-width:0.264583"
         d="m 3.7298174,51.611193 c 16.3137986,0 32.6276016,0 48.9414036,0 0,-16.313802 0,-32.627604 0,-48.9414018 -16.313802,0 -32.627605,0 -48.9414036,0 0,16.3137978 0,32.6275998 0,48.9414018 z"
         inkscape:export-filename="D:\SEMESTER 5\GAME DESAIN\NEW\Grass.png"
         inkscape:export-xdpi="96"
         inkscape:export-ydpi="96" />
      <path
         id="rect58434"
         style="fill:#008000;stroke-width:0.207558"
         d="m 23.204424,16.388537 c -0.118725,0.60791 -0.163742,1.516893 -0.6703,0.540647 -1.871483,-2.285913 -3.74185,-4.572741 -5.612903,-6.859006 -1.589646,2.318495 -3.18109,4.635758 -4.769532,6.955078 C 9.3442246,13.001288 6.5371361,8.9770596 3.7298174,4.952993 c 0,5.072914 0,10.14583 0,15.218747 16.3137986,0 32.6276016,0 48.9414036,0 0,-5.083984 0,-10.167969 0,-15.25195 -2.652589,3.7075049 -5.30318,7.416442 -7.957032,11.123044 C 42.124556,13.111083 39.533064,10.180974 36.942705,7.2498668 35.925117,11.014185 34.907627,14.778532 33.889971,18.542834 31.206572,13.635592 28.526951,8.7262849 25.845049,3.8182276 24.96484,8.0083302 24.084632,12.198433 23.204424,16.388537 Z"
         inkscape:export-filename="D:\SEMESTER 5\GAME DESAIN\NEW\Grass.png"
         inkscape:export-xdpi="96"
         inkscape:export-ydpi="96" />
      <path
         id="path59546"
         style="fill:#00aa00;stroke-width:0.207558"
         d="m 23.204424,20.093615 c -0.118725,0.60791 -0.163742,1.516893 -0.6703,0.540647 -1.871483,-2.285913 -3.74185,-4.572741 -5.612903,-6.859006 -1.589646,2.318495 -3.18109,4.635758 -4.769532,6.955078 C 9.3442246,16.706366 6.5371361,12.682138 3.7298174,8.6580689 c 0,5.0722651 0,10.1445301 0,15.2167961 16.3137986,0 32.6276016,0 48.9414036,0 0,-5.083333 0,-10.166667 0,-15.2499991 -2.652589,3.7075061 -5.30318,7.4164441 -7.957032,11.1230461 -2.589747,-2.9323 -5.181107,-5.863177 -7.771484,-8.794922 -1.017602,3.764968 -2.034962,7.530001 -3.052734,11.294922 C 31.206572,17.34067 28.526951,12.431363 25.845049,7.5233045 24.96484,11.713407 24.084632,15.903511 23.204424,20.093615 Z"
         inkscape:export-filename="D:\SEMESTER 5\GAME DESAIN\NEW\Grass.png"
         inkscape:export-xdpi="96"
         inkscape:export-ydpi="96" />
      <path
         id="path59692"
         style="fill:#00d400;stroke-width:0.207558"
         d="m 23.204424,22.7401 c -0.118725,0.60791 -0.163742,1.516892 -0.6703,0.540646 -1.871575,-2.286489 -3.741835,-4.574055 -5.612903,-6.860959 -1.589646,2.318495 -3.18109,4.635758 -4.769532,6.955078 C 9.3442246,19.350898 6.5371361,15.326669 3.7298174,11.3026 c 0,5.072916 0,10.145833 0,15.21875 16.3137986,0 32.6276016,-1e-6 48.9414036,0 0,-5.083985 0,-10.167969 0,-15.251954 -2.652589,3.707507 -5.30318,7.416445 -7.957032,11.123047 -2.589633,-2.93175 -5.181125,-5.861859 -7.771484,-8.792969 -1.017602,3.764968 -2.034962,7.530001 -3.052734,11.294922 -2.683399,-4.907241 -5.36302,-9.816549 -8.044922,-14.724609 -0.880209,4.190104 -1.760417,8.380208 -2.640625,12.570313 z"
         inkscape:export-filename="D:\SEMESTER 5\GAME DESAIN\NEW\Grass.png"
         inkscape:export-xdpi="96"
         inkscape:export-ydpi="96" />
      <path
         id="path59694"
         style="fill:#008000;stroke-width:0.207558"
         d="m 23.204424,28.560412 c -0.118725,0.60791 -0.163742,1.516893 -0.6703,0.540647 -1.871483,-2.285913 -3.74185,-4.572741 -5.612903,-6.859006 -1.589646,2.318495 -3.18109,4.635758 -4.769532,6.955078 -2.8074644,-4.023968 -5.6145529,-8.048197 -8.4218716,-12.072266 0,5.072266 0,10.144531 0,15.216797 16.3137986,0 32.6276016,0 48.9414036,0 0,-5.083333 0,-10.166667 0,-15.25 -2.652589,3.707507 -5.30318,7.416445 -7.957032,11.123047 -2.589747,-2.9323 -5.181107,-5.863178 -7.771484,-8.794922 -1.017602,3.764967 -2.034962,7.530001 -3.052734,11.294922 -2.683399,-4.907242 -5.36302,-9.81655 -8.044922,-14.724609 -0.880209,4.190104 -1.760417,8.380208 -2.640625,12.570312 z"
         inkscape:export-filename="D:\SEMESTER 5\GAME DESAIN\NEW\Grass.png"
         inkscape:export-xdpi="96"
         inkscape:export-ydpi="96" />
      <path
         id="path60128"
         style="fill:#00aa00;stroke-width:0.207558"
         d="m 23.204424,31.73424 c -0.118725,0.60791 -0.163742,1.516893 -0.6703,0.540647 -1.871483,-2.285913 -3.74185,-4.572741 -5.612903,-6.859006 -1.589646,2.318495 -3.18109,4.635758 -4.769532,6.955078 -2.8074644,-4.023968 -5.6145529,-8.048196 -8.4218716,-12.072266 0,5.072917 0,10.145834 0,15.21875 16.3137986,0 32.6276016,0 48.9414036,0 0,-5.083984 0,-10.167968 0,-15.251953 -2.652589,3.707507 -5.30318,7.416445 -7.957032,11.123047 -2.589633,-2.93175 -5.181125,-5.861859 -7.771484,-8.792969 -1.017602,3.764968 -2.034962,7.530001 -3.052734,11.294922 -2.683399,-4.907242 -5.36302,-9.816549 -8.044922,-14.724609 -0.880209,4.189453 -1.760417,8.378906 -2.640625,12.568359 z"
         inkscape:export-filename="D:\SEMESTER 5\GAME DESAIN\NEW\Grass.png"
         inkscape:export-xdpi="96"
         inkscape:export-ydpi="96" />
      <path
         id="path60130"
         style="fill:#00d400;stroke-width:0.207558"
         d="m 23.204424,35.439318 c -0.118725,0.60791 -0.163742,1.516893 -0.6703,0.540647 -1.871483,-2.285913 -3.74185,-4.572741 -5.612903,-6.859006 -1.589646,2.318495 -3.18109,4.635758 -4.769532,6.955078 -2.8074644,-4.023968 -5.6145529,-8.048196 -8.4218716,-12.072266 0,5.072266 0,10.144532 0,15.216797 16.3137986,0 32.6276016,0 48.9414036,0 0,-5.083333 0,-10.166666 0,-15.25 -2.652589,3.707507 -5.30318,7.416445 -7.957032,11.123047 -2.589747,-2.9323 -5.181107,-5.863177 -7.771484,-8.794922 -1.017602,3.764968 -2.034962,7.530001 -3.052734,11.294922 -2.683399,-4.907242 -5.36302,-9.816549 -8.044922,-14.724609 -0.880209,4.190104 -1.760417,8.380208 -2.640625,12.570312 z"
         inkscape:export-filename="D:\SEMESTER 5\GAME DESAIN\NEW\Grass.png"
         inkscape:export-xdpi="96"
         inkscape:export-ydpi="96" />
      <path
         id="path60276"
         style="fill:#008000;stroke-width:0.207558"
         d="m 23.204424,41.259631 c -0.118725,0.60791 -0.163742,1.516893 -0.6703,0.540647 -1.871483,-2.285914 -3.74185,-4.572741 -5.612903,-6.859007 -1.589646,2.318495 -3.18109,4.635759 -4.769532,6.955079 -2.8074644,-4.023968 -5.6145529,-8.048197 -8.4218716,-12.072266 0,5.072917 0,10.145833 0,15.21875 16.3137986,0 32.6276016,0 48.9414036,0 0,-5.083984 0,-10.167969 0,-15.251953 -2.652589,3.707506 -5.30318,7.416444 -7.957032,11.123047 -2.589747,-2.932301 -5.181107,-5.863178 -7.771484,-8.794922 -1.017602,3.764967 -2.034962,7.53 -3.052734,11.294922 -2.683399,-4.907242 -5.36302,-9.81655 -8.044922,-14.72461 -0.880209,4.190104 -1.760417,8.380209 -2.640625,12.570313 z"
         inkscape:export-filename="D:\SEMESTER 5\GAME DESAIN\NEW\Grass.png"
         inkscape:export-xdpi="96"
         inkscape:export-ydpi="96" />
      <path
         id="path60278"
         style="fill:#00aa00;stroke-width:0.207558"
         d="m 23.204424,44.435412 c -0.118725,0.60791 -0.163742,1.516893 -0.6703,0.540647 -1.871483,-2.285913 -3.74185,-4.572741 -5.612903,-6.859006 -1.589646,2.318495 -3.18109,4.635758 -4.769532,6.955078 -2.8074644,-4.023968 -5.6145529,-8.048197 -8.4218716,-12.072266 0,5.072266 0,10.144531 0,15.216797 16.3137986,0 32.6276016,0 48.9414036,0 0,-5.083333 0,-10.166667 0,-15.25 -2.652589,3.707507 -5.30318,7.416445 -7.957032,11.123047 -2.589747,-2.9323 -5.181107,-5.863178 -7.771484,-8.794922 -1.017602,3.764967 -2.034962,7.530001 -3.052734,11.294922 -2.683399,-4.907242 -5.36302,-9.81655 -8.044922,-14.724609 -0.880209,4.190104 -1.760417,8.380208 -2.640625,12.570312 z"
         inkscape:export-filename="D:\SEMESTER 5\GAME DESAIN\NEW\Grass.png"
         inkscape:export-xdpi="96"
         inkscape:export-ydpi="96" />
      <path
         id="path60298"
         style="fill:#00d400;stroke-width:0.207558"
         d="m 23.204424,48.138537 c -0.118725,0.60791 -0.163742,1.516893 -0.6703,0.540647 -1.871483,-2.285913 -3.74185,-4.572741 -5.612903,-6.859006 -1.589646,2.318495 -3.18109,4.635758 -4.769532,6.955078 C 9.3442246,44.751288 6.5371361,40.727059 3.7298174,36.70299 c 0,5.072917 0,10.145833 0,15.21875 16.3137986,0 32.6276016,0 48.9414036,0 0,-5.083984 0,-10.167969 0,-15.251953 -2.652589,3.707507 -5.30318,7.416445 -7.957032,11.123047 -2.589633,-2.931751 -5.181125,-5.86186 -7.771484,-8.792969 -1.017588,3.76432 -2.035078,7.528667 -3.052734,11.292969 -2.683399,-4.907242 -5.36302,-9.81655 -8.044922,-14.72461 -0.880209,4.190105 -1.760417,8.380209 -2.640625,12.570313 z"
         inkscape:export-filename="D:\SEMESTER 5\GAME DESAIN\NEW\Grass.png"
         inkscape:export-xdpi="96"
         inkscape:export-ydpi="96" />
    </g>
    <g
       id="g1549">
      <g
         id="g4223"
         inkscape:export-filename="D:\SEMESTER 5\GAME DESAIN\GAME TEAM DYNAMIXEL\Aset New\bebatuan.png"
         inkscape:export-xdpi="44.351543"
         inkscape:export-ydpi="44.351543">
        <path
           id="rect58202"
           style="fill:#37483e;stroke-width:0.264583"
           d="m 3.7298174,108.76098 c 16.3137986,0 32.6276016,0 48.9414036,0 0,-16.313755 0,-32.627525 0,-48.941327 -16.313802,0 -32.627605,0 -48.9414036,0 0,16.313802 0,32.627572 0,48.941327 z"
           inkscape:export-filename="D:\SEMESTER 5\GAME DESAIN\NEW\Rock.png"
           inkscape:export-xdpi="96"
           inkscape:export-ydpi="96" />
        <path
           id="path61496"
           style="fill:#536c5d;stroke-width:0.180951"
           d="m 9.9524713,59.929028 c -2.1321858,0.244134 -4.5347376,0.786463 -5.8671852,2.621094 -0.708771,1.077317 -0.031021,2.405919 0.9318699,3.055775 2.4703335,1.698609 5.679159,1.930637 8.568086,1.465482 1.757608,-0.362092 3.745911,-0.986984 4.692787,-2.631669 0.701852,-1.251746 -0.368286,-2.575415 -1.43844,-3.171493 -2.047223,-1.222499 -4.548124,-1.504293 -6.8871177,-1.339189 z"
           inkscape:export-filename="D:\SEMESTER 5\GAME DESAIN\NEW\Rock.png"
           inkscape:export-xdpi="96"
           inkscape:export-ydpi="96" />
        <path
           id="ellipse61498"
           style="fill:#6f917c;stroke-width:0.183786"
           d="m 21.231768,59.944653 c -2.063846,0.272294 -4.386234,0.876153 -5.609028,2.703744 -0.771625,1.170887 -0.05144,2.656227 1.013951,3.356496 2.164149,1.556168 5.006893,1.869772 7.595858,1.55644 1.958397,-0.289966 4.1673,-0.948971 5.256561,-2.733045 0.75238,-1.204889 -0.05904,-2.649331 -1.124101,-3.339874 -2.054534,-1.429943 -4.692435,-1.749172 -7.133241,-1.543761 z"
           inkscape:export-filename="D:\SEMESTER 5\GAME DESAIN\NEW\Rock.png"
           inkscape:export-xdpi="96"
           inkscape:export-ydpi="96" />
        <path
           id="ellipse61706"
           style="fill:#93ac9d;stroke-width:0.191127"
           d="m 33.729814,59.932934 c -2.148181,0.251282 -4.531591,0.803701 -5.947558,2.569605 -0.922183,1.044529 -0.446217,2.65855 0.612416,3.413047 2.169825,1.736502 5.122826,2.086758 7.817564,1.913833 2.148842,-0.247277 4.531076,-0.802992 5.947915,-2.567383 0.831296,-0.947573 0.563412,-2.425894 -0.36393,-3.208008 -1.906923,-1.718273 -4.617446,-2.195186 -7.108331,-2.161261 -0.319358,0.01339 -0.638717,0.02678 -0.958076,0.04017 z"
           inkscape:export-filename="D:\SEMESTER 5\GAME DESAIN\NEW\Rock.png"
           inkscape:export-xdpi="96"
           inkscape:export-ydpi="96" />
        <path
           id="ellipse61726"
           style="fill:#b7c8be;stroke-width:0.191127"
           d="m 43.800127,59.932934 c -2.150869,0.245705 -4.531444,0.806036 -5.949868,2.569336 -0.924088,1.045231 -0.446157,2.658238 0.612772,3.413316 2.169747,1.738821 5.122583,2.085245 7.817565,1.915786 2.176406,-0.255415 4.608086,-0.820189 6.006611,-2.648846 0.819375,-1.005216 0.417854,-2.487284 -0.545266,-3.241669 -2.150168,-1.821018 -5.22548,-2.193692 -7.941814,-2.007923 z"
           inkscape:export-filename="D:\SEMESTER 5\GAME DESAIN\NEW\Rock.png"
           inkscape:export-xdpi="96"
           inkscape:export-ydpi="96" />
        <path
           id="ellipse61955"
           style="fill:#536c5d;stroke-width:0.180951"
           d="m 46.436846,64.858716 c 2.131877,0.237265 4.531543,0.785256 5.863281,2.617187 0.707605,1.075194 0.0335,2.400794 -0.926867,3.051171 -2.497754,1.719322 -5.751633,1.945918 -8.668769,1.448448 -1.725333,-0.36132 -3.672332,-0.994516 -4.59711,-2.610031 -0.702262,-1.252751 0.369199,-2.573702 1.43844,-3.171493 2.050768,-1.218821 4.548398,-1.509049 6.891025,-1.335282 z"
           inkscape:export-filename="D:\SEMESTER 5\GAME DESAIN\NEW\Rock.png"
           inkscape:export-xdpi="96"
           inkscape:export-ydpi="96" />
        <path
           id="ellipse61957"
           style="fill:#6f917c;stroke-width:0.183786"
           d="m 35.153642,64.870434 c 2.063921,0.272258 4.386084,0.876224 5.60914,2.703691 0.771919,1.170953 0.05013,2.655353 -1.013258,3.357536 -2.224191,1.585772 -5.145494,1.895436 -7.794341,1.525065 -1.894148,-0.302288 -4.009433,-0.978537 -5.058659,-2.702763 -0.752558,-1.205059 0.0588,-2.649158 1.123877,-3.339768 2.054504,-1.42987 4.692485,-1.749147 7.133241,-1.543761 z"
           inkscape:export-filename="D:\SEMESTER 5\GAME DESAIN\NEW\Rock.png"
           inkscape:export-xdpi="96"
           inkscape:export-ydpi="96" />
        <path
           id="ellipse61959"
           style="fill:#93ac9d;stroke-width:0.191127"
           d="m 22.655596,64.860669 c 2.14861,0.247451 4.531541,0.802641 5.947558,2.567651 0.922183,1.044529 0.446217,2.65855 -0.612416,3.413047 -2.169618,1.738442 -5.122863,2.082354 -7.817564,1.915786 -2.148182,-0.251282 -4.531592,-0.803701 -5.947558,-2.569604 -0.830531,-0.94766 -0.564225,-2.425742 0.363573,-3.20774 2.136681,-1.924329 5.30684,-2.308651 8.066407,-2.11914 z"
           inkscape:export-filename="D:\SEMESTER 5\GAME DESAIN\NEW\Rock.png"
           inkscape:export-xdpi="96"
           inkscape:export-ydpi="96" />
        <path
           id="ellipse61961"
           style="fill:#b7c8be;stroke-width:0.191127"
           d="m 12.585283,64.858716 c 2.150869,0.245704 4.531444,0.806036 5.949868,2.569335 0.924088,1.045232 0.446157,2.658238 -0.612772,3.413316 -2.169747,1.738821 -5.122583,2.085246 -7.817565,1.915786 C 7.8630595,72.49784 5.3393477,71.892496 3.9700518,69.938794 3.2850506,68.872141 3.7878091,67.506305 4.731771,66.78645 6.8963778,65.038855 9.8941523,64.674619 12.585283,64.858716 Z"
           inkscape:export-filename="D:\SEMESTER 5\GAME DESAIN\NEW\Rock.png"
           inkscape:export-xdpi="96"
           inkscape:export-ydpi="96" />
        <path
           id="ellipse61963"
           style="fill:#536c5d;stroke-width:0.180951"
           d="M 9.9524713,70.446606 C 7.8202855,70.69074 5.4177337,71.233069 4.0852861,73.0677 c -0.708771,1.077317 -0.031021,2.40592 0.9318699,3.055775 2.4703335,1.698609 5.679159,1.930637 8.568086,1.465483 1.757608,-0.362093 3.745911,-0.986985 4.692787,-2.63167 0.701632,-1.251557 -0.36802,-2.575773 -1.43844,-3.171493 -2.047223,-1.222499 -4.548124,-1.504293 -6.8871177,-1.339189 z"
           inkscape:export-filename="D:\SEMESTER 5\GAME DESAIN\NEW\Rock.png"
           inkscape:export-xdpi="96"
           inkscape:export-ydpi="96" />
        <path
           id="ellipse61965"
           style="fill:#6f917c;stroke-width:0.183786"
           d="m 21.231768,70.462231 c -2.063846,0.272294 -4.386234,0.876153 -5.609028,2.703744 -0.771625,1.170887 -0.05144,2.656227 1.013951,3.356496 2.164149,1.556169 5.006893,1.869772 7.595858,1.55644 1.958397,-0.289966 4.1673,-0.948971 5.256561,-2.733045 0.752487,-1.205086 -0.05903,-2.64955 -1.124101,-3.339874 -2.054534,-1.429943 -4.692435,-1.749172 -7.133241,-1.543761 z"
           inkscape:export-filename="D:\SEMESTER 5\GAME DESAIN\NEW\Rock.png"
           inkscape:export-xdpi="96"
           inkscape:export-ydpi="96" />
        <path
           id="ellipse61967"
           style="fill:#93ac9d;stroke-width:0.191127"
           d="m 33.729814,70.450513 c -2.148181,0.251282 -4.531591,0.803701 -5.947558,2.569604 -0.922183,1.044529 -0.446217,2.65855 0.612416,3.413047 2.169825,1.736502 5.122826,2.086758 7.817564,1.913833 2.148842,-0.247277 4.531076,-0.802992 5.947915,-2.567383 0.831296,-0.947572 0.563412,-2.425894 -0.36393,-3.208008 -1.906923,-1.718273 -4.617446,-2.195185 -7.108331,-2.161261 -0.319358,0.01339 -0.638717,0.02678 -0.958076,0.04017 z"
           inkscape:export-filename="D:\SEMESTER 5\GAME DESAIN\NEW\Rock.png"
           inkscape:export-xdpi="96"
           inkscape:export-ydpi="96" />
        <path
           id="ellipse61969"
           style="fill:#b7c8be;stroke-width:0.191127"
           d="m 43.800127,70.450513 c -2.150869,0.245704 -4.531444,0.806035 -5.949868,2.569335 -0.924088,1.045231 -0.446157,2.658238 0.612772,3.413316 2.169747,1.738821 5.122583,2.085246 7.817565,1.915786 2.176406,-0.255415 4.608086,-0.820189 6.006611,-2.648846 0.8194,-1.005217 0.417858,-2.487288 -0.545266,-3.241668 -2.150168,-1.821019 -5.22548,-2.193693 -7.941814,-2.007923 z"
           inkscape:export-filename="D:\SEMESTER 5\GAME DESAIN\NEW\Rock.png"
           inkscape:export-xdpi="96"
           inkscape:export-ydpi="96" />
        <path
           id="ellipse61971"
           style="fill:#536c5d;stroke-width:0.180951"
           d="m 46.569658,75.741528 c 2.132511,0.237057 4.534052,0.78601 5.863281,2.621094 0.709375,1.075057 0.02893,2.400016 -0.929037,3.050922 -2.507554,1.723329 -5.770055,1.941966 -8.695836,1.44257 -1.737936,-0.378571 -3.736979,-1.019304 -4.608965,-2.700931 -0.651198,-1.325656 0.55927,-2.601079 1.658553,-3.183972 2.021505,-1.127459 4.434877,-1.398086 6.712004,-1.229683 z"
           inkscape:export-filename="D:\SEMESTER 5\GAME DESAIN\NEW\Rock.png"
           inkscape:export-xdpi="96"
           inkscape:export-ydpi="96" />
        <path
           id="ellipse61973"
           style="fill:#6f917c;stroke-width:0.183786"
           d="m 35.288408,75.7552 c 2.06513,0.266223 4.384126,0.877704 5.60879,2.701902 0.767281,1.172456 0.05243,2.65862 -1.015666,3.358338 -2.165436,1.553629 -5.006696,1.870403 -7.595937,1.554997 -1.935545,-0.282414 -4.078248,-0.933587 -5.213749,-2.643146 -0.729849,-1.094607 -0.160488,-2.506713 0.821302,-3.224868 2.057807,-1.614798 4.860172,-1.959828 7.39526,-1.747223 z"
           inkscape:export-filename="D:\SEMESTER 5\GAME DESAIN\NEW\Rock.png"
           inkscape:export-xdpi="96"
           inkscape:export-ydpi="96" />
        <path
           id="ellipse61975"
           style="fill:#93ac9d;stroke-width:0.191127"
           d="m 22.788408,75.743481 c 2.148802,0.246991 4.531184,0.803257 5.947914,2.567383 0.894998,1.012241 0.479779,2.588494 -0.54068,3.346101 -2.012726,1.687869 -4.796829,2.098388 -7.348789,2.005998 -2.27765,-0.13762 -4.77775,-0.6863 -6.371893,-2.436837 -0.864479,-0.888187 -0.796222,-2.38516 0.111623,-3.218347 1.632214,-1.628408 3.930109,-2.132177 6.163037,-2.294507 0.680218,-0.05327 1.358809,0.0044 2.038788,0.03021 z"
           inkscape:export-filename="D:\SEMESTER 5\GAME DESAIN\NEW\Rock.png"
           inkscape:export-xdpi="96"
           inkscape:export-ydpi="96" />
        <path
           id="ellipse61977"
           style="fill:#b7c8be;stroke-width:0.191127"
           d="m 12.720049,75.743481 c 2.150372,0.244721 4.529899,0.804589 5.947914,2.567383 0.895278,1.012554 0.479189,2.587837 -0.540202,3.346634 -1.984356,1.666493 -4.728089,2.086803 -7.247403,2.009673 C 8.5960459,83.552451 6.1194184,83.006731 4.47433,81.310097 3.5951612,80.444388 3.559663,78.951602 4.45052,78.081372 c 1.7358454,-1.803947 4.3852709,-2.311166 6.793712,-2.388557 0.492152,-0.01011 0.983909,0.03793 1.475816,0.05067 z"
           inkscape:export-filename="D:\SEMESTER 5\GAME DESAIN\NEW\Rock.png"
           inkscape:export-xdpi="96"
           inkscape:export-ydpi="96" />
        <path
           id="ellipse61979"
           style="fill:#536c5d;stroke-width:0.180951"
           d="m 9.9505183,81.561841 c -2.1326758,0.239847 -4.5313486,0.787486 -5.8652322,2.61914 -0.7099931,1.078207 -0.027443,2.406486 0.9339359,3.057604 2.4981945,1.713838 5.747101,1.934588 8.661697,1.442011 1.751087,-0.368597 3.759248,-1.016314 4.638202,-2.705101 0.64694,-1.321855 -0.556288,-2.604355 -1.658886,-3.183384 -2.023174,-1.128593 -4.430957,-1.397604 -6.7097167,-1.23027 z"
           inkscape:export-filename="D:\SEMESTER 5\GAME DESAIN\NEW\Rock.png"
           inkscape:export-xdpi="96"
           inkscape:export-ydpi="96" />
        <path
           id="ellipse61981"
           style="fill:#6f917c;stroke-width:0.183786"
           d="m 21.231768,81.575513 c -2.062765,0.268744 -4.38364,0.873978 -5.606978,2.697929 -0.770807,1.168686 -0.06035,2.658143 1.006318,3.35806 2.164302,1.560361 5.010598,1.873018 7.601534,1.559331 1.934853,-0.27954 4.0749,-0.931644 5.211572,-2.637469 0.739123,-1.105461 0.156664,-2.530305 -0.839082,-3.2477 -2.056105,-1.602458 -4.847865,-1.938027 -7.373364,-1.730151 z"
           inkscape:export-filename="D:\SEMESTER 5\GAME DESAIN\NEW\Rock.png"
           inkscape:export-xdpi="96"
           inkscape:export-ydpi="96" />
        <path
           id="ellipse61983"
           style="fill:#93ac9d;stroke-width:0.191127"
           d="m 33.729814,81.563794 c -2.244412,0.254792 -4.770777,0.865593 -6.136718,2.824219 -0.727927,1.146197 -0.06627,2.574832 0.952868,3.289509 2.376007,1.730271 5.513475,2.049438 8.360199,1.690741 2.016173,-0.29519 4.228667,-0.971007 5.440839,-2.728297 0.669385,-1.036929 0.211986,-2.37123 -0.696992,-3.093495 -2.154206,-1.796546 -5.212198,-2.17097 -7.920196,-1.982677 z"
           inkscape:export-filename="D:\SEMESTER 5\GAME DESAIN\NEW\Rock.png"
           inkscape:export-xdpi="96"
           inkscape:export-ydpi="96" />
        <path
           id="ellipse61985"
           style="fill:#b7c8be;stroke-width:0.191127"
           d="m 43.798174,81.563794 c -2.244902,0.252133 -4.76594,0.866412 -6.134766,2.820312 -0.73401,1.146691 -0.06903,2.577459 0.950915,3.293416 2.37604,1.730941 5.513532,2.049398 8.3602,1.690741 2.015088,-0.29636 4.228737,-0.969907 5.440838,-2.726344 0.700813,-1.090774 0.154675,-2.47833 -0.815474,-3.196383 -2.162471,-1.706541 -5.132981,-2.067859 -7.801713,-1.881742 z"
           inkscape:export-filename="D:\SEMESTER 5\GAME DESAIN\NEW\Rock.png"
           inkscape:export-xdpi="96"
           inkscape:export-ydpi="96" />
        <path
           id="ellipse61987"
           style="fill:#536c5d;stroke-width:0.180951"
           d="m 46.432939,87.417302 c 2.132347,0.24358 4.534644,0.786617 5.867188,2.621085 0.708716,1.077404 0.03112,2.405888 -0.93187,3.055755 -2.469619,1.698598 -5.677861,1.930608 -8.566143,1.465511 -1.758344,-0.3614 -3.747456,-0.986574 -4.694733,-2.631685 -0.700371,-1.255134 0.365362,-2.568305 1.436257,-3.169892 2.047309,-1.223804 4.549141,-1.506171 6.889301,-1.340774 z"
           inkscape:export-filename="D:\SEMESTER 5\GAME DESAIN\NEW\Rock.png"
           inkscape:export-xdpi="96"
           inkscape:export-ydpi="96" />
        <path
           id="ellipse61989"
           style="fill:#6f917c;stroke-width:0.183786"
           d="m 35.153642,87.432932 c 2.063705,0.26865 4.379037,0.879427 5.606978,2.697915 0.773184,1.172124 0.0571,2.661475 -1.011901,3.362292 -2.164158,1.556221 -5.006874,1.869638 -7.595873,1.556521 -1.93633,-0.2805 -4.075318,-0.934504 -5.213589,-2.640865 -0.73701,-1.105784 -0.153179,-2.528105 0.841021,-3.245722 2.049848,-1.596921 4.85535,-1.940398 7.373364,-1.730141 z"
           inkscape:export-filename="D:\SEMESTER 5\GAME DESAIN\NEW\Rock.png"
           inkscape:export-xdpi="96"
           inkscape:export-ydpi="96" />
        <path
           id="ellipse61991"
           style="fill:#93ac9d;stroke-width:0.191127"
           d="m 22.655596,87.423162 c 2.148598,0.2443 4.530091,0.804357 5.945426,2.567775 0.922251,1.038784 0.453446,2.655485 -0.60578,3.405522 -2.195126,1.763971 -5.19475,2.106368 -7.921201,1.908048 -2.211078,-0.256247 -4.687575,-0.881824 -6.035633,-2.803242 -0.679344,-1.058434 -0.193878,-2.411498 0.738281,-3.134752 2.165399,-1.761271 5.178964,-2.134728 7.878907,-1.943351 z"
           inkscape:export-filename="D:\SEMESTER 5\GAME DESAIN\NEW\Rock.png"
           inkscape:export-xdpi="96"
           inkscape:export-ydpi="96" />
        <path
           id="ellipse61993"
           style="fill:#b7c8be;stroke-width:0.191127"
           d="m 12.585283,87.421212 c 2.150487,0.24486 4.530264,0.806667 5.947731,2.569455 0.923669,1.039074 0.454104,2.655785 -0.606131,3.405792 -2.195112,1.764521 -5.194875,2.106588 -7.921201,1.908048 C 7.7940005,95.04854 5.3199157,94.421983 3.9700518,92.501265 3.2843571,91.432951 3.7884773,90.069707 4.731771,89.346983 6.8938438,87.604562 9.8979933,87.233175 12.585283,87.421212 Z"
           inkscape:export-filename="D:\SEMESTER 5\GAME DESAIN\NEW\Rock.png"
           inkscape:export-xdpi="96"
           inkscape:export-ydpi="96" />
        <path
           id="ellipse61995"
           style="fill:#536c5d;stroke-width:0.180951"
           d="m 9.8157523,93.544229 c -2.1331238,0.235547 -4.5333396,0.788694 -5.8632787,2.621075 -0.7093743,1.075054 -0.028929,2.400005 0.9290374,3.050902 2.5075555,1.723304 5.77005,1.941974 8.695833,1.442564 1.737936,-0.37857 3.736979,-1.019297 4.608965,-2.700918 0.650955,-1.325941 -0.558692,-2.601285 -1.658553,-3.183952 -2.022108,-1.127321 -4.434239,-1.396971 -6.7120037,-1.229671 z"
           inkscape:export-filename="D:\SEMESTER 5\GAME DESAIN\NEW\Rock.png"
           inkscape:export-xdpi="96"
           inkscape:export-ydpi="96" />
        <path
           id="ellipse61997"
           style="fill:#6f917c;stroke-width:0.183786"
           d="m 21.098955,93.557899 c -2.063357,0.266267 -4.383295,0.874864 -5.606977,2.697915 -0.770808,1.168671 -0.06035,2.658125 1.006318,3.358039 2.165736,1.557527 5.010146,1.874667 7.601519,1.559247 1.935469,-0.28245 4.078399,-0.93352 5.213637,-2.643191 0.73057,-1.094194 0.161436,-2.507705 -0.82119,-3.224802 -2.053725,-1.613881 -4.861612,-1.960168 -7.393307,-1.747208 z"
           inkscape:export-filename="D:\SEMESTER 5\GAME DESAIN\NEW\Rock.png"
           inkscape:export-xdpi="96"
           inkscape:export-ydpi="96" />
        <path
           id="ellipse61999"
           style="fill:#93ac9d;stroke-width:0.191127"
           d="m 33.597002,93.546179 c -2.24276,0.254227 -4.764313,0.865634 -6.134766,2.816392 -0.73144,1.148134 -0.071,2.580575 0.950915,3.297302 2.40641,1.744797 5.582255,2.058947 8.459332,1.677597 2.001851,-0.3202 4.250929,-0.99755 5.383591,-2.810741 0.730599,-1.198881 -0.06823,-2.613075 -1.116514,-3.303569 -2.153923,-1.514684 -4.932361,-1.861751 -7.542558,-1.676981 z"
           inkscape:export-filename="D:\SEMESTER 5\GAME DESAIN\NEW\Rock.png"
           inkscape:export-xdpi="96"
           inkscape:export-ydpi="96" />
        <path
           id="ellipse62001"
           style="fill:#b7c8be;stroke-width:0.191127"
           d="m 43.665361,93.546179 c -2.243255,0.251557 -4.759461,0.866474 -6.132812,2.812482 -0.737516,1.148634 -0.07377,2.583205 0.948962,3.301212 2.463202,1.783097 5.717659,2.074467 8.653745,1.651727 1.933548,-0.3469 4.094371,-1.02108 5.185339,-2.780931 0.728663,-1.186871 -0.04976,-2.599325 -1.089193,-3.290002 -2.159641,-1.537311 -4.983286,-1.879268 -7.566041,-1.694488 z"
           inkscape:export-filename="D:\SEMESTER 5\GAME DESAIN\NEW\Rock.png"
           inkscape:export-xdpi="96"
           inkscape:export-ydpi="96" />
        <path
           id="ellipse62003"
           style="fill:#536c5d;stroke-width:0.180951"
           d="m 46.436846,100.95239 c 2.132343,0.23666 4.535428,0.78679 5.863281,2.62109 0.71058,1.07724 0.02634,2.40503 -0.933936,3.05565 -2.507893,1.71819 -5.767097,1.93713 -8.690938,1.43785 -1.73862,-0.37836 -3.737196,-1.01794 -4.608964,-2.70093 -0.638353,-1.2867 0.505502,-2.54667 1.571729,-3.13436 2.035814,-1.16966 4.49095,-1.44853 6.798828,-1.2793 z"
           inkscape:export-filename="D:\SEMESTER 5\GAME DESAIN\NEW\Rock.png"
           inkscape:export-xdpi="96"
           inkscape:export-ydpi="96" />
        <path
           id="ellipse62005"
           style="fill:#6f917c;stroke-width:0.183786"
           d="m 35.153642,100.96606 c 2.062765,0.26875 4.38364,0.87398 5.606978,2.69793 0.770807,1.16869 0.06035,2.65814 -1.006318,3.35807 -2.164311,1.56042 -5.010579,1.8729 -7.601548,1.55942 -1.935157,-0.2783 -4.074676,-0.93235 -5.211558,-2.63757 -0.73919,-1.1051 -0.155433,-2.5295 0.839082,-3.2477 2.056176,-1.60215 4.84797,-1.93828 7.373364,-1.73015 z"
           inkscape:export-filename="D:\SEMESTER 5\GAME DESAIN\NEW\Rock.png"
           inkscape:export-xdpi="96"
           inkscape:export-ydpi="96" />
        <path
           id="ellipse62007"
           style="fill:#93ac9d;stroke-width:0.191127"
           d="m 22.655596,100.95434 c 2.242759,0.25423 4.764313,0.86564 6.134765,2.81641 0.73144,1.14814 0.071,2.5806 -0.950915,3.29733 -2.435389,1.7635 -5.651214,2.06839 -8.558464,1.66445 -1.967926,-0.33337 -4.173428,-1.01082 -5.284458,-2.7976 -0.709787,-1.16245 0.02381,-2.54942 1.036025,-3.24426 2.164175,-1.57503 5.018648,-1.92179 7.623047,-1.73633 z"
           inkscape:export-filename="D:\SEMESTER 5\GAME DESAIN\NEW\Rock.png"
           inkscape:export-xdpi="96"
           inkscape:export-ydpi="96" />
        <path
           id="ellipse62009"
           style="fill:#b7c8be;stroke-width:0.191127"
           d="m 12.587236,100.95434 c 2.243255,0.25156 4.759462,0.86648 6.132813,2.8125 0.737516,1.14864 0.07377,2.58323 -0.948962,3.30124 -2.464312,1.78381 -5.720399,2.07485 -8.6575964,1.65131 -1.9321438,-0.34806 -4.0903526,-1.0223 -5.1832883,-2.77864 -0.7253688,-1.18833 0.050443,-2.60081 1.0909957,-3.2919 2.1596398,-1.53732 4.983283,-1.87929 7.566038,-1.69451 z"
           inkscape:export-filename="D:\SEMESTER 5\GAME DESAIN\NEW\Rock.png"
           inkscape:export-xdpi="96"
           inkscape:export-ydpi="96" />
      </g>
    </g>
    <g
       id="g1494">
      <path
         id="rect58054"
         style="fill:#d3bc5f;stroke-width:0.264583"
         d="m 61.668868,51.082026 c 16.313802,0 32.627525,0 48.941292,0 0,-16.313802 0,-32.627604 0,-48.9414015 -16.313767,0 -32.62749,0 -48.941292,0 0,16.3137975 0,32.6275995 0,48.9414015 z"
         inkscape:export-filename="D:\SEMESTER 5\GAME DESAIN\GAME TEAM DYNAMIXEL\Aset Game Petualangan Hafidzah\Tanah.png"
         inkscape:export-xdpi="96"
         inkscape:export-ydpi="96" />
      <ellipse
         style="fill:#decd87;stroke-width:0.264583"
         id="path390"
         cx="68.005104"
         cy="46.474533"
         rx="4.4636555"
         ry="2.8882475"
         inkscape:export-filename="D:\SEMESTER 5\GAME DESAIN\GAME TEAM DYNAMIXEL\Aset Game Petualangan Hafidzah\Tanah.png"
         inkscape:export-xdpi="96"
         inkscape:export-ydpi="96" />
      <ellipse
         style="fill:#c8ab37;stroke-width:0.264583"
         id="ellipse596"
         cx="77.982689"
         cy="38.072357"
         rx="4.4636555"
         ry="2.8882475"
         inkscape:export-filename="D:\SEMESTER 5\GAME DESAIN\GAME TEAM DYNAMIXEL\Aset Game Petualangan Hafidzah\Tanah.png"
         inkscape:export-xdpi="96"
         inkscape:export-ydpi="96" />
      <ellipse
         style="fill:#c8ab37;stroke-width:0.264583"
         id="ellipse598"
         cx="104.76462"
         cy="4.9887948"
         rx="4.4636555"
         ry="2.8882475"
         inkscape:export-filename="D:\SEMESTER 5\GAME DESAIN\GAME TEAM DYNAMIXEL\Aset Game Petualangan Hafidzah\Tanah.png"
         inkscape:export-xdpi="96"
         inkscape:export-ydpi="96" />
      <ellipse
         style="fill:#decd87;stroke-width:0.264583"
         id="ellipse596-7"
         cx="104.50204"
         cy="15.754079"
         rx="4.4636555"
         ry="2.8882475"
         inkscape:export-filename="D:\SEMESTER 5\GAME DESAIN\GAME TEAM DYNAMIXEL\Aset Game Petualangan Hafidzah\Tanah.png"
         inkscape:export-xdpi="96"
         inkscape:export-ydpi="96" />
      <ellipse
         style="fill:#c8ab37;stroke-width:0.264583"
         id="ellipse596-2"
         cx="84.021744"
         cy="13.65353"
         rx="4.4636555"
         ry="2.8882475"
         inkscape:export-filename="D:\SEMESTER 5\GAME DESAIN\GAME TEAM DYNAMIXEL\Aset Game Petualangan Hafidzah\Tanah.png"
         inkscape:export-xdpi="96"
         inkscape:export-ydpi="96" />
      <ellipse
         style="fill:#c8ab37;stroke-width:0.264583"
         id="ellipse596-1"
         cx="101.87637"
         cy="41.485741"
         rx="4.4636555"
         ry="2.8882475"
         inkscape:export-filename="D:\SEMESTER 5\GAME DESAIN\GAME TEAM DYNAMIXEL\Aset Game Petualangan Hafidzah\Tanah.png"
         inkscape:export-xdpi="96"
         inkscape:export-ydpi="96" />
      <ellipse
         style="fill:#decd87;stroke-width:0.264583"
         id="ellipse596-8"
         cx="70.36821"
         cy="7.8770351"
         rx="4.4636555"
         ry="2.8882475"
         inkscape:export-filename="D:\SEMESTER 5\GAME DESAIN\GAME TEAM DYNAMIXEL\Aset Game Petualangan Hafidzah\Tanah.png"
         inkscape:export-xdpi="96"
         inkscape:export-ydpi="96" />
      <ellipse
         style="fill:#decd87;stroke-width:0.264583"
         id="ellipse596-80"
         cx="95.049606"
         cy="30.457884"
         rx="4.4636555"
         ry="2.8882475"
         inkscape:export-filename="D:\SEMESTER 5\GAME DESAIN\GAME TEAM DYNAMIXEL\Aset Game Petualangan Hafidzah\Tanah.png"
         inkscape:export-xdpi="96"
         inkscape:export-ydpi="96" />
      <ellipse
         style="fill:#decd87;stroke-width:0.264583"
         id="ellipse596-71"
         cx="71.943619"
         cy="24.681391"
         rx="4.4636555"
         ry="2.8882475"
         inkscape:export-filename="D:\SEMESTER 5\GAME DESAIN\GAME TEAM DYNAMIXEL\Aset Game Petualangan Hafidzah\Tanah.png"
         inkscape:export-xdpi="96"
         inkscape:export-ydpi="96" />
    </g>
    <g
       id="g4253"
       inkscape:export-filename="D:\SEMESTER 5\GAME DESAIN\GAME TEAM DYNAMIXEL\Aset New\air.png"
       inkscape:export-xdpi="44.351543"
       inkscape:export-ydpi="44.351543">
      <path
         id="rect58056"
         style="fill:#80e5ff;stroke-width:0.264583"
         d="m 120.93509,51.082026 c 16.31381,0 32.62761,0 48.94141,0 0,-16.313802 0,-32.627604 0,-48.9414015 -16.3138,0 -32.6276,0 -48.94141,0 0,16.3137975 0,32.6275995 0,48.9414015 z"
         inkscape:export-filename="D:\SEMESTER 5\GAME DESAIN\GAME TEAM DYNAMIXEL\Aset Game Petualangan Hafidzah\air.png"
         inkscape:export-xdpi="96"
         inkscape:export-ydpi="96" />
      <path
         id="rect60750"
         style="fill:#aaeeff;stroke-width:0.0742201"
         d="m 121.47458,12.23125 14.5661,-3.0649848 17.07725,4.2697928 12.02428,-1.204808 V 7.9614582 C 156.93766,10.961553 153.11793,13.436058 148.99478,6.1357441 L 133.68521,2.841017 121.47458,7.9614582 Z"
         inkscape:export-filename="D:\SEMESTER 5\GAME DESAIN\GAME TEAM DYNAMIXEL\Aset Game Petualangan Hafidzah\air.png"
         inkscape:export-xdpi="96"
         inkscape:export-ydpi="96"
         sodipodi:nodetypes="ccccccccc" />
      <path
         id="path1661"
         style="fill:#aaeeff;stroke-width:0.0579159"
         d="m 127.74393,28.224189 11.06274,-2.457329 12.96991,3.423275 9.13227,-0.965946 v -3.423275 c -6.23124,2.405305 -9.13227,4.389221 -12.26373,-1.463752 l -11.62739,-2.641524 -9.2738,4.105276 z"
         inkscape:export-filename="D:\SEMESTER 5\GAME DESAIN\GAME TEAM DYNAMIXEL\Aset Game Petualangan Hafidzah\air.png"
         inkscape:export-xdpi="96"
         inkscape:export-ydpi="96"
         sodipodi:nodetypes="ccccccccc" />
      <path
         id="path1663"
         style="fill:#aaeeff;stroke-width:0.0751289"
         d="m 124.48965,46.820695 14.92499,-3.064985 17.49799,4.269793 12.32054,-1.204808 v -4.269792 c -8.40669,3.000095 -12.32054,5.4746 -16.54526,-1.825714 l -15.68679,-3.294727 -12.51147,5.120441 z"
         inkscape:export-filename="D:\SEMESTER 5\GAME DESAIN\GAME TEAM DYNAMIXEL\Aset Game Petualangan Hafidzah\air.png"
         inkscape:export-xdpi="96"
         inkscape:export-ydpi="96"
         sodipodi:nodetypes="ccccccccc" />
    </g>
    <g
       id="g2330"
       transform="matrix(0.67041139,0,0,0.75954597,-16.09275,34.951069)"
       inkscape:export-filename="D:\SEMESTER 5\GAME DESAIN\GAME TEAM DYNAMIXEL\Aset New\kayu.png"
       inkscape:export-xdpi="38.104908"
       inkscape:export-ydpi="38.104908">
      <rect
         style="fill:#803300;stroke-width:0.26496"
         id="rect2739"
         width="89.273102"
         height="39.49728"
         x="40.435463"
         y="134.4348"
         rx="44.636551"
         ry="7.7603908" />
      <path
         sodipodi:type="spiral"
         style="fill:none;fill-rule:evenodd;stroke:#000000"
         id="path3585"
         sodipodi:cx="256.03476"
         sodipodi:cy="547.79535"
         sodipodi:expansion="1"
         sodipodi:revolution="3"
         sodipodi:radius="34.147198"
         sodipodi:argument="-17.89901"
         sodipodi:t0="0"
         transform="matrix(0,0.47513376,-0.20095424,0,156.13401,31.183638)"
         d="m 256.03476,547.79535 c 0.99513,1.39318 -1.38702,2.02876 -2.31556,1.65397 -2.51629,-1.01566 -2.37853,-4.43257 -0.99239,-6.28509 2.47948,-3.31372 7.41953,-2.927 10.25463,-0.3308 4.16061,3.81003 3.49927,10.44974 -0.33079,14.22415 -5.10487,5.03071 -13.49565,4.08215 -18.19368,-0.99237 -5.912,-6.38576 -4.67059,-16.54914 1.65395,-22.16321 7.65988,-6.7994 19.60692,-5.26228 26.13275,2.31554 7.69047,8.9302 5.85601,22.66736 -2.97713,30.10228 -10.1982,8.58391 -25.72959,6.45109 -34.07181,-3.63872 -9.47896,-11.46468 -7.04713,-28.79307 4.3003,-38.04134 12.7301,-10.37515 31.85748,-7.64386 42.01088,4.96189 11.27219,13.99476 8.2411,34.92256 -5.62348,45.9804" />
      <path
         sodipodi:type="spiral"
         style="fill:none;fill-rule:evenodd;stroke:#000000"
         id="path3829"
         sodipodi:cx="256.03476"
         sodipodi:cy="547.79535"
         sodipodi:expansion="1"
         sodipodi:revolution="3"
         sodipodi:radius="34.147198"
         sodipodi:argument="-17.89901"
         sodipodi:t0="0"
         transform="matrix(0,0.47513376,0.20095424,0,14.13135,31.183638)"
         d="m 256.03476,547.79535 c 0.99513,1.39318 -1.38702,2.02876 -2.31556,1.65397 -2.51629,-1.01566 -2.37853,-4.43257 -0.99239,-6.28509 2.47948,-3.31372 7.41953,-2.927 10.25463,-0.3308 4.16061,3.81003 3.49927,10.44974 -0.33079,14.22415 -5.10487,5.03071 -13.49565,4.08215 -18.19368,-0.99237 -5.912,-6.38576 -4.67059,-16.54914 1.65395,-22.16321 7.65988,-6.7994 19.60692,-5.26228 26.13275,2.31554 7.69047,8.9302 5.85601,22.66736 -2.97713,30.10228 -10.1982,8.58391 -25.72959,6.45109 -34.07181,-3.63872 -9.47896,-11.46468 -7.04713,-28.79307 4.3003,-38.04134 12.7301,-10.37515 31.85748,-7.64386 42.01088,4.96189 11.27219,13.99476 8.2411,34.92256 -5.62348,45.9804" />
      <ellipse
         style="fill:#552200;stroke-width:0.264583"
         id="path3853"
         cx="79.032959"
         cy="145.20009"
         rx="22.318275"
         ry="1.3128397" />
      <ellipse
         style="fill:#552200;stroke-width:0.264583"
         id="path3855"
         cx="90.936638"
         cy="153.61218"
         rx="26.397333"
         ry="0.77778113" />
      <ellipse
         style="fill:#552200;stroke-width:0.264583"
         id="path3857"
         cx="83.234039"
         cy="165.4178"
         rx="21.268005"
         ry="1.0502719" />
      <ellipse
         style="fill:#552200;stroke-width:0.264583"
         id="path4015"
         cx="104.23948"
         cy="161.74185"
         rx="11.815557"
         ry="1.0502719" />
      <ellipse
         style="fill:#552200;stroke-width:0.264583"
         id="path4017"
         cx="64.854286"
         cy="157.2782"
         rx="6.5641985"
         ry="0.78770387" />
      <ellipse
         style="fill:#552200;stroke-width:0.264583"
         id="path4019"
         cx="104.23948"
         cy="138.63588"
         rx="11.290422"
         ry="1.0502719" />
    </g>
    <g
       id="g2338"
       inkscape:export-filename="D:\SEMESTER 5\GAME DESAIN\GAME TEAM DYNAMIXEL\Aset New\tanah.png"
       inkscape:export-xdpi="44.113972"
       inkscape:export-ydpi="44.113972">
      <path
         id="path86"
         style="fill:#c8ab37;stroke-width:0.264583"
         d="m 61.668868,109.01927 c 16.313802,0 32.627525,0 48.941292,0 0,-16.313806 0,-32.627608 0,-48.941405 -16.313767,0 -32.62749,0 -48.941292,0 0,16.313797 0,32.627599 0,48.941405 z"
         inkscape:export-filename="D:\SEMESTER 5\GAME DESAIN\GAME TEAM DYNAMIXEL\Aset Game Petualangan Hafidzah\Tanah.png"
         inkscape:export-xdpi="96"
         inkscape:export-ydpi="96" />
      <ellipse
         style="fill:#a0892c;stroke-width:0.264583"
         id="ellipse2091"
         cx="72.206192"
         cy="68.005096"
         rx="6.5641985"
         ry="0.78770387" />
      <ellipse
         style="fill:#a0892c;stroke-width:0.330267"
         id="ellipse2215"
         cx="91.111084"
         cy="71.943619"
         rx="17.592052"
         ry="1.0502719" />
      <ellipse
         style="fill:#a0892c;stroke-width:0.330267"
         id="ellipse2235"
         cx="82.183769"
         cy="92.42392"
         rx="17.592052"
         ry="1.0502719" />
      <ellipse
         style="fill:#a0892c;stroke-width:0.264583"
         id="ellipse2237"
         cx="89.535675"
         cy="81.65863"
         rx="6.5641985"
         ry="0.78770387" />
      <ellipse
         style="fill:#a0892c;stroke-width:0.358898"
         id="ellipse2239"
         cx="91.373657"
         cy="98.988113"
         rx="12.078126"
         ry="0.78770387" />
    </g>
    <path
       id="path2432"
       style="fill:#005500;stroke-width:0.264583"
       d="m 120.9351,109.01927 c 16.3138,0 32.6276,0 48.9414,0 0,-16.313805 0,-32.627607 0,-48.941405 -16.3138,0 -32.6276,0 -48.9414,0 0,16.313798 0,32.6276 0,48.941405 z"
       inkscape:export-filename="D:\SEMESTER 5\GAME DESAIN\NEW\Grass.png"
       inkscape:export-xdpi="96"
       inkscape:export-ydpi="96" />
    <path
       id="path2434"
       style="fill:#008000;stroke-width:0.207558"
       d="m 140.4097,73.796611 c -0.11872,0.60791 -0.16374,1.516893 -0.6703,0.540647 -1.87148,-2.285913 -3.74185,-4.572741 -5.6129,-6.859006 -1.58965,2.318495 -3.18109,4.635758 -4.76953,6.955078 -2.80747,-4.023968 -5.61455,-8.048196 -8.42187,-12.072263 0,5.072914 0,10.14583 0,15.218747 16.3138,0 32.6276,0 48.9414,0 0,-5.083984 0,-10.167969 0,-15.25195 -2.65259,3.707505 -5.30318,7.416442 -7.95703,11.123044 -2.58963,-2.931751 -5.18113,-5.86186 -7.77149,-8.792967 -1.01758,3.764318 -2.03507,7.528665 -3.05273,11.292967 -2.6834,-4.907242 -5.36302,-9.816549 -8.04492,-14.724606 -0.88021,4.190102 -1.76042,8.380205 -2.64063,12.570309 z"
       inkscape:export-filename="D:\SEMESTER 5\GAME DESAIN\NEW\Grass.png"
       inkscape:export-xdpi="96"
       inkscape:export-ydpi="96" />
    <path
       id="path2436"
       style="fill:#00aa00;stroke-width:0.207558"
       d="m 140.4097,77.501689 c -0.11872,0.60791 -0.16374,1.516893 -0.6703,0.540647 -1.87148,-2.285913 -3.74185,-4.572741 -5.6129,-6.859006 -1.58965,2.318495 -3.18109,4.635758 -4.76953,6.955078 -2.80747,-4.023968 -5.61455,-8.048196 -8.42187,-12.072265 0,5.072265 0,10.14453 0,15.216796 16.3138,0 32.6276,0 48.9414,0 0,-5.083333 0,-10.166667 0,-15.249999 -2.65259,3.707506 -5.30318,7.416444 -7.95703,11.123046 -2.58975,-2.9323 -5.18111,-5.863177 -7.77149,-8.794922 -1.0176,3.764968 -2.03496,7.530001 -3.05273,11.294922 -2.6834,-4.907242 -5.36302,-9.816549 -8.04492,-14.724608 -0.88021,4.190103 -1.76042,8.380207 -2.64063,12.570311 z"
       inkscape:export-filename="D:\SEMESTER 5\GAME DESAIN\NEW\Grass.png"
       inkscape:export-xdpi="96"
       inkscape:export-ydpi="96" />
    <path
       id="path2438"
       style="fill:#00d400;stroke-width:0.207558"
       d="m 140.4097,80.148174 c -0.11872,0.60791 -0.16374,1.516892 -0.6703,0.540646 -1.87157,-2.286489 -3.74183,-4.574055 -5.6129,-6.860959 -1.58965,2.318495 -3.18109,4.635758 -4.76953,6.955078 -2.80747,-4.023967 -5.61455,-8.048196 -8.42187,-12.072265 0,5.072916 0,10.145833 0,15.21875 16.3138,0 32.6276,-10e-7 48.9414,0 0,-5.083985 0,-10.167969 0,-15.251954 -2.65259,3.707507 -5.30318,7.416445 -7.95703,11.123047 -2.58963,-2.93175 -5.18113,-5.861859 -7.77149,-8.792969 -1.0176,3.764968 -2.03496,7.530001 -3.05273,11.294922 -2.6834,-4.907241 -5.36302,-9.816549 -8.04492,-14.724609 -0.88021,4.190104 -1.76042,8.380208 -2.64063,12.570313 z"
       inkscape:export-filename="D:\SEMESTER 5\GAME DESAIN\NEW\Grass.png"
       inkscape:export-xdpi="96"
       inkscape:export-ydpi="96" />
    <path
       id="path2440"
       style="fill:#008000;stroke-width:0.207558"
       d="m 140.4097,85.968486 c -0.11872,0.60791 -0.16374,1.516893 -0.6703,0.540647 -1.87148,-2.285913 -3.74185,-4.572741 -5.6129,-6.859006 -1.58965,2.318495 -3.18109,4.635758 -4.76953,6.955078 -2.80747,-4.023968 -5.61455,-8.048197 -8.42187,-12.072266 0,5.072266 0,10.144531 0,15.216797 16.3138,0 32.6276,0 48.9414,0 0,-5.083333 0,-10.166667 0,-15.25 -2.65259,3.707507 -5.30318,7.416445 -7.95703,11.123047 -2.58975,-2.9323 -5.18111,-5.863178 -7.77149,-8.794922 -1.0176,3.764967 -2.03496,7.530001 -3.05273,11.294922 -2.6834,-4.907242 -5.36302,-9.81655 -8.04492,-14.724609 -0.88021,4.190104 -1.76042,8.380208 -2.64063,12.570312 z"
       inkscape:export-filename="D:\SEMESTER 5\GAME DESAIN\NEW\Grass.png"
       inkscape:export-xdpi="96"
       inkscape:export-ydpi="96" />
    <path
       id="path2442"
       style="fill:#00aa00;stroke-width:0.207558"
       d="m 140.4097,89.142314 c -0.11872,0.60791 -0.16374,1.516893 -0.6703,0.540647 -1.87148,-2.285913 -3.74185,-4.572741 -5.6129,-6.859006 -1.58965,2.318495 -3.18109,4.635758 -4.76953,6.955078 -2.80747,-4.023968 -5.61455,-8.048196 -8.42187,-12.072266 0,5.072917 0,10.145834 0,15.21875 16.3138,0 32.6276,0 48.9414,0 0,-5.083984 0,-10.167968 0,-15.251953 -2.65259,3.707507 -5.30318,7.416445 -7.95703,11.123047 -2.58963,-2.93175 -5.18113,-5.861859 -7.77149,-8.792969 -1.0176,3.764968 -2.03496,7.530001 -3.05273,11.294922 -2.6834,-4.907242 -5.36302,-9.816549 -8.04492,-14.724609 -0.88021,4.189453 -1.76042,8.378906 -2.64063,12.568359 z"
       inkscape:export-filename="D:\SEMESTER 5\GAME DESAIN\NEW\Grass.png"
       inkscape:export-xdpi="96"
       inkscape:export-ydpi="96" />
    <path
       id="path2444"
       style="fill:#00d400;stroke-width:0.207558"
       d="m 140.4097,92.847392 c -0.11872,0.60791 -0.16374,1.516893 -0.6703,0.540647 -1.87148,-2.285913 -3.74185,-4.572741 -5.6129,-6.859006 -1.58965,2.318495 -3.18109,4.635758 -4.76953,6.955078 -2.80747,-4.023968 -5.61455,-8.048196 -8.42187,-12.072266 0,5.072266 0,10.144532 0,15.216797 16.3138,0 32.6276,0 48.9414,0 0,-5.083333 0,-10.166666 0,-15.25 -2.65259,3.707507 -5.30318,7.416445 -7.95703,11.123047 -2.58975,-2.9323 -5.18111,-5.863177 -7.77149,-8.794922 -1.0176,3.764968 -2.03496,7.530001 -3.05273,11.294922 -2.6834,-4.907242 -5.36302,-9.816549 -8.04492,-14.724609 -0.88021,4.190104 -1.76042,8.380208 -2.64063,12.570312 z"
       inkscape:export-filename="D:\SEMESTER 5\GAME DESAIN\NEW\Grass.png"
       inkscape:export-xdpi="96"
       inkscape:export-ydpi="96" />
    <ellipse
       style="fill:#ff6600;stroke-width:0.264583"
       id="path2871-2-79-9"
       cx="144.41238"
       cy="79.820656"
       rx="3.9385192"
       ry="4.2010875" />
    <ellipse
       style="fill:#ffffff;stroke-width:0.178133"
       id="path2871-2-24-4-3-7"
       cx="143.36211"
       cy="81.921204"
       rx="2.5"
       ry="3" />
    <ellipse
       style="fill:#ff6600;stroke-width:0.264583"
       id="path2871-2-79-6"
       cx="132.85938"
       cy="93.474197"
       rx="3.9385192"
       ry="4.2010875" />
    <ellipse
       style="fill:#ff0000;stroke-width:0.264583"
       id="path2871"
       cx="124.71978"
       cy="67.742531"
       rx="3.9385192"
       ry="4.2010875" />
    <ellipse
       style="fill:#ff0000;stroke-width:0.264583"
       id="path2871-6"
       cx="146.51291"
       cy="68.26767"
       rx="3.9385192"
       ry="4.2010875" />
    <ellipse
       style="fill:#ff0000;stroke-width:0.264583"
       id="path2871-3"
       cx="127.60803"
       cy="85.072021"
       rx="3.9385192"
       ry="4.2010875" />
    <ellipse
       style="fill:#ffff00;stroke-width:0.178133"
       id="path2871-2-24-6"
       cx="127.60802"
       cy="86.655487"
       rx="2.5"
       ry="3" />
    <ellipse
       style="fill:#ff0000;stroke-width:0.264583"
       id="path2871-1"
       cx="164.89267"
       cy="88.747971"
       rx="3.9385192"
       ry="4.2010875" />
    <ellipse
       style="fill:#0000ff;stroke-width:0.264583"
       id="path2871-2"
       cx="164.89267"
       cy="65.116852"
       rx="3.9385192"
       ry="4.2010875" />
    <ellipse
       style="fill:#0000ff;stroke-width:0.264583"
       id="path2871-2-7"
       cx="154.38995"
       cy="76.669846"
       rx="3.9385192"
       ry="4.2010875" />
    <ellipse
       style="fill:#ff00ff;stroke-width:0.178133"
       id="path2871-2-24-0"
       cx="154.9151"
       cy="79.255211"
       rx="2.5"
       ry="3" />
    <ellipse
       style="fill:#ffff00;stroke-width:0.178133"
       id="path2871-2-24-5"
       cx="146.51292"
       cy="69.305847"
       rx="2.5"
       ry="3" />
    <ellipse
       style="fill:#0000ff;stroke-width:0.264583"
       id="path2871-2-1"
       cx="132.85938"
       cy="75.619568"
       rx="3.9385192"
       ry="4.2010875" />
    <ellipse
       style="fill:#ff00ff;stroke-width:0.178133"
       id="path2871-2-24-0-0"
       cx="132.86743"
       cy="78.233154"
       rx="2.5"
       ry="3" />
    <ellipse
       style="fill:#0000ff;stroke-width:0.264583"
       id="path2871-2-2"
       cx="141.7867"
       cy="90.323372"
       rx="3.9385192"
       ry="4.2010875" />
    <ellipse
       style="fill:#ffffff;stroke-width:0.178133"
       id="path2871-2-24-4-3-6"
       cx="132.84329"
       cy="95.586815"
       rx="2.5"
       ry="3" />
    <ellipse
       style="fill:#ff00ff;stroke-width:0.178133"
       id="path2871-2-24-0-7"
       cx="141.78267"
       cy="92.411827"
       rx="2.5"
       ry="3" />
    <ellipse
       style="fill:#ffff00;stroke-width:0.178133"
       id="path2871-2-24"
       cx="124.58603"
       cy="69.159065"
       rx="2.5"
       ry="3" />
    <ellipse
       style="fill:#ffff00;stroke-width:0.178133"
       id="path2871-2-24-3"
       cx="164.88463"
       cy="90.856575"
       rx="2.5"
       ry="3" />
    <ellipse
       style="fill:#ff00ff;stroke-width:0.178133"
       id="path2871-2-24-4"
       cx="165.40977"
       cy="68.263634"
       rx="2.5"
       ry="3" />
    <ellipse
       style="fill:#ff6600;stroke-width:0.264583"
       id="path2871-2-79"
       cx="134.95993"
       cy="66.692261"
       rx="3.9385192"
       ry="4.2010875" />
    <ellipse
       style="fill:#ffffff;stroke-width:0.178133"
       id="path2871-2-24-4-3-0"
       cx="135.49713"
       cy="67.2174"
       rx="2.5"
       ry="3" />
    <ellipse
       style="fill:#ff6600;stroke-width:0.264583"
       id="path2871-2-79-5"
       cx="154.91508"
       cy="91.37365"
       rx="3.9385192"
       ry="4.2010875" />
    <ellipse
       style="fill:#ffffff;stroke-width:0.178133"
       id="path2871-2-24-4-3-1"
       cx="154.89497"
       cy="92.940994"
       rx="2.5"
       ry="3" />
    <ellipse
       style="fill:#ff6600;stroke-width:0.264583"
       id="path2871-2-79-1"
       cx="164.8927"
       cy="77.194984"
       rx="3.9385192"
       ry="4.2010875" />
    <ellipse
       style="fill:#ffffff;stroke-width:0.178133"
       id="path2871-2-24-4-3"
       cx="165.41782"
       cy="79.295525"
       rx="2.5"
       ry="3" />
    <path
       id="rect74153"
       style="fill:#ac9393;stroke-width:0.190588"
       d="m 161.83583,131.5425 c -4.22176,0.13926 -8.20149,2.37912 -9.87963,5.56469 -0.89564,1.56815 -1.06668,3.32425 -0.99195,5.03292 0.0181,3.81371 -0.0363,7.62884 0.0273,11.44169 0.22484,3.55513 3.15657,6.86361 7.20119,8.13712 4.07612,1.36186 9.06706,0.58017 12.20557,-1.96555 2.40933,-1.86769 3.67183,-4.622 3.51203,-7.32909 -0.0181,-4.03134 0.0363,-8.0641 -0.0273,-12.09459 -0.22581,-3.57728 -3.19394,-6.90297 -7.27546,-8.16031 -1.44007,-0.47079 -3.16367,-0.69721 -4.77174,-0.62688 z"
       inkscape:export-filename="D:\SEMESTER 5\GAME DESAIN\GAME TEAM DYNAMIXEL\Aset New\Batu.png"
       inkscape:export-xdpi="44.11438"
       inkscape:export-ydpi="44.11438" />
    <path
       id="rect74498"
       style="fill:#916f6f;stroke-width:0.159004"
       d="m 163.36629,138.05363 c -3.73418,0.10857 -7.45621,1.94731 -8.87856,4.84828 -0.87588,1.67792 -0.53567,3.53114 -0.60224,5.30148 0.0215,2.45218 -0.0434,4.90666 0.0328,7.3574 0.26794,2.91268 2.99576,5.38767 6.29519,6.30474 4.12793,1.23085 9.22617,0.23908 11.92797,-2.67831 1.32053,-1.36896 1.8964,-3.14465 1.76888,-4.87616 -0.0179,-3.12616 0.0359,-6.25396 -0.0269,-9.37911 -0.22972,-2.91498 -2.93377,-5.41204 -6.22438,-6.34965 -1.36829,-0.41356 -2.83825,-0.57991 -4.29268,-0.52867 z"
       inkscape:export-filename="D:\SEMESTER 5\GAME DESAIN\GAME TEAM DYNAMIXEL\Aset New\Batu.png"
       inkscape:export-xdpi="44.11438"
       inkscape:export-ydpi="44.11438" />
    <path
       id="rect74518"
       style="fill:#ac9393;stroke-width:0.182902"
       d="m 162.2228,154.18266 c -0.12922,-4.15562 -2.35983,-8.31478 -5.87108,-9.85204 -2.03725,-0.95757 -4.28294,-0.55215 -6.42621,-0.63873 -2.88019,0.0249 -5.76321,-0.0499 -8.64164,0.0378 -3.48564,0.29297 -6.44671,3.31352 -7.54369,6.96356 -1.47205,4.56841 -0.28338,10.20614 3.20548,13.19663 1.65881,1.47919 3.81436,2.10204 5.90972,1.95451 3.71343,-0.0203 7.42896,0.0406 11.1411,-0.0304 3.40632,-0.24847 6.33933,-3.11007 7.51189,-6.63669 0.54863,-1.58315 0.78231,-3.29854 0.71443,-4.99459 z"
       inkscape:export-filename="D:\SEMESTER 5\GAME DESAIN\GAME TEAM DYNAMIXEL\Aset New\Batu.png"
       inkscape:export-xdpi="44.11438"
       inkscape:export-ydpi="44.11438" />
    <path
       id="rect74520"
       style="fill:#916f6f;stroke-width:0.152593"
       d="m 160.39387,155.87389 c -0.0987,-3.43752 -1.72169,-7.22925 -4.70693,-8.63615 -1.64415,-0.8104 -3.47505,-0.41355 -5.21046,-0.5085 -2.25719,0.032 -4.51898,-0.0649 -6.77329,0.0497 -2.81843,0.39535 -4.95115,3.11445 -5.74489,6.05437 -0.72234,2.6098 -0.64649,5.37839 0.26688,7.9328 0.95944,2.74683 3.19617,5.14575 5.91911,5.26971 3.27334,0.004 6.54939,0.0405 9.82161,-0.0185 2.76905,-0.2599 4.94851,-2.82219 5.82679,-5.66087 0.47206,-1.45659 0.65086,-2.96204 0.60118,-4.48267 z"
       inkscape:export-filename="D:\SEMESTER 5\GAME DESAIN\GAME TEAM DYNAMIXEL\Aset New\Batu.png"
       inkscape:export-xdpi="44.11438"
       inkscape:export-ydpi="44.11438" />
    <path
       id="rect74522"
       style="fill:#ac9393;stroke-width:0.156944"
       d="m 164.48036,154.79734 c -3.85616,0.16825 -7.77734,0.53578 -11.44003,1.99167 -0.95008,0.43928 -1.95763,0.864 -2.57972,1.87496 -0.27891,0.8015 -0.0602,1.71026 -0.12966,2.55419 0.0252,1.39034 -0.0503,2.79172 0.0373,4.17535 0.45768,1.16398 1.64387,1.63247 2.61516,2.1007 3.19193,1.3023 6.62912,1.71175 9.96262,1.94742 4.69117,0.23791 9.36753,0.0343 13.95123,-1.14112 1.61955,-0.48884 3.35832,-0.96573 4.63221,-2.26552 0.65614,-0.70086 0.30302,-1.78925 0.39202,-2.68022 -0.0255,-1.47646 0.0508,-2.96429 -0.0376,-4.43383 -0.35835,-1.01111 -1.36483,-1.47583 -2.13639,-1.88937 -3.30995,-1.49566 -6.91074,-1.90038 -10.44108,-2.16564 -1.6075,-0.0892 -3.21706,-0.11163 -4.82605,-0.0685 z"
       inkscape:export-filename="D:\SEMESTER 5\GAME DESAIN\GAME TEAM DYNAMIXEL\Aset New\Batu.png"
       inkscape:export-xdpi="44.11438"
       inkscape:export-ydpi="44.11438" />
    <path
       id="rect74524"
       style="fill:#916f6f;stroke-width:0.130936"
       d="m 166.67385,158.03212 c -3.43464,0.14004 -6.9865,0.42957 -10.29468,1.68605 -0.75142,0.35977 -1.70355,0.67925 -2.05631,1.58653 -0.002,1.67006 -0.0489,3.35512 0.0228,5.01865 0.52701,1.01499 1.6584,1.32891 2.57784,1.71696 3.39303,1.12774 6.96022,1.41313 10.45308,1.48678 3.64346,0.0319 7.29358,-0.19869 10.86559,-1.15235 1.23729,-0.3983 2.62259,-0.73074 3.53545,-1.82459 0.30561,-0.62449 0.0695,-1.40397 0.1438,-2.09102 -0.0291,-1.08759 0.0579,-2.19218 -0.0427,-3.26948 -0.6143,-1.04345 -1.79722,-1.36567 -2.79238,-1.75759 -3.4596,-1.09086 -7.06751,-1.36669 -10.61989,-1.4143 -0.59754,-0.0113 -1.19515,0.011 -1.79269,0.0143 z"
       inkscape:export-filename="D:\SEMESTER 5\GAME DESAIN\GAME TEAM DYNAMIXEL\Aset New\Batu.png"
       inkscape:export-xdpi="44.11438"
       inkscape:export-ydpi="44.11438" />
    <path
       id="rect74686"
       style="fill:#ac9393;stroke-width:0.0959884"
       d="m 180.08209,148.21218 c -0.14029,-2.1027 -0.52598,-4.36365 -1.87271,-5.99376 -0.49557,-0.62852 -1.27842,-0.85596 -2.02548,-0.75844 -1.43426,0.0344 -2.87995,-0.0693 -4.30712,0.0526 -1.26845,0.42723 -1.88223,1.86484 -2.30634,3.09636 -0.86548,2.88991 -0.86235,6.09678 0.0535,8.97234 0.42607,1.19933 1.06329,2.59875 2.32382,2.96128 1.6614,0.0718 3.33215,0.0236 4.99658,0.0244 1.27378,-0.23436 1.95218,-1.61111 2.39333,-2.77432 0.63477,-1.77107 0.81924,-3.69594 0.74452,-5.58034 z"
       inkscape:export-filename="D:\SEMESTER 5\GAME DESAIN\GAME TEAM DYNAMIXEL\Aset New\Batu.png"
       inkscape:export-xdpi="44.11438"
       inkscape:export-ydpi="44.11438" />
    <path
       id="rect74688"
       style="fill:#916f6f;stroke-width:0.0800831"
       d="m 179.35402,149.4281 c -0.11795,-1.86922 -0.40216,-3.89355 -1.58464,-5.36037 -0.60254,-0.77843 -1.61614,-0.43895 -2.43118,-0.51073 -0.83443,0.0516 -1.69746,-0.10755 -2.51356,0.0876 -1.07973,0.60862 -1.47467,1.98803 -1.78989,3.15902 -0.57642,2.66476 -0.51951,5.55887 0.45751,8.11045 0.368,0.86718 1.00047,1.95335 2.03831,1.80181 1.19031,-0.0314 2.39277,0.0633 3.57548,-0.0481 1.05671,-0.4622 1.47318,-1.75336 1.8032,-2.8241 0.38687,-1.43053 0.49968,-2.93212 0.44477,-4.41563 z"
       inkscape:export-filename="D:\SEMESTER 5\GAME DESAIN\GAME TEAM DYNAMIXEL\Aset New\Batu.png"
       inkscape:export-xdpi="44.11438"
       inkscape:export-ydpi="44.11438" />
    <path
       id="path828"
       style="fill:#ac9393;stroke-width:0.0931054"
       d="m 148.23278,163.68595 c -0.20495,-1.35413 -0.76841,-2.81016 -2.73585,-3.85995 -0.72398,-0.40477 -1.86764,-0.55124 -2.95903,-0.48844 -2.09531,0.0222 -4.20734,-0.0446 -6.29229,0.0338 -1.8531,0.27514 -2.74976,1.20096 -3.36936,1.99403 -1.26437,1.86112 -1.25979,3.92631 0.078,5.77816 0.62245,0.77238 1.55337,1.67359 3.39488,1.90706 2.42714,0.0462 4.86794,0.0151 7.29953,0.0157 1.86087,-0.15093 2.85196,-1.03754 3.49642,-1.78664 0.92736,-1.14057 1.19685,-2.38018 1.08767,-3.59372 z"
       inkscape:export-filename="D:\SEMESTER 5\GAME DESAIN\GAME TEAM DYNAMIXEL\Aset New\Batu.png"
       inkscape:export-xdpi="44.11438"
       inkscape:export-ydpi="44.11438" />
    <path
       id="path830"
       style="fill:#916f6f;stroke-width:0.0776771"
       d="m 147.16915,164.46899 c -0.17231,-1.20377 -0.58752,-2.50743 -2.31502,-3.45205 -0.88025,-0.50131 -2.36102,-0.28268 -3.55173,-0.32891 -1.21902,0.0332 -2.4798,-0.0692 -3.67207,0.0565 -1.57737,0.39194 -2.15435,1.28029 -2.61486,2.03441 -0.84209,1.71609 -0.75895,3.57988 0.66838,5.22309 0.53762,0.55846 1.46161,1.25794 2.97779,1.16036 1.73891,-0.0202 3.49561,0.0408 5.22344,-0.031 1.54375,-0.29765 2.15218,-1.12916 2.6343,-1.8187 0.56519,-0.92127 0.72998,-1.88827 0.64977,-2.84365 z"
       inkscape:export-filename="D:\SEMESTER 5\GAME DESAIN\GAME TEAM DYNAMIXEL\Aset New\Batu.png"
       inkscape:export-xdpi="44.11438"
       inkscape:export-ydpi="44.11438" />
  </g>
</svg>
