<?xml version="1.0" encoding="UTF-8" standalone="no"?>
<!-- Created with Inkscape (http://www.inkscape.org/) -->

<svg
   width="210mm"
   height="297mm"
   viewBox="0 0 210 297"
   version="1.1"
   id="svg86"
   sodipodi:docname="Tree.svg"
   inkscape:version="1.1.1 (3bf5ae0d25, 2021-09-20)"
   xmlns:inkscape="http://www.inkscape.org/namespaces/inkscape"
   xmlns:sodipodi="http://sodipodi.sourceforge.net/DTD/sodipodi-0.dtd"
   xmlns="http://www.w3.org/2000/svg"
   xmlns:svg="http://www.w3.org/2000/svg">
  <sodipodi:namedview
     id="namedview88"
     pagecolor="#ffffff"
     bordercolor="#666666"
     borderopacity="1.0"
     inkscape:pageshadow="2"
     inkscape:pageopacity="0.0"
     inkscape:pagecheckerboard="0"
     inkscape:document-units="mm"
     showgrid="false"
     inkscape:zoom="0.535"
     inkscape:cx="258.8785"
     inkscape:cy="208.41121"
     inkscape:window-width="1366"
     inkscape:window-height="745"
     inkscape:window-x="-8"
     inkscape:window-y="-8"
     inkscape:window-maximized="1"
     inkscape:current-layer="layer1" />
  <defs
     id="defs83" />
  <g
     inkscape:label="Layer 1"
     inkscape:groupmode="layer"
     id="layer1">
    <g
       id="g57"
       inkscape:export-filename="D:\SEMESTER 5\GAME DESAIN\GAME TEAM DYNAMIXEL\Aset New\pohon hijau.png"
       inkscape:export-xdpi="84.666664"
       inkscape:export-ydpi="84.666664">
      <path
         id="path67010"
         style="fill:#552200;stroke-width:0.0979371"
         d="M 26.805346,9.1738622 36.711578,30.559855 46.303336,8.6932791 40.428387,30.920967 51.99007,24.806758 39.693971,37.583492 l 0.08335,20.923337 8.062048,-3.51977 -7.54432,9.209323 3.177936,20.429178 -12.579349,0.240296 3.4344,-20.720609 L 33.923754,37.60953 19.33074,24.020423 33.250442,30.801215 Z"
         sodipodi:nodetypes="cccccccccccccccc"
         inkscape:export-filename="D:\SEMESTER 5\GAME DESAIN\GAME TEAM DYNAMIXEL\Aset Game Petualangan Hafidzah\Pohon Hijau.png"
         inkscape:export-xdpi="96"
         inkscape:export-ydpi="96" />
      <path
         id="path67064"
         style="fill:#225500;stroke-width:0.10076"
         d="M 32.203101,24.629811 A 12.81986,7.2703321 0 0 1 19.383242,31.900146 12.81986,7.2703321 0 0 1 6.5633816,24.629811 12.81986,7.2703321 0 0 1 19.383242,17.35948 12.81986,7.2703321 0 0 1 32.203101,24.629811 Z"
         inkscape:export-filename="D:\SEMESTER 5\GAME DESAIN\GAME TEAM DYNAMIXEL\Aset Game Petualangan Hafidzah\Pohon Hijau.png"
         inkscape:export-xdpi="96"
         inkscape:export-ydpi="96" />
      <path
         id="path67061"
         style="fill:#225500;stroke-width:0.0971867"
         d="m 39.360537,11.798019 a 12.94282,6.9321602 0 0 1 -12.942816,6.93216 12.94282,6.9321602 0 0 1 -12.94282,-6.93216 12.94282,6.9321602 0 0 1 12.94282,-6.9321633 12.94282,6.9321602 0 0 1 12.942816,6.9321633 z"
         inkscape:export-filename="D:\SEMESTER 5\GAME DESAIN\GAME TEAM DYNAMIXEL\Aset Game Petualangan Hafidzah\Pohon Hijau.png"
         inkscape:export-xdpi="96"
         inkscape:export-ydpi="96" />
      <path
         id="path67058"
         style="fill:#225500;stroke-width:0.0979371"
         d="M 59.644722,16.678459 A 12.422108,8.0497821 0 0 1 47.222619,24.72824 12.422108,8.0497821 0 0 1 34.800512,16.678459 12.422108,8.0497821 0 0 1 47.222619,8.6286781 12.422108,8.0497821 0 0 1 59.644722,16.678459 Z"
         inkscape:export-filename="D:\SEMESTER 5\GAME DESAIN\GAME TEAM DYNAMIXEL\Aset Game Petualangan Hafidzah\Pohon Hijau.png"
         inkscape:export-xdpi="96"
         inkscape:export-ydpi="96" />
      <path
         id="path67055"
         style="fill:#225500;stroke-width:0.0979371"
         d="m 60.756295,32.06637 a 9.984858,7.5691979 0 0 1 -9.984859,7.569197 9.984858,7.5691979 0 0 1 -9.984857,-7.569197 9.984858,7.5691979 0 0 1 9.984857,-7.569198 9.984858,7.5691979 0 0 1 9.984859,7.569198 z"
         inkscape:export-filename="D:\SEMESTER 5\GAME DESAIN\GAME TEAM DYNAMIXEL\Aset Game Petualangan Hafidzah\Pohon Hijau.png"
         inkscape:export-xdpi="96"
         inkscape:export-ydpi="96" />
      <path
         id="path67052"
         style="fill:#225500;stroke-width:0.0979371"
         d="m 42.505371,39.635567 a 10.06348,7.9296365 0 0 1 -10.063476,7.929635 10.06348,7.9296365 0 0 1 -10.06348,-7.929635 10.06348,7.9296365 0 0 1 10.06348,-7.929639 10.06348,7.9296365 0 0 1 10.063476,7.929639 z"
         inkscape:export-filename="D:\SEMESTER 5\GAME DESAIN\GAME TEAM DYNAMIXEL\Aset Game Petualangan Hafidzah\Pohon Hijau.png"
         inkscape:export-xdpi="96"
         inkscape:export-ydpi="96" />
      <path
         id="path67049"
         style="fill:#338000;stroke-width:0.0979371"
         d="m 35.586721,14.885495 a 9.748995,6.7281767 0 0 1 -9.748992,6.728174 9.748995,6.7281767 0 0 1 -9.748997,-6.728174 9.748995,6.7281767 0 0 1 9.748997,-6.7281798 9.748995,6.7281767 0 0 1 9.748992,6.7281798 z"
         inkscape:export-filename="D:\SEMESTER 5\GAME DESAIN\GAME TEAM DYNAMIXEL\Aset Game Petualangan Hafidzah\Pohon Hijau.png"
         inkscape:export-xdpi="96"
         inkscape:export-ydpi="96" />
      <path
         id="path67046"
         style="fill:#338000;stroke-width:0.0979371"
         d="m 28.982572,28.582141 a 9.748995,6.7281767 0 0 1 -9.748996,6.728178 9.748995,6.7281767 0 0 1 -9.7489959,-6.728178 9.748995,6.7281767 0 0 1 9.7489959,-6.728175 9.748995,6.7281767 0 0 1 9.748996,6.728175 z"
         inkscape:export-filename="D:\SEMESTER 5\GAME DESAIN\GAME TEAM DYNAMIXEL\Aset Game Petualangan Hafidzah\Pohon Hijau.png"
         inkscape:export-xdpi="96"
         inkscape:export-ydpi="96" />
      <path
         id="path67043"
         style="fill:#338000;stroke-width:0.0979371"
         d="m 43.448821,42.51908 a 9.748995,6.7281767 0 0 1 -9.748993,6.728174 9.748995,6.7281767 0 0 1 -9.748999,-6.728174 9.748995,6.7281767 0 0 1 9.748999,-6.728178 9.748995,6.7281767 0 0 1 9.748993,6.728178 z"
         inkscape:export-filename="D:\SEMESTER 5\GAME DESAIN\GAME TEAM DYNAMIXEL\Aset Game Petualangan Hafidzah\Pohon Hijau.png"
         inkscape:export-xdpi="96"
         inkscape:export-ydpi="96" />
      <path
         id="path67040"
         style="fill:#338000;stroke-width:0.0979371"
         d="m 60.430941,35.550603 a 9.748995,6.7281767 0 0 1 -9.748995,6.728179 9.748995,6.7281767 0 0 1 -9.748997,-6.728179 9.748995,6.7281767 0 0 1 9.748997,-6.728177 9.748995,6.7281767 0 0 1 9.748995,6.728177 z"
         inkscape:export-filename="D:\SEMESTER 5\GAME DESAIN\GAME TEAM DYNAMIXEL\Aset Game Petualangan Hafidzah\Pohon Hijau.png"
         inkscape:export-xdpi="96"
         inkscape:export-ydpi="96" />
      <path
         id="path67037"
         style="fill:#338000;stroke-width:0.0979371"
         d="m 56.34265,18.970472 a 9.748995,6.7281767 0 0 1 -9.748995,6.728174 9.748995,6.7281767 0 0 1 -9.748993,-6.728174 9.748995,6.7281767 0 0 1 9.748993,-6.728178 9.748995,6.7281767 0 0 1 9.748995,6.728178 z"
         inkscape:export-filename="D:\SEMESTER 5\GAME DESAIN\GAME TEAM DYNAMIXEL\Aset Game Petualangan Hafidzah\Pohon Hijau.png"
         inkscape:export-xdpi="96"
         inkscape:export-ydpi="96" />
      <path
         id="path67034"
         style="fill:#225500;stroke-width:0.0971867"
         d="M 66.563382,53.368537 A 12.94282,6.9321602 0 0 1 53.620564,60.300695 12.94282,6.9321602 0 0 1 40.677741,53.368537 12.94282,6.9321602 0 0 1 53.620564,46.436378 12.94282,6.9321602 0 0 1 66.563382,53.368537 Z"
         inkscape:export-filename="D:\SEMESTER 5\GAME DESAIN\GAME TEAM DYNAMIXEL\Aset Game Petualangan Hafidzah\Pohon Hijau.png"
         inkscape:export-xdpi="96"
         inkscape:export-ydpi="96" />
      <path
         id="path67031"
         style="fill:#338000;stroke-width:0.0979371"
         d="m 62.632332,54.053101 a 9.748995,6.7281767 0 0 1 -9.748998,6.728173 9.748995,6.7281767 0 0 1 -9.748995,-6.728173 9.748995,6.7281767 0 0 1 9.748995,-6.728179 9.748995,6.7281767 0 0 1 9.748998,6.728179 z"
         inkscape:export-filename="D:\SEMESTER 5\GAME DESAIN\GAME TEAM DYNAMIXEL\Aset Game Petualangan Hafidzah\Pohon Hijau.png"
         inkscape:export-xdpi="96"
         inkscape:export-ydpi="96" />
      <path
         id="path67028"
         style="fill:#44aa00;stroke-width:0.0747943"
         d="m 30.554992,29.663459 a 7.0758839,5.4065703 0 0 1 -7.075886,5.406569 7.0758839,5.4065703 0 0 1 -7.075882,-5.406569 7.0758839,5.4065703 0 0 1 7.075882,-5.406572 7.0758839,5.4065703 0 0 1 7.075886,5.406572 z"
         inkscape:export-filename="D:\SEMESTER 5\GAME DESAIN\GAME TEAM DYNAMIXEL\Aset Game Petualangan Hafidzah\Pohon Hijau.png"
         inkscape:export-xdpi="96"
         inkscape:export-ydpi="96" />
      <path
         id="path67025"
         style="fill:#44aa00;stroke-width:0.0747943"
         d="m 36.52535,19.090606 a 7.0758839,5.4065703 0 0 1 -7.075884,5.406571 7.0758839,5.4065703 0 0 1 -7.075878,-5.406571 7.0758839,5.4065703 0 0 1 7.075878,-5.406571 7.0758839,5.4065703 0 0 1 7.075884,5.406571 z"
         inkscape:export-filename="D:\SEMESTER 5\GAME DESAIN\GAME TEAM DYNAMIXEL\Aset Game Petualangan Hafidzah\Pohon Hijau.png"
         inkscape:export-xdpi="96"
         inkscape:export-ydpi="96" />
      <path
         id="path67022"
         style="fill:#44aa00;stroke-width:0.0747943"
         d="m 51.939882,21.012937 a 7.0758839,5.4065703 0 0 1 -7.075886,5.406572 7.0758839,5.4065703 0 0 1 -7.075882,-5.406572 7.0758839,5.4065703 0 0 1 7.075882,-5.40657 7.0758839,5.4065703 0 0 1 7.075886,5.40657 z"
         inkscape:export-filename="D:\SEMESTER 5\GAME DESAIN\GAME TEAM DYNAMIXEL\Aset Game Petualangan Hafidzah\Pohon Hijau.png"
         inkscape:export-xdpi="96"
         inkscape:export-ydpi="96" />
      <path
         id="path67019"
         style="fill:#44aa00;stroke-width:0.0747943"
         d="m 42.033645,43.60039 a 7.0758839,5.4065703 0 0 1 -7.075882,5.406572 7.0758839,5.4065703 0 0 1 -7.075883,-5.406572 7.0758839,5.4065703 0 0 1 7.075883,-5.406571 7.0758839,5.4065703 0 0 1 7.075882,5.406571 z"
         inkscape:export-filename="D:\SEMESTER 5\GAME DESAIN\GAME TEAM DYNAMIXEL\Aset Game Petualangan Hafidzah\Pohon Hijau.png"
         inkscape:export-xdpi="96"
         inkscape:export-ydpi="96" />
      <path
         id="path67016"
         style="fill:#44aa00;stroke-width:0.0747943"
         d="m 58.85853,37.112506 a 7.0758839,5.4065703 0 0 1 -7.075887,5.40657 7.0758839,5.4065703 0 0 1 -7.075883,-5.40657 7.0758839,5.4065703 0 0 1 7.075883,-5.406572 7.0758839,5.4065703 0 0 1 7.075887,5.406572 z"
         inkscape:export-filename="D:\SEMESTER 5\GAME DESAIN\GAME TEAM DYNAMIXEL\Aset Game Petualangan Hafidzah\Pohon Hijau.png"
         inkscape:export-xdpi="96"
         inkscape:export-ydpi="96" />
      <path
         id="path67013"
         style="fill:#44aa00;stroke-width:0.0747943"
         d="M 58.85853,56.33587 A 7.0758839,5.4065703 0 0 1 51.782643,61.742441 7.0758839,5.4065703 0 0 1 44.70676,56.33587 7.0758839,5.4065703 0 0 1 51.782643,50.929299 7.0758839,5.4065703 0 0 1 58.85853,56.33587 Z"
         inkscape:export-filename="D:\SEMESTER 5\GAME DESAIN\GAME TEAM DYNAMIXEL\Aset Game Petualangan Hafidzah\Pohon Hijau.png"
         inkscape:export-xdpi="96"
         inkscape:export-ydpi="96" />
      <path
         id="path67007"
         style="fill:#803300;stroke-width:0.124267"
         d="m 38.25908,77.601605 c 1.412451,-1.825195 2.569012,-14.094038 2.035966,-13.405223 l 0.761179,4.893207 2.416757,15.535971 -12.579348,0.240296 z"
         sodipodi:nodetypes="cccccc"
         inkscape:export-filename="D:\SEMESTER 5\GAME DESAIN\GAME TEAM DYNAMIXEL\Aset Game Petualangan Hafidzah\Pohon Hijau.png"
         inkscape:export-xdpi="96"
         inkscape:export-ydpi="96" />
    </g>
    <g
       id="g70"
       transform="translate(-38.574766,0.98909657)"
       inkscape:export-filename="D:\SEMESTER 5\GAME DESAIN\GAME TEAM DYNAMIXEL\Aset New\pohon kelapa.png"
       inkscape:export-xdpi="84.666687"
       inkscape:export-ydpi="84.666687">
      <path
         id="rect6727"
         style="fill:#c8ab37;stroke-width:0.197827"
         d="m 146.7604,34.900524 c -0.63784,0.02403 -1.48793,0.305643 -1.45142,1.141706 0.0143,1.528817 0.37697,3.031391 0.53575,4.548485 0.81852,5.859366 1.58921,11.729338 2.43762,17.582072 2.19268,8.605654 4.2229,17.271634 5.65402,26.061179 0.075,0.446565 0.0474,1.037661 0.5711,1.164967 1.59375,0.606469 3.25432,0.583042 4.92645,0.587255 2.03621,-0.06809 3.9971,-0.175106 5.93757,-0.808366 0.388,-0.119915 0.87508,-0.349493 0.49237,-0.82111 -4.49053,-12.170008 -9.01505,-24.326769 -13.48435,-36.505043 -1.18352,-3.824659 -2.17023,-7.757329 -3.92031,-11.348046 -0.36163,-0.600812 -0.68312,-1.41265 -1.37062,-1.628369 -0.10939,0.0084 -0.21878,0.01684 -0.32818,0.02527 z" />
      <path
         id="path837"
         style="fill:#112b00;stroke-width:0.226437"
         d="m 127.6459,5.9957778 c -0.45217,-0.025139 -0.89228,0.3668444 -0.7235,0.8757322 0.3838,1.6466844 1.4478,2.9928874 2.3762,4.332697 3.29193,4.494279 7.19227,8.427307 10.64134,12.77629 0.35046,0.561367 1.00106,1.15237 0.80634,1.890551 -0.39713,0.639566 -1.15998,0.10046 -1.68776,-0.01362 -2.62689,-0.888596 -5.51987,-0.820622 -8.0903,0.253053 -3.75131,1.528095 -6.92255,4.307725 -9.82226,7.154476 -1.50524,1.537632 -3.03167,3.07177 -4.35682,4.789097 -0.2454,0.404513 -0.7783,1.097684 -0.27009,1.491504 1.14413,0.492107 2.42619,0.194138 3.61088,0.04784 4.44089,-0.800233 8.7616,-2.341275 12.99433,-4.014302 1.56781,-0.582094 3.04201,-1.431275 4.65506,-1.869447 -0.87946,1.274089 -2.0113,2.349794 -2.6824,3.783502 -1.29334,2.491982 -1.77096,5.502235 -1.65737,8.36868 0.12524,2.475184 0.47327,4.979187 1.33358,7.293931 0.24308,0.562464 0.6767,1.517499 1.39255,1.163968 1.12256,-0.735392 1.7047,-2.084325 2.3604,-3.249064 2.08816,-4.066576 3.53568,-8.483453 5.8363,-12.428285 0.68888,-1.133891 1.58273,-2.427098 2.97125,-2.502472 1.45047,-0.17811 2.57273,1.065309 3.32333,2.227414 1.72274,2.741584 3.16182,5.825562 5.71439,7.831939 1.46673,1.229555 3.19486,1.892698 4.97885,2.348925 2.28398,0.596268 4.64132,1.305 7.03726,1.186136 0.50883,-0.03685 1.3807,-0.232463 1.22515,-0.971981 -0.34672,-1.434761 -1.42104,-2.499957 -2.32254,-3.570397 -3.57905,-3.80152 -7.65803,-7.016458 -11.73634,-10.178628 -1.67259,-1.28963 -3.372,-2.538796 -5.07943,-3.775441 2.68912,-2.154425 6.07474,-2.951117 9.364,-3.282918 4.40105,-0.47662 8.83015,-0.05665 13.23863,-0.318053 1.04321,-0.141648 2.27988,-0.135311 3.06473,-0.987051 0.46922,-0.843529 -0.16783,-1.794619 -0.58493,-2.514159 -1.84769,-2.856143 -4.53295,-5.286724 -7.79403,-5.993199 -3.96259,-0.898252 -8.00018,0.45944 -11.4719,2.49314 -2.53289,1.467097 -4.79743,3.398273 -6.88568,5.500752 -0.51577,0.516853 -1.44082,0.605025 -1.8562,-0.09476 -0.7804,-1.34063 -0.87965,-2.973688 -1.26558,-4.466712 -0.73462,-3.481845 -1.87889,-7.126306 -4.50797,-9.520526 -1.57629,-1.435138 -3.57848,-2.1489875 -5.41743,-3.1071811 -2.30981,-1.0871899 -4.70833,-2.1913115 -7.12609,-2.7871688 -0.43784,-0.087198 -1.06801,-0.209051 -1.58595,-0.1642593 z" />
      <path
         id="path8427"
         style="fill:#225500;stroke-width:0.197602"
         inkscape:transform-center-x="-6.5309137"
         inkscape:transform-center-y="-5.9506041"
         d="m 130.75543,9.0108677 c -0.63403,0.052092 -0.45623,0.8539388 -0.27523,1.2703053 0.86607,2.097407 2.32878,3.832724 3.67486,5.593813 2.40352,3.066064 5.06276,5.893104 7.43218,8.99671 0.29827,0.494462 0.94806,1.125498 0.58313,1.746412 -0.48095,0.489432 -1.14778,-0.07189 -1.68692,-0.15794 -2.43641,-0.810362 -5.12096,-0.545742 -7.41885,0.611639 -3.31297,1.618184 -6.02955,4.202722 -8.60607,6.902279 -1.048,1.176261 -2.2018,2.273991 -3.06433,3.617749 -0.20205,0.312645 -0.39284,0.920102 0.10997,1.02607 1.38399,0.358291 2.82293,-0.04629 4.19491,-0.301319 4.47618,-1.057709 8.79864,-2.735999 12.98421,-4.640909 0.24886,-0.0049 1.28063,-0.593996 0.95385,-0.169285 -0.83465,1.193597 -1.86366,2.249717 -2.43885,3.631894 -1.48726,3.211838 -1.49083,7.01864 -0.88993,10.398056 0.2701,1.332905 0.45611,2.656536 1.18585,3.80424 0.30342,0.558197 0.91893,0.240529 1.2043,-0.151623 1.37142,-1.690072 2.14848,-3.807336 3.04785,-5.798906 1.26776,-2.848057 2.31011,-5.849512 4.02851,-8.438663 0.58088,-0.929927 1.60424,-1.625745 2.68362,-1.410672 1.45797,0.304345 2.23756,1.836717 2.97147,3.058268 1.41345,2.542644 2.95448,5.218377 5.4709,6.672116 1.55814,0.940528 3.47072,1.309779 5.20075,1.77513 1.46141,0.299388 2.99117,0.727178 4.47419,0.363204 0.62658,-0.135852 0.47493,-0.924726 0.22571,-1.351974 -1.09008,-2.01383 -2.7936,-3.542292 -4.38166,-5.099181 -3.77861,-3.505906 -7.82636,-6.667466 -11.93367,-9.720404 2.33065,-1.927129 5.29272,-2.663334 8.17765,-2.949308 3.83901,-0.436302 7.70671,-0.02565 11.55137,-0.298553 0.84976,-0.115977 1.86879,-0.140882 2.46975,-0.879133 0.34063,-0.899054 -0.34827,-1.775293 -0.77989,-2.497443 -1.45116,-2.13955 -3.41928,-4.007356 -5.85048,-4.734666 -1.59611,-0.509305 -3.43457,-0.51993 -5.10897,-0.158496 -4.12206,0.918409 -7.75459,3.497855 -10.75751,6.559292 -0.46828,0.553677 -1.29455,1.237559 -1.96946,0.638626 -0.77295,-0.862001 -0.82733,-2.149669 -1.1116,-3.247141 -0.64737,-3.2675 -1.49812,-6.778047 -3.87161,-9.150527 -1.42706,-1.436371 -3.33374,-2.109036 -5.05928,-3.030416 -2.13827,-0.994627 -4.29098,-2.0905759 -6.6152,-2.4775312 -0.26693,-0.039131 -0.53875,-0.044348 -0.80552,-0.00171 z" />
      <path
         id="path13083"
         style="fill:#a0892c;stroke-width:0.194853"
         d="m 146.96087,34.887888 c -0.99686,0.06709 -1.51007,1.18489 -1.54734,2.13378 1.58159,1.264969 3.16238,2.531073 4.74448,3.795318 -0.88757,1.631941 -1.77289,3.265261 -2.65958,4.897744 1.31464,0.955726 2.72053,1.779735 3.97723,2.819657 0.89513,0.770445 1.15637,2.164395 0.65974,3.259414 -0.64089,1.717457 -2.10841,2.870314 -2.89956,4.48401 -0.23017,0.535983 0.50649,0.650644 0.84976,0.712942 1.92334,0.275625 3.97223,-0.102362 5.79904,0.745897 0.56157,0.468066 0.1012,-0.273949 0.012,-0.617293 -1.20208,-3.265017 -2.47874,-6.500847 -3.63479,-9.783878 -1.15689,-3.690714 -2.12703,-7.490571 -3.85445,-10.941104 -0.349,-0.558666 -0.66054,-1.323449 -1.31139,-1.517542 l -0.0758,0.0062 z m 9.73396,24.442919 c -0.42516,1.340413 -1.60649,2.178185 -2.55188,3.090137 -0.91243,0.891844 -2.04055,1.616055 -2.67817,2.774205 -0.1236,0.437817 0.54016,0.454852 0.81174,0.536319 1.49841,0.260276 3.01233,-0.05218 4.51335,0.0023 0.60606,0.005 0.96579,0.764112 0.59404,1.27727 -0.90137,1.346119 -2.23469,2.2687 -3.34272,3.407253 -0.69468,0.743124 -1.59519,1.438386 -1.86363,2.490728 0.16908,0.558186 0.89892,0.513257 1.35726,0.601754 2.22472,0.203686 4.42353,-0.525473 6.66441,-0.356357 0.83394,0.03625 1.93218,0.468719 1.92167,1.525119 -0.0979,1.33604 -1.09364,2.330915 -1.88214,3.279585 -1.88425,2.108599 -4.11422,3.824598 -6.05849,5.863373 -0.35585,0.31557 0.3474,0.473371 0.55143,0.581456 1.88393,0.546127 3.76111,0.487022 5.71297,0.422758 1.41499,-0.08679 2.86894,-0.224499 4.21858,-0.582217 0.41487,-0.124355 0.85997,-0.23155 1.20125,-0.525999 -3.05309,-8.14817 -6.10618,-16.296336 -9.15927,-24.444502 z" />
      <path
         id="path8501"
         style="fill:#338000;stroke-width:0.159771"
         inkscape:transform-center-x="-5.1827676"
         inkscape:transform-center-y="-4.9021651"
         d="m 134.99797,13.000452 c -0.52958,0.07483 -0.21492,0.791289 -0.10354,1.115091 0.99699,2.200388 2.56299,4.032766 4.00721,5.908173 1.65908,2.127218 3.48729,4.110152 5.01654,6.348004 0.3033,0.383629 0.4867,1.165918 -0.13514,1.310909 -0.8317,-0.116927 -1.58852,-0.546899 -2.40912,-0.613824 -2.72895,-0.458584 -5.33589,1.003872 -7.43693,2.7134 -2.25178,1.84932 -4.25046,4.031995 -6.08171,6.34078 -0.15752,0.298273 -0.56994,0.739542 -0.30887,1.067681 1.02911,0.386935 2.15434,0.02816 3.19482,-0.14892 3.68313,-0.858578 7.20805,-2.339713 10.65721,-3.927712 0.29536,-0.04612 1.28817,-0.635005 0.72289,-0.01134 -0.73664,1.074937 -1.62386,2.053761 -2.08206,3.318034 -1.04757,2.613539 -1.03427,5.45732 -0.57979,8.21101 0.22256,1.103796 0.35662,2.314421 1.02099,3.232565 0.40332,0.355851 0.79039,-0.325088 1.02522,-0.617426 1.32832,-2.097287 2.10605,-4.48028 3.09086,-6.759371 0.79347,-1.788038 1.44666,-3.723908 2.72569,-5.198478 0.78497,-0.880486 2.2168,-0.759509 2.93112,0.161113 1.30034,1.565178 1.97023,3.602784 3.25357,5.188285 1.15205,1.586504 2.84331,2.650833 4.67287,3.087828 1.6084,0.429719 3.29536,1.023931 4.99543,0.821292 0.47043,-0.0065 0.6283,-0.532122 0.39065,-0.913155 -0.75838,-1.636672 -2.09567,-2.860516 -3.3026,-4.118503 -3.07019,-2.992915 -6.39143,-5.678353 -9.75927,-8.278013 1.88299,-1.642383 4.32436,-2.279781 6.70126,-2.515511 2.95231,-0.328182 5.97773,-0.03837 8.89683,-0.213706 0.64609,-0.11855 1.68612,-0.06164 2.11311,-0.796022 0.12329,-0.963189 -0.59854,-1.761738 -1.08146,-2.497813 -1.40186,-2.00842 -3.5653,-3.519126 -5.96678,-3.586465 -3.29005,-0.112307 -6.3418,1.664072 -8.84566,3.786039 -0.91105,0.70845 -1.62952,1.655163 -2.51821,2.383526 -0.55405,0.405124 -1.25044,-0.05354 -1.41666,-0.679144 -0.65193,-2.075663 -0.80365,-4.305467 -1.60881,-6.335102 -0.72492,-2.028301 -2.09041,-3.863969 -4.00363,-4.724512 -2.26163,-1.172366 -4.52185,-2.46932 -7.00087,-3.033445 -0.25687,-0.03811 -0.51689,-0.0689 -0.77516,-0.02527 z" />
      <path
         id="path15694"
         style="fill:#88aa00;stroke-width:0.226437"
         d="m 145.39572,32.929423 c -1.77218,0.557957 -2.60621,2.729953 -2.41548,4.560239 0.10376,1.616002 1.0925,3.416628 2.71727,3.63416 1.5602,0.211843 2.81384,-1.311705 3.12775,-2.813694 0.49163,-1.899136 -0.1095,-4.326891 -1.8733,-5.232241 -0.4907,-0.250528 -1.03078,-0.258352 -1.55624,-0.148464 z" />
      <path
         id="ellipse15954"
         style="fill:#aad400;stroke-width:0.184785"
         d="m 145.36899,34.428281 c -1.59063,0.585018 -2.1646,2.702136 -1.73638,4.302875 0.25264,1.294609 1.43751,2.544848 2.75358,2.164801 1.5933,-0.593077 2.16243,-2.697922 1.75432,-4.310768 -0.28303,-1.290458 -1.42745,-2.574538 -2.77152,-2.156908 z" />
      <path
         id="ellipse15992"
         style="fill:#88aa00;stroke-width:0.226437"
         d="m 142.33223,26.379617 c -1.80116,0.568452 -2.62926,2.787665 -2.41265,4.64245 0.12749,1.642543 1.19169,3.455365 2.86546,3.572559 1.59215,0.07668 2.76626,-1.52357 3.02593,-3.066554 0.39871,-1.866799 -0.25226,-4.205583 -1.99598,-5.028637 -0.47034,-0.230347 -0.9839,-0.217772 -1.48276,-0.119818 z" />
      <path
         id="ellipse15994"
         style="fill:#aad400;stroke-width:0.184785"
         d="m 142.30253,27.880055 c -1.58864,0.585667 -2.16627,2.702626 -1.73637,4.302876 0.25202,1.295005 1.43944,2.546451 2.75506,2.161642 1.56868,-0.578394 2.14033,-2.634425 1.77305,-4.229655 -0.26407,-1.316217 -1.41896,-2.662718 -2.79174,-2.234863 z" />
      <path
         id="ellipse15996"
         style="fill:#88aa00;stroke-width:0.226437"
         d="m 145.94286,27.650961 c -1.03891,1.588605 -0.38037,3.773527 0.82757,5.065243 1.02376,1.180301 2.79986,1.980327 4.24795,1.202486 1.312,-0.717541 1.51514,-2.540583 1.0226,-3.868805 -0.64769,-1.909333 -2.50292,-3.590405 -4.53917,-3.344526 -0.62784,0.07661 -1.1704,0.438289 -1.55895,0.945602 z" />
      <path
         id="ellipse15998"
         style="fill:#aad400;stroke-width:0.184785"
         d="m 146.82545,28.839061 c -0.88138,1.520798 -0.0332,3.517041 1.2598,4.482827 0.95201,0.811544 2.60236,1.062064 3.41616,-0.06878 0.88185,-1.380319 0.1855,-3.246994 -0.91295,-4.278294 -0.98486,-0.982264 -2.8486,-1.483894 -3.76301,-0.135756 z" />
    </g>
    <g
       id="g2642"
       inkscape:export-filename="D:\SEMESTER 5\GAME DESAIN\GAME TEAM DYNAMIXEL\Aset New\Pohon 1.png"
       inkscape:export-xdpi="84.666687"
       inkscape:export-ydpi="84.666687">
      <ellipse
         style="fill:#d45500;stroke:none;stroke-width:0.333913"
         id="path256"
         cx="175.2742"
         cy="37.342506"
         rx="19.227385"
         ry="31.253819" />
      <ellipse
         style="fill:#ff6600;stroke:none;stroke-width:0.310196"
         id="ellipse1340"
         cx="175.3618"
         cy="37.988525"
         rx="17.727501"
         ry="29.254" />
      <ellipse
         style="fill:#ff7f2a;stroke:none;stroke-width:0.25392"
         id="ellipse2470"
         cx="174.86031"
         cy="43.408852"
         rx="14.580215"
         ry="23.833673" />
      <path
         id="rect360"
         style="fill:#d40000;stroke:none;stroke-width:0.172581"
         d="m 174.46001,34.344955 c -0.6119,0.01285 -1.07591,0.352505 -1.07277,0.815319 l 0.0734,10.824117 c 1.9e-4,0.0309 0.002,0.06135 0.007,0.09183 -0.44721,0.08067 -0.86639,0.206594 -1.24678,0.369975 l -8.33194,-7.820338 c -0.46663,-0.437994 -1.28162,-0.581675 -1.82737,-0.322524 -0.54574,0.259142 -0.60941,0.820368 -0.14277,1.258362 l 8.66098,8.12948 c -0.28644,0.401282 -0.44665,0.852078 -0.44665,1.329151 v 4.80085 l -7.44001,-7.407116 c -0.5526,-0.550159 -1.51826,-0.731064 -2.16455,-0.405564 -0.6463,0.32551 -0.72121,1.030364 -0.1686,1.580523 l 9.77316,9.730267 v 27.490538 c 0,1.688586 2.00933,3.047784 4.5052,3.047784 2.49587,0 4.5052,-1.359198 4.5052,-3.047784 v -27.23535 l 9.63583,-9.593296 c 0.55261,-0.550148 0.47703,-1.255396 -0.16927,-1.580905 -0.6463,-0.3255 -1.61127,-0.144594 -2.16388,0.405564 l -7.30268,7.270536 v -5.05605 c 0,-0.60336 -0.25797,-1.164082 -0.70157,-1.636378 l 7.99745,-7.506602 c 0.46663,-0.438004 0.40298,-0.99923 -0.14276,-1.258372 -0.54575,-0.25915 -1.36075,-0.115087 -1.82737,0.322917 l -7.82683,7.346675 c -0.20369,-0.06822 -0.41573,-0.126626 -0.63563,-0.173702 l -0.0734,-10.727708 c -0.004,-0.510691 -0.57348,-0.972516 -1.27876,-1.035315 -0.0661,-0.0059 -0.13116,-0.0082 -0.19443,-0.0069 z" />
      <path
         id="path1468"
         style="fill:#aa0000;stroke:none;stroke-width:0.153508"
         d="m 174.54375,36.186771 c -0.51781,0.01202 -0.91047,0.329578 -0.90781,0.762289 l 0.0621,10.120101 c 1.7e-4,0.02888 0.002,0.05736 0.006,0.08586 -0.37845,0.07541 -0.73318,0.193155 -1.05507,0.34591 l -7.05079,-7.311691 c -0.39488,-0.409506 -1.08457,-0.543842 -1.54638,-0.301546 -0.46184,0.242287 -0.5157,0.76701 -0.12083,1.176516 l 7.32924,7.600725 c -0.2424,0.375183 -0.37799,0.796659 -0.37799,1.242701 v 4.488597 l -6.29599,-6.925347 c -0.46763,-0.514374 -1.2848,-0.683515 -1.83173,-0.379184 -0.54691,0.304337 -0.6103,0.963346 -0.14267,1.477721 l 8.27039,9.097395 v 25.70251 c 0,1.578759 1.70039,2.849552 3.81247,2.849552 2.11209,0 3.81246,-1.270793 3.81246,-2.849552 V 57.905407 l 8.1542,-8.969333 c 0.46763,-0.514366 0.40367,-1.173742 -0.14325,-1.47808 -0.54691,-0.304329 -1.36352,-0.13519 -1.83116,0.379186 l -6.17979,6.797649 v -4.727198 c 0,-0.564116 -0.2183,-1.088368 -0.59369,-1.529945 l 6.76772,-7.018361 c 0.39489,-0.409514 0.34103,-0.934239 -0.1208,-1.176524 -0.46182,-0.242295 -1.15151,-0.107602 -1.54638,0.301912 l -6.62335,6.868837 c -0.17237,-0.06378 -0.35179,-0.118391 -0.53789,-0.162405 l -0.0622,-10.029961 c -0.004,-0.477474 -0.48529,-0.909261 -1.08215,-0.967976 -0.0559,-0.0056 -0.11097,-0.0076 -0.16451,-0.0065 z" />
    </g>
  </g>
</svg>
